<?xml version="1.0" standalone="no"?>
<!DOCTYPE svg PUBLIC "-//W3C//DTD SVG 1.1//EN" "http://www.w3.org/Graphics/SVG/1.1/DTD/svg11.dtd" >
<svg>
<metadata>
Created by FontForge 20110222 at Thu Jan  2 02:45:26 2014
 By Orthosie Webhosting
Copyright (c) JT Types Ltd, 2006. All rights reserved.
</metadata>
<defs>
<font id="BlissProItalic" horiz-adv-x="367" >
  <font-face 
    font-family="BlissProItalic"
    font-weight="400"
    font-style="italic"
    font-stretch="normal"
    units-per-em="1000"
    panose-1="2 0 5 6 5 0 0 9 0 4"
    ascent="800"
    descent="-200"
    x-height="473"
    cap-height="659"
    bbox="-214 -241 1123 953"
    underline-thickness="50"
    underline-position="-50"
    slope="-12"
    unicode-range="U+0020-FB02"
  />
<missing-glyph horiz-adv-x="550" 
d="M50 0v659h450v-659h-450zM101 48h348v563h-348v-563zM231 222q-29 29 -29 60q0 25 20.5 48.5t44.5 38.5t44.5 37.5t20.5 47.5q0 21 -15.5 34t-39.5 13q-41 0 -85 -39l-27 35q49 51 117 51q48 0 77 -25.5t29 -65.5q0 -31 -20.5 -59t-45.5 -45t-45.5 -35.5t-20.5 -32.5
q0 -16 17 -35zM255 107q-16 0 -27 11t-11 28t11 28.5t27 11.5t26.5 -11.5t10.5 -28.5t-10.5 -28t-26.5 -11z" />
    <glyph glyph-name="fi" unicode="fi" horiz-adv-x="547" 
d="M-90 -170q91 88 130.5 204.5t74.5 367.5h-74l11 71h73l10 63q11 59 34 95q50 77 144 77q54 0 92 -23l-28 -68q-30 15 -60 15q-76 0 -94 -98l-10 -61h111l-27 -71h-95q-16 -105 -26.5 -164.5t-29.5 -139.5t-41 -130t-57.5 -103t-81.5 -93zM324 0l101 473h87l-102 -473h-86
zM493 571q-24 0 -38 14t-14 35q0 28 19 45.5t44 17.5q24 0 38 -14t14 -35q0 -27 -19 -45t-44 -18z" />
    <glyph glyph-name="fl" unicode="fl" horiz-adv-x="575" 
d="M-90 -170q91 88 130.5 204.5t74.5 367.5h-74l11 71h73l10 63q11 59 34 95q50 77 144 77q54 0 92 -23l-28 -68q-30 15 -60 15q-76 0 -94 -98l-10 -61h111l-27 -71h-95q-16 -105 -26.5 -164.5t-29.5 -139.5t-41 -130t-57.5 -103t-81.5 -93zM426 -6q-42 0 -66.5 21.5
t-24.5 62.5q0 16 6 49l124 581h87l-124 -580q-4 -17 -4 -31q0 -26 29 -26q17 0 38 7v-72q-31 -12 -65 -12z" />
    <glyph glyph-name=".notdef" horiz-adv-x="550" 
d="M50 0v659h450v-659h-450zM101 48h348v563h-348v-563zM231 222q-29 29 -29 60q0 25 20.5 48.5t44.5 38.5t44.5 37.5t20.5 47.5q0 21 -15.5 34t-39.5 13q-41 0 -85 -39l-27 35q49 51 117 51q48 0 77 -25.5t29 -65.5q0 -31 -20.5 -59t-45.5 -45t-45.5 -35.5t-20.5 -32.5
q0 -16 17 -35zM255 107q-16 0 -27 11t-11 28t11 28.5t27 11.5t26.5 -11.5t10.5 -28.5t-10.5 -28t-26.5 -11z" />
    <glyph glyph-name=".null" horiz-adv-x="0" 
 />
    <glyph glyph-name="nonmarkingreturn" horiz-adv-x="333" 
 />
    <glyph glyph-name="space" unicode=" " horiz-adv-x="179" 
 />
    <glyph glyph-name="exclam" unicode="!" horiz-adv-x="279" 
d="M78 -8q-21 0 -34.5 14.5t-13.5 35.5q0 26 16.5 43.5t41.5 17.5q21 0 35 -15t14 -36q0 -25 -17 -42.5t-42 -17.5zM83 181q4 90 16 163t53 263l11 52h88l-11 -52q-57 -266 -79 -336q-12 -40 -31 -90h-47z" />
    <glyph glyph-name="quotedbl" unicode="&#x22;" horiz-adv-x="443" 
d="M188 483l-61 12l47 220l83 -17zM356 483l-60 12l47 220l82 -17z" />
    <glyph glyph-name="numbersign" unicode="#" horiz-adv-x="679" 
d="M84 0l55 175h-124l7 71h140l54 170h-125l7 71h140l54 171h85l-54 -171h131l54 171h85l-54 -171h123l-7 -71h-139l-53 -170h124l-7 -71h-140l-55 -175h-85l55 175h-131l-55 -175h-85zM247 246h131l54 170h-131z" />
    <glyph glyph-name="dollar" unicode="$" horiz-adv-x="529" 
d="M141 -82l21 100q-65 6 -119 39l31 68q57 -36 122 -36q55 0 92.5 24.5t37.5 80.5q0 30 -15 55t-37 41t-48.5 35.5t-48.5 37.5t-37 48.5t-15 68.5q0 69 47 114.5t122 53.5l19 93h70l-20 -94q57 -7 101 -29l-16 -72q-59 31 -124 31q-46 0 -77.5 -21.5t-31.5 -64.5
q0 -27 15 -49.5t37 -37.5t48.5 -34t48.5 -38.5t37 -52.5t15 -75q0 -81 -51.5 -129t-132.5 -57l-21 -100h-70z" />
    <glyph glyph-name="percent" unicode="%" horiz-adv-x="874" 
d="M151 0l490 659h78l-490 -659h-78zM222 316q-60 0 -93.5 35.5t-33.5 98.5q0 92 48.5 153.5t129.5 61.5q60 0 93 -36t33 -99q0 -92 -48.5 -153t-128.5 -61zM228 374q45 0 72 47.5t27 106.5q0 79 -60 79q-45 0 -72 -48t-27 -107q0 -78 60 -78zM594 -10q-60 0 -93.5 35.5
t-33.5 98.5q0 92 48.5 153.5t129.5 61.5q60 0 93 -36t33 -98q0 -92 -48.5 -153.5t-128.5 -61.5zM600 48q44 0 71.5 48t27.5 106q0 79 -61 79q-44 0 -71 -48t-27 -107q0 -78 60 -78z" />
    <glyph glyph-name="ampersand" unicode="&#x26;" horiz-adv-x="776" 
d="M253 -10q-99 0 -160.5 49.5t-61.5 132.5q0 82 53.5 136t151.5 72v2q-83 39 -83 124q0 72 57.5 115.5t146.5 43.5q102 0 173 -41l-25 -70q-70 38 -145 38q-51 0 -84.5 -21.5t-33.5 -65.5q0 -80 107 -110l-14 -64q-101 0 -158 -40t-57 -104q0 -57 37 -90.5t105 -33.5
q98 0 176.5 64t107.5 190h-83l15 71h278l-29 -71h-98q-18 -85 -58 -149.5t-91.5 -102.5t-109 -56.5t-117.5 -18.5z" />
    <glyph glyph-name="quotesingle" unicode="'" horiz-adv-x="274" 
d="M188 483l-61 12l47 220l83 -17z" />
    <glyph glyph-name="parenleft" unicode="(" horiz-adv-x="332" 
d="M159 -233q-96 134 -96 366q0 166 65 337t198 301l50 -52q-106 -111 -165 -265.5t-59 -321.5q0 -109 17.5 -182t54.5 -143z" />
    <glyph glyph-name="parenright" unicode=")" horiz-adv-x="332" 
d="M3 -233l-50 52q106 111 165 265.5t59 321.5q0 109 -17.5 182t-54.5 143l65 40q96 -134 96 -366q0 -166 -65 -337t-198 -301z" />
    <glyph glyph-name="asterisk" unicode="*" horiz-adv-x="487" 
d="M234 337l-62 27q12 28 43 79t37 62q-7 -2 -66.5 -18t-91.5 -18l-7 66q19 4 83.5 2.5t76.5 -0.5q-7 8 -48.5 50.5t-59.5 68.5l53 39q19 -24 48.5 -78.5t33.5 -60.5q4 11 20 68.5t29 85.5l61 -26q-11 -30 -44 -82.5t-36 -58.5q5 1 66 17t93 18l7 -67q-15 -5 -84 -2.5
t-77 2.5q7 -8 48.5 -50.5t59.5 -68.5l-55 -40q-18 25 -45.5 76.5t-35.5 63.5q-4 -14 -12 -45.5t-16.5 -59.5t-18.5 -50z" />
    <glyph glyph-name="plus" unicode="+" horiz-adv-x="531" 
d="M212 0v215h-195v74h195v210h82v-210h196v-74h-196v-215h-82z" />
    <glyph glyph-name="comma" unicode="," horiz-adv-x="235" 
d="M-11 -133l-41 33q45 49 62 97t18 109h87q0 -149 -126 -239z" />
    <glyph glyph-name="hyphen" unicode="-" horiz-adv-x="342" 
d="M18 210l16 76h250l-16 -76h-250z" />
    <glyph glyph-name="period" unicode="." horiz-adv-x="235" 
d="M58 -8q-21 0 -34.5 14.5t-13.5 35.5q0 26 16.5 43.5t41.5 17.5q21 0 34.5 -15t13.5 -36q0 -26 -16.5 -43t-41.5 -17z" />
    <glyph glyph-name="slash" unicode="/" horiz-adv-x="391" 
d="M-15 -32l329 728h92l-329 -728h-92z" />
    <glyph glyph-name="zero" unicode="0" horiz-adv-x="537" 
d="M213 -10q-87 0 -132.5 57.5t-45.5 166.5q0 81 19 160.5t54 144.5t91 105.5t123 40.5q88 0 133.5 -57.5t45.5 -167.5t-32 -210.5t-99.5 -170t-156.5 -69.5zM218 66q52 0 96 54.5t69 143t25 186.5q0 139 -91 139q-52 0 -95.5 -55t-68.5 -143.5t-25 -186.5q0 -138 90 -138z
" />
    <glyph glyph-name="one" unicode="1" horiz-adv-x="413" 
d="M134 0l119 560q-67 -39 -168 -62v74q42 11 102.5 38t99.5 54h75l-142 -664h-86z" />
    <glyph glyph-name="two" unicode="2" horiz-adv-x="520" 
d="M7 0q10 70 36 128t60 95.5t72.5 68.5t75 54.5t66.5 46.5t48 50.5t18 60.5q0 85 -103 85q-73 0 -159 -41l-17 71q98 46 190 46q82 0 131.5 -41t49.5 -113q0 -56 -31 -100.5t-77.5 -78t-95 -66.5t-90.5 -82t-57 -109h305l-16 -75h-406z" />
    <glyph glyph-name="three" unicode="3" horiz-adv-x="523" 
d="M-4 29l37 70q58 -33 138 -33q67 0 120 32t53 101q0 54 -39 76t-118 22h-77l10 72h43q61 0 99 11q50 14 80 45t30 78q0 44 -29.5 65t-78.5 21q-71 0 -151 -35l-16 69q92 42 182 42q87 0 136.5 -41t49.5 -112q0 -125 -141 -172v-2q113 -24 113 -134q0 -93 -73.5 -153.5
t-192.5 -60.5q-104 0 -175 39z" />
    <glyph glyph-name="four" unicode="4" horiz-adv-x="575" 
d="M275 0l36 171h-263l-9 67l391 426h73l-89 -420h99l-16 -73h-99l-36 -171h-87zM328 244l28 128q16 74 38 154l-256 -283q14 0 43 0.5t46 0.5h101z" />
    <glyph glyph-name="five" unicode="5" horiz-adv-x="519" 
d="M1 29l37 70q55 -33 132 -33q70 0 122.5 38t52.5 110q0 110 -168 110h-83l69 335h347l-26 -75h-249l-39 -188h29q105 0 159 -48.5t54 -124.5q0 -104 -75 -168.5t-196 -64.5q-103 0 -166 39z" />
    <glyph glyph-name="six" unicode="6" horiz-adv-x="562" 
d="M264 -10q-93 0 -147.5 58.5t-54.5 177.5q0 188 102.5 313.5t264.5 125.5q48 0 96 -16l-27 -69q-30 11 -71 11q-106 0 -179 -76.5t-96 -191.5h2q25 37 69 59.5t93 22.5q81 0 129 -49.5t48 -134.5q0 -99 -67 -165t-162 -66zM265 64q56 0 95.5 42t39.5 109q0 51 -27.5 83.5
t-79.5 32.5q-57 0 -97 -41.5t-40 -107.5q0 -52 28.5 -85t80.5 -33z" />
    <glyph glyph-name="seven" unicode="7" horiz-adv-x="473" 
d="M63 0q81 320 307 584h-295l-8 75h422v-36q-255 -298 -333 -623h-93z" />
    <glyph glyph-name="eight" unicode="8" horiz-adv-x="564" 
d="M253 -10q-97 0 -155.5 45.5t-58.5 123.5q0 68 42.5 113.5t112.5 68.5v2q-87 51 -87 141q0 78 61.5 129.5t160.5 51.5q91 0 145.5 -43.5t54.5 -113.5q0 -60 -42 -104t-103 -67v-2q113 -44 113 -150q0 -90 -72 -142.5t-172 -52.5zM256 61q63 0 105.5 32t42.5 88
q0 45 -36.5 74t-105.5 49q-59 -19 -94.5 -55t-35.5 -84q0 -52 37 -78t87 -26zM303 370q133 40 133 131q0 45 -31.5 69t-80.5 24q-51 0 -87.5 -28.5t-36.5 -79.5q0 -38 27.5 -69.5t75.5 -46.5z" />
    <glyph glyph-name="nine" unicode="9" horiz-adv-x="570" 
d="M50 15l25 70q42 -21 97 -21q190 0 236 227h-2q-68 -49 -155 -49q-77 0 -127.5 47.5t-50.5 136.5q0 107 64.5 173t159.5 66q96 0 154.5 -63.5t58.5 -182.5q0 -204 -89.5 -316.5t-243.5 -112.5q-74 0 -127 25zM275 315q69 0 141 52q5 28 5 59q0 77 -33 121t-92 44
q-56 0 -93 -46t-37 -114q0 -52 28 -84t81 -32z" />
    <glyph glyph-name="colon" unicode=":" horiz-adv-x="235" 
d="M58 -8q-21 0 -34.5 14.5t-13.5 35.5q0 26 16.5 43.5t41.5 17.5q21 0 34.5 -15t13.5 -36q0 -26 -16.5 -43t-41.5 -17zM126 334q-21 0 -34.5 14.5t-13.5 35.5q0 26 16.5 43t41.5 17q21 0 34.5 -14.5t13.5 -35.5q0 -26 -16.5 -43t-41.5 -17z" />
    <glyph glyph-name="semicolon" unicode=";" horiz-adv-x="235" 
d="M-11 -133l-41 33q45 49 62 97t18 109h87q0 -149 -126 -239zM114 334q-21 0 -34.5 14.5t-13.5 35.5q0 26 16.5 43t41.5 17q21 0 35 -14.5t14 -35.5q0 -26 -17 -43t-42 -17z" />
    <glyph glyph-name="less" unicode="&#x3c;" horiz-adv-x="598" 
d="M69 223v74l421 184v-76l-341 -144v-2l341 -144v-76z" />
    <glyph glyph-name="equal" unicode="=" horiz-adv-x="531" 
d="M26 126v74h473v-74h-473zM26 305v74h473v-74h-473z" />
    <glyph glyph-name="greater" unicode="&#x3e;" horiz-adv-x="598" 
d="M101 39v76l341 144v2l-341 144v76l421 -184v-74z" />
    <glyph glyph-name="question" unicode="?" horiz-adv-x="451" 
d="M138 -8q-21 0 -34.5 14.5t-13.5 35.5q0 26 16.5 43.5t41.5 17.5q21 0 34.5 -15t13.5 -36q0 -26 -16.5 -43t-41.5 -17zM131 181q2 54 25 98.5t54.5 74t62.5 55t52.5 54t21.5 58.5q0 34 -21 51.5t-58 17.5q-67 0 -133 -49l-32 63q84 61 180 61q65 0 109 -35t44 -96
q0 -52 -29 -92q-18 -26 -54 -57.5t-66 -56t-59 -63.5t-40 -84h-57z" />
    <glyph glyph-name="at" unicode="@" horiz-adv-x="771" 
d="M336 -140q-135 0 -221.5 90.5t-86.5 239.5q0 171 105.5 275.5t257.5 104.5q147 0 241 -87t94 -229q0 -109 -47 -167t-121 -58q-40 0 -66 22t-32 62h-2q-15 -32 -52.5 -57t-84.5 -25q-52 0 -89.5 37.5t-37.5 118.5q0 98 58.5 160.5t147.5 62.5q75 0 141 -40l-21 -161
q-5 -32 -5 -52q0 -68 50 -68q43 0 69 43.5t26 117.5q0 110 -70.5 186t-200.5 76q-125 0 -209.5 -86.5t-84.5 -230.5q0 -131 70.5 -204t178.5 -73q74 0 127 24l18 -55q-69 -27 -153 -27zM337 92q41 0 74 37.5t43 123.5l10 79q-27 19 -65 19q-55 0 -92 -45t-37 -117
q0 -97 67 -97z" />
    <glyph glyph-name="A" unicode="A" horiz-adv-x="580" 
d="M-44 0l350 661h70l120 -661h-92l-30 173h-232l-88 -173h-98zM182 246h180l-30 195q-8 54 -13 87h-2q-33 -76 -41 -92z" />
    <glyph glyph-name="B" unicode="B" horiz-adv-x="542" 
d="M10 0l140 659h148q92 0 136.5 -43t44.5 -107q0 -115 -112 -164v-2q41 -10 71 -43.5t30 -84.5q0 -89 -73.5 -152t-210.5 -63h-174zM177 373h82q63 0 97 38.5t34 86.5q0 39 -24.5 63t-76.5 24h-67zM114 73h87q83 0 130 37.5t47 97.5q0 44 -30 68t-82 24h-105z" />
    <glyph glyph-name="C" unicode="C" horiz-adv-x="591" 
d="M321 -10q-126 0 -201 72.5t-75 200.5q0 174 108.5 288t273.5 114q89 0 164 -35l-18 -76q-70 35 -145 35q-128 0 -209 -92.5t-81 -224.5q0 -93 50 -149.5t140 -56.5q82 0 163 41l17 -73q-85 -44 -187 -44z" />
    <glyph glyph-name="D" unicode="D" horiz-adv-x="638" 
d="M10 0l140 659h116q113 0 186 -33q143 -63 143 -238q0 -122 -58.5 -215t-165.5 -138q-85 -35 -201 -35h-160zM114 75h65q93 0 158 30q79 36 122 111.5t43 176.5q0 122 -98 167q-52 24 -141 24h-41z" />
    <glyph glyph-name="E" unicode="E" horiz-adv-x="468" 
d="M10 0l140 659h319l-30 -75h-217l-44 -210h213l-16 -75h-214l-47 -224h243l-16 -75h-331z" />
    <glyph glyph-name="F" unicode="F" horiz-adv-x="451" 
d="M10 0l140 659h319l-29 -75h-218l-44 -210h212l-16 -75h-213l-63 -299h-88z" />
    <glyph glyph-name="G" unicode="G" horiz-adv-x="662" 
d="M325 -10q-126 0 -203 72.5t-77 203.5q0 106 46 196t136 146.5t207 56.5q103 0 190 -40l-18 -76q-75 41 -166 41q-135 0 -218.5 -91t-83.5 -223q0 -105 53.5 -157.5t140.5 -52.5q80 0 126 24l49 224h87l-59 -276q-83 -48 -210 -48z" />
    <glyph glyph-name="H" unicode="H" horiz-adv-x="666" 
d="M10 0l140 659h88l-61 -286h330l61 286h88l-140 -659h-88l63 297h-330l-63 -297h-88z" />
    <glyph glyph-name="I" unicode="I" horiz-adv-x="248" 
d="M10 0l140 659h88l-140 -659h-88z" />
    <glyph glyph-name="J" unicode="J" horiz-adv-x="289" 
d="M-143 -166l27 71q25 -12 63 -12q57 0 82 45q17 33 25 78l137 643h88l-139 -652q-15 -74 -39 -115q-47 -75 -154 -75q-51 0 -90 17z" />
    <glyph glyph-name="K" unicode="K" horiz-adv-x="547" 
d="M10 0l140 659h88l-64 -303h3l287 303h107l-328 -343l220 -316h-106l-196 288h-2l-61 -288h-88z" />
    <glyph glyph-name="L" unicode="L" horiz-adv-x="433" 
d="M10 0l140 659h88l-124 -584h240l-17 -75h-327z" />
    <glyph glyph-name="M" unicode="M" horiz-adv-x="786" 
d="M10 0l140 659h84l102 -280q6 -17 22 -62t22 -63h2q46 67 73 102l228 303h93l-140 -659h-88l73 342q21 101 39 166h-3q-42 -60 -80 -108l-191 -253h-48l-92 248q-31 88 -39 113h-2q-16 -79 -35 -168l-72 -340h-88z" />
    <glyph glyph-name="N" unicode="N" horiz-adv-x="701" 
d="M10 0l140 659h83l217 -425q23 -44 44 -93h2q3 19 10 54.5t9 46.5l88 417h89l-141 -659h-73l-224 439q-36 72 -44 92h-2q-5 -33 -17 -95l-93 -436h-88z" />
    <glyph glyph-name="O" unicode="O" horiz-adv-x="718" 
d="M312 -10q-123 0 -195 72t-72 204q0 105 43.5 195.5t127 147t190.5 56.5q123 0 195 -71.5t72 -203.5q0 -105 -43.5 -195.5t-127 -147.5t-190.5 -57zM318 66q117 0 189 98.5t72 224.5q0 96 -45.5 148t-132.5 52q-79 0 -140.5 -48.5t-92 -121t-30.5 -152.5q0 -95 46 -148
t134 -53z" />
    <glyph glyph-name="P" unicode="P" horiz-adv-x="512" 
d="M10 0l140 659h101q66 0 108 -16q56 -20 87.5 -64t31.5 -105q0 -78 -44.5 -137t-123.5 -82q-56 -17 -125 -17h-37l-50 -238h-88zM164 311h34q51 0 85 14q51 16 78 55t27 92q0 78 -69 103q-28 11 -70 11h-27z" />
    <glyph glyph-name="Q" unicode="Q" horiz-adv-x="718" 
d="M45 266q0 105 43.5 195.5t127 147t190.5 56.5q123 0 195 -71.5t72 -203.5q0 -152 -89 -267t-233 -127q-17 -2 -35 0v-2q6 -3 41 -28t68.5 -39t72.5 -14q44 0 90 14l18 -69q-59 -20 -122 -20q-144 0 -269 139q-9 10 -57.5 51.5t-68.5 74.5q-44 69 -44 163zM318 66
q117 0 189 98.5t72 224.5q0 96 -45.5 148t-132.5 52q-79 0 -140.5 -48.5t-92 -121t-30.5 -152.5q0 -95 46 -148t134 -53z" />
    <glyph glyph-name="R" unicode="R" horiz-adv-x="536" 
d="M10 0l140 659h130q105 0 156.5 -47.5t51.5 -118.5q0 -82 -47.5 -131.5t-130.5 -66.5v-2q15 -25 44 -87l93 -206h-96l-71 167q-38 82 -53 108h-71l-58 -275h-88zM172 348h56q79 0 124.5 35.5t45.5 101.5q0 46 -30 73.5t-94 27.5h-52z" />
    <glyph glyph-name="S" unicode="S" horiz-adv-x="471" 
d="M-4 34l36 70q59 -38 131 -38q56 0 95.5 26.5t39.5 84.5q0 33 -15.5 60t-39.5 44.5t-51 38.5t-51 40.5t-39.5 51.5t-15.5 72q0 80 57 130.5t151 50.5q83 0 149 -33l-16 -76q-62 34 -132 34q-51 0 -84 -25t-33 -69q0 -34 22 -61.5t53 -49t62 -46t53 -63.5t22 -89
q0 -96 -64.5 -146.5t-162.5 -50.5q-94 0 -167 44z" />
    <glyph glyph-name="T" unicode="T" horiz-adv-x="492" 
d="M131 0l124 584h-194l16 75h479l-32 -75h-181l-124 -584h-88z" />
    <glyph glyph-name="U" unicode="U" horiz-adv-x="651" 
d="M276 -10q-104 0 -161.5 51.5t-57.5 140.5q0 31 12 91l82 386h88l-83 -388q-10 -47 -10 -78q0 -63 35.5 -95.5t98.5 -32.5q84 0 129 47q39 40 56 120l91 427h88l-92 -436q-24 -112 -81 -166q-71 -67 -195 -67z" />
    <glyph glyph-name="V" unicode="V" horiz-adv-x="575" 
d="M209 -4l-137 663h95l73 -390q19 -107 23 -137h2q27 63 62 125l212 402h99l-363 -663h-66z" />
    <glyph glyph-name="W" unicode="W" horiz-adv-x="836" 
d="M163 -4l-91 663h96l44 -378q8 -67 15 -151h2q25 67 61 138l137 280l-15 111h88l46 -379q8 -58 16 -150h2q21 63 57 140l180 389h97l-324 -663h-72l-39 290q-12 77 -17 135h-2q-25 -60 -64 -138l-144 -287h-73z" />
    <glyph glyph-name="X" unicode="X" horiz-adv-x="583" 
d="M-43 0l279 338l-150 321h95l117 -254l208 254h106l-275 -333l153 -326h-94l-121 258l-213 -258h-105z" />
    <glyph glyph-name="Y" unicode="Y" horiz-adv-x="514" 
d="M162 0l54 255l-145 404h92l107 -318h2l205 318h99l-272 -407l-54 -252h-88z" />
    <glyph glyph-name="Z" unicode="Z" horiz-adv-x="526" 
d="M-28 0l416 584h-283l-8 75h441l-413 -584h319l-17 -75h-455z" />
    <glyph glyph-name="bracketleft" unicode="[" horiz-adv-x="328" 
d="M-13 -233l214 1005h181l-15 -68h-97l-184 -870h96l-14 -67h-181z" />
    <glyph glyph-name="backslash" unicode="\" horiz-adv-x="429" 
d="M266 -32l-196 728h86l196 -728h-86z" />
    <glyph glyph-name="bracketright" unicode="]" horiz-adv-x="328" 
d="M-93 -233l15 67h97l184 870h-96l14 68h181l-214 -1005h-181z" />
    <glyph glyph-name="asciicircum" unicode="^" horiz-adv-x="566" 
d="M87 287l158 372h76l158 -372h-76l-119 292h-2l-119 -292h-76z" />
    <glyph glyph-name="underscore" unicode="_" horiz-adv-x="438" 
d="M-89 -120l12 54h446l-12 -54h-446z" />
    <glyph glyph-name="grave" unicode="`" 
d="M159 531l-81 147h100l49 -147h-68z" />
    <glyph glyph-name="a" unicode="a" horiz-adv-x="469" 
d="M127 -10q-57 0 -91.5 35t-34.5 90q0 80 56 126q63 52 191 52l66 1q6 22 6 49q0 72 -87 72q-65 0 -140 -36l-12 67q83 39 166 39q68 0 114 -31.5t46 -105.5q0 -35 -17 -114l-10 -42q-17 -77 -17 -122q0 -31 8 -60l-75 -16q-13 40 -14 81q-66 -85 -155 -85zM150 62
q47 0 90.5 38.5t55.5 95.5l7 33h-37q-107 0 -147 -32q-32 -26 -32 -70q0 -65 63 -65z" />
    <glyph glyph-name="b" unicode="b" horiz-adv-x="505" 
d="M4 11l149 697h87l-47 -219q-8 -39 -24 -91h2q27 39 67 63t83 24q60 0 98.5 -43t38.5 -119q0 -145 -91 -239t-230 -94q-77 0 -133 21zM104 71q25 -7 53 -7q91 0 151.5 70.5t60.5 179.5q0 39 -18.5 67.5t-57.5 28.5q-48 0 -91 -46q-48 -51 -68 -145z" />
    <glyph glyph-name="c" unicode="c" horiz-adv-x="438" 
d="M221 -10q-92 0 -146 54t-54 145q0 125 77.5 210.5t196.5 85.5q66 0 119 -24l-16 -73q-50 24 -102 24q-77 0 -131.5 -61t-54.5 -153q0 -63 31 -99t90 -36q60 0 120 35l23 -63q-28 -20 -71 -32.5t-82 -12.5z" />
    <glyph glyph-name="d" unicode="d" horiz-adv-x="500" 
d="M231 -10q-94 0 -152 55.5t-58 152.5q0 129 79.5 208t193.5 79q56 0 98 -15l51 238h87l-147 -686q-73 -32 -152 -32zM238 64q40 0 71 14l67 319q-40 14 -76 14q-80 0 -135 -57.5t-55 -150.5q0 -63 33.5 -101t94.5 -38z" />
    <glyph glyph-name="e" unicode="e" horiz-adv-x="469" 
d="M218 -10q-89 0 -143 54t-54 148q0 125 70.5 209t177.5 84q77 0 118 -42.5t41 -112.5q0 -50 -21 -110l-298 -4q-1 -8 -1 -24q0 -61 32.5 -95.5t85.5 -34.5q59 0 129 36l24 -64q-72 -44 -161 -44zM120 281l214 3q8 27 8 49q0 35 -19 58.5t-62 23.5q-50 0 -89.5 -39
t-51.5 -95z" />
    <glyph glyph-name="f" unicode="f" horiz-adv-x="311" 
d="M-90 -170q91 88 130.5 204.5t74.5 367.5h-74l11 71h73l10 63q11 59 34 95q50 77 144 77q54 0 92 -23l-28 -68q-30 15 -60 15q-76 0 -94 -98l-10 -61h111l-27 -71h-95q-16 -105 -26.5 -164.5t-29.5 -139.5t-41 -130t-57.5 -103t-81.5 -93z" />
    <glyph glyph-name="g" unicode="g" horiz-adv-x="505" 
d="M-21 -201l31 73q57 -33 118 -33q69 0 105.5 37.5t54.5 118.5l17 75h-2q-63 -79 -148 -79q-61 0 -97.5 41t-36.5 120q0 88 31.5 161.5t100.5 122.5t166 49q81 0 154 -27l-101 -473q-22 -108 -77 -165t-170 -57q-78 0 -146 36zM181 64q45 0 93 47t71 156l29 135
q-27 9 -67 9q-89 0 -143 -73t-54 -171q0 -103 71 -103z" />
    <glyph glyph-name="h" unicode="h" horiz-adv-x="501" 
d="M0 0l151 708h87l-52 -239q-8 -44 -24 -90h2q30 47 76.5 76.5t97.5 29.5q50 0 79.5 -29t29.5 -87q0 -36 -12 -92l-59 -277h-87l59 274q10 50 10 73q0 60 -53 60q-29 0 -62.5 -19.5t-61.5 -57.5q-34 -48 -52 -129l-43 -201h-86z" />
    <glyph glyph-name="i" unicode="i" horiz-adv-x="223" 
d="M0 0l101 473h87l-102 -473h-86zM169 571q-24 0 -38 14t-14 35q0 28 19 45.5t44 17.5q24 0 38 -14t14 -35q0 -27 -19 -45t-44 -18z" />
    <glyph glyph-name="j" unicode="j" horiz-adv-x="237" 
d="M-160 -223l26 72q21 -9 47 -9q38 0 57.5 23t30.5 75l114 535h87l-123 -572q-29 -138 -163 -138q-43 0 -76 14zM183 571q-23 0 -37 13.5t-14 35.5q0 28 19 45.5t44 17.5q23 0 37 -13.5t14 -35.5q0 -28 -18.5 -45.5t-44.5 -17.5z" />
    <glyph glyph-name="k" unicode="k" horiz-adv-x="445" 
d="M0 0l151 708h87l-88 -411h2l198 176h108l-240 -211l166 -262h-100l-145 235h-2l-51 -235h-86z" />
    <glyph glyph-name="l" unicode="l" horiz-adv-x="264" 
d="M115 -6q-42 0 -66.5 21.5t-24.5 62.5q0 16 6 49l124 581h87l-124 -580q-4 -17 -4 -31q0 -26 29 -26q17 0 38 7v-72q-32 -12 -65 -12z" />
    <glyph glyph-name="m" unicode="m" horiz-adv-x="770" 
d="M0 0l101 473h70l-12 -94h2q32 47 76.5 76.5t93.5 29.5t76.5 -27.5t26.5 -83.5h2q32 48 78.5 79.5t97.5 31.5q48 0 77 -27.5t29 -80.5q1 -28 -12 -96l-60 -281h-86l60 284q9 40 9 66q0 57 -51 57q-58 0 -114 -73q-37 -49 -54 -131l-44 -203h-86l60 284q9 40 9 66
q0 57 -51 57q-58 0 -114 -74q-36 -47 -54 -130l-44 -203h-86z" />
    <glyph glyph-name="n" unicode="n" horiz-adv-x="501" 
d="M0 0l101 473h70l-12 -94h2q31 46 78.5 76t98.5 30q50 0 79.5 -29t29.5 -87q0 -36 -12 -92l-59 -277h-87l59 274q10 50 10 73q0 60 -53 60q-28 0 -61 -18.5t-60 -54.5q-36 -47 -55 -133l-43 -201h-86z" />
    <glyph glyph-name="o" unicode="o" horiz-adv-x="509" 
d="M206 -10q-89 0 -137 52t-48 134q0 134 75 221.5t182 87.5q89 0 136.5 -52t47.5 -134q0 -134 -74.5 -221.5t-181.5 -87.5zM209 63q72 0 118 69t46 162q0 118 -98 118q-72 0 -118.5 -69t-46.5 -162q0 -118 99 -118z" />
    <glyph glyph-name="p" unicode="p" horiz-adv-x="506" 
d="M-51 -237l150 700q73 22 141 22q107 0 163 -55.5t56 -143.5q0 -134 -81.5 -215t-194.5 -81q-49 0 -96 14l-51 -241h-87zM104 77q30 -13 73 -13q86 0 139.5 62t53.5 153q0 65 -35.5 98.5t-98.5 33.5q-31 0 -63 -8z" />
    <glyph glyph-name="q" unicode="q" horiz-adv-x="507" 
d="M240 -237l45 215q18 77 22 92h-2q-66 -80 -150 -80q-60 0 -97 41t-37 121q0 89 32 162.5t102.5 122t168.5 48.5q74 0 151 -27l-149 -695h-86zM182 64q45 0 93.5 47t71.5 156l29 135q-32 9 -69 9q-89 0 -143 -73t-54 -172q0 -102 72 -102z" />
    <glyph glyph-name="r" unicode="r" horiz-adv-x="328" 
d="M0 0l101 473h70l-12 -94h2q51 106 134 106q32 0 58 -17l-37 -76q-19 11 -41 11q-45 0 -85 -52.5t-63 -157.5l-40 -193h-87z" />
    <glyph glyph-name="s" unicode="s" horiz-adv-x="360" 
d="M-26 28l29 66q53 -32 111 -32q38 0 64.5 17t26.5 49q0 23 -16 42t-38.5 34.5t-45 33t-38.5 46t-16 64.5q0 59 41.5 98t119.5 39q65 0 119 -21l-14 -71q-55 21 -101 21q-34 0 -55.5 -15.5t-21.5 -46.5q0 -23 16 -42t38.5 -35t45 -33.5t38.5 -46t16 -65.5
q0 -65 -49.5 -102.5t-125.5 -37.5q-82 0 -144 38z" />
    <glyph glyph-name="t" unicode="t" horiz-adv-x="341" 
d="M157 -10q-55 0 -82 25.5t-27 69.5q0 26 7 58l55 259h-78l15 71h79l23 107l92 26l-29 -133h129l-28 -71h-116l-57 -268q-4 -16 -4 -31q0 -40 42 -40q35 0 80 25l22 -64q-59 -34 -123 -34z" />
    <glyph glyph-name="u" unicode="u" horiz-adv-x="502" 
d="M144 -10q-51 0 -83 29.5t-32 89.5q0 33 12 93l57 271h87l-59 -279q-9 -40 -9 -66q0 -62 54 -62q56 0 100 48.5t60 119.5l51 239h86l-60 -281q-15 -82 -15 -120q0 -29 7 -62l-74 -16q-15 46 -12 92h-2q-30 -42 -75.5 -69t-92.5 -27z" />
    <glyph glyph-name="v" unicode="v" horiz-adv-x="441" 
d="M133 -3l-95 476h85l39 -228q16 -91 21 -133h2q36 74 63 128l120 233h92l-260 -476h-67z" />
    <glyph glyph-name="w" unicode="w" horiz-adv-x="674" 
d="M111 -3l-72 476h82l32 -227q10 -68 15 -129h2q22 53 50 112l118 244h62l28 -222q6 -48 14 -134h2q7 19 49 114l110 242h91l-236 -476h-68l-28 229q-10 80 -14 119h-2q-19 -45 -57 -122l-112 -226h-66z" />
    <glyph glyph-name="x" unicode="x" horiz-adv-x="448" 
d="M-50 0l211 242l-125 231h89l93 -173l147 173h95l-205 -237l129 -236h-91l-95 180l-154 -180h-94z" />
    <glyph glyph-name="y" unicode="y" horiz-adv-x="452" 
d="M-125 -219l31 68q27 -13 58 -13q48 0 90.5 35.5t87.5 127.5l-107 474h87l50 -241q6 -29 27 -135h2q23 55 56 123l123 253h91l-249 -489q-62 -123 -121.5 -172t-143.5 -49q-51 0 -82 18z" />
    <glyph glyph-name="z" unicode="z" horiz-adv-x="387" 
d="M-35 0l272 402h-187l-9 71h339l-274 -403h214l-14 -70h-341z" />
    <glyph glyph-name="braceleft" unicode="{" horiz-adv-x="346" 
d="M182 -225q-74 11 -108 42t-34 85q0 21 8 61l41 196q3 17 3 30q0 48 -54 51l14 66q45 2 65 27q12 14 17 42l47 227q14 68 45 103q49 57 157 64v-77q-65 -9 -93 -43q-18 -20 -27 -69l-41 -198q-10 -46 -25 -70q-21 -30 -69 -42v-2q51 -10 51 -67q0 -21 -7 -58l-36 -172
q-6 -24 -6 -46q0 -32 18 -49.5t59 -24.5z" />
    <glyph glyph-name="bar" unicode="|" horiz-adv-x="289" 
d="M103 -237v1017h84v-1017h-84z" />
    <glyph glyph-name="braceright" unicode="}" horiz-adv-x="346" 
d="M-63 -225v78q65 9 93 43q17 19 28 69l40 198q10 48 26 69q21 31 68 43v2q-50 10 -50 69q0 24 6 56l37 172q5 27 5 46q0 32 -18 49t-58 24l25 76q74 -10 107.5 -41.5t33.5 -85.5q0 -20 -8 -60l-41 -197q-3 -15 -3 -29q0 -48 54 -51l-14 -66q-44 -2 -65 -28
q-12 -15 -17 -41l-47 -227q-14 -68 -45 -103q-49 -56 -157 -65z" />
    <glyph glyph-name="asciitilde" unicode="~" horiz-adv-x="531" 
d="M66 207l-46 54q67 67 136 67q37 0 109 -30t101 -30q24 0 42.5 9.5t45.5 33.5l45 -54q-65 -66 -136 -66q-36 0 -108.5 29.5t-100.5 29.5q-25 0 -44 -9.5t-44 -33.5z" />
    <glyph glyph-name="exclamdown" unicode="&#xa1;" horiz-adv-x="279" 
d="M-11 -182l11 52q57 265 79 336q12 40 31 89h46q-4 -88 -15.5 -157.5t-52.5 -267.5l-11 -52h-88zM152 373q-21 0 -35 15t-14 36q0 25 17 42.5t42 17.5q21 0 34.5 -15t13.5 -36q0 -26 -16.5 -43t-41.5 -17z" />
    <glyph glyph-name="cent" unicode="&#xa2;" horiz-adv-x="524" 
d="M183 0l24 111q-56 17 -88.5 63.5t-32.5 115.5q0 108 60.5 182t151.5 88l22 99h69l-20 -97q52 -3 88 -21l-15 -69q-47 22 -97 22q-75 0 -123.5 -57t-48.5 -142q0 -57 29.5 -90t84.5 -33q56 0 111 32l18 -64q-62 -38 -141 -38l-22 -102h-70z" />
    <glyph glyph-name="sterling" unicode="&#xa3;" horiz-adv-x="529" 
d="M27 0l9 60q26 10 46.5 32.5t32.5 46t22.5 58.5t14 54.5t8.5 48.5h-75l11 73h74l12 79q9 69 34 112q56 101 181 101q59 0 112 -24l-30 -69q-36 18 -77 18q-77 0 -112 -70q-15 -29 -21 -77l-10 -70h178l-24 -73h-164q-29 -184 -99 -231v-2q50 6 108 6h173l-11 -73h-393z
" />
    <glyph glyph-name="currency" unicode="&#xa4;" horiz-adv-x="524" 
d="M69 78l-54 54l66 65q-43 61 -43 131t42 130l-66 65l54 54l66 -66q57 43 130 43t132 -43l64 65l53 -54l-64 -64q41 -58 41 -130t-43 -131l66 -64l-54 -55l-65 66q-58 -42 -130 -42q-71 0 -129 42zM264 169q65 0 109.5 46.5t44.5 112.5t-44.5 112.5t-109.5 46.5
q-64 0 -109 -46.5t-45 -112.5t45 -112.5t109 -46.5z" />
    <glyph glyph-name="yen" unicode="&#xa5;" horiz-adv-x="529" 
d="M152 0l25 120h-156l12 61h158l17 81h-161l13 61h131l-100 336h90l82 -309h2l189 309h96l-218 -336h132l-13 -61h-158l-17 -81h161l-13 -61h-161l-26 -120h-85z" />
    <glyph glyph-name="brokenbar" unicode="&#xa6;" horiz-adv-x="289" 
d="M103 -237v358h84v-358h-84zM103 423v357h84v-357h-84z" />
    <glyph glyph-name="section" unicode="&#xa7;" horiz-adv-x="546" 
d="M183 -165q-100 0 -171 47l37 68q64 -42 135 -42q56 0 94.5 25t38.5 77q0 36 -26.5 63.5t-64.5 46.5t-75.5 41t-64 59t-26.5 88q0 48 28 88.5t74 64.5q-36 38 -36 92q0 79 58 124.5t146 45.5q83 0 147 -33l-16 -74q-60 34 -129 34q-50 0 -83.5 -24t-33.5 -67
q0 -35 27 -61.5t65.5 -45t76.5 -40t65 -60.5t27 -93q0 -98 -99 -156q29 -35 29 -89q0 -88 -65 -133.5t-158 -45.5zM143 321q0 -40 29 -68t85.5 -58.5t80.5 -49.5q55 42 55 101q0 32 -19.5 58t-43.5 40.5t-64.5 37t-61.5 37.5q-61 -38 -61 -98z" />
    <glyph glyph-name="dieresis" unicode="&#xa8;" 
d="M95 555q-19 0 -30.5 11.5t-11.5 30.5q0 25 15 41t37 16q19 0 30.5 -11.5t11.5 -30.5q0 -25 -15 -41t-37 -16zM275 555q-19 0 -30.5 11.5t-11.5 30.5q0 25 15 41t37 16q19 0 31 -11.5t12 -30.5q0 -24 -15.5 -40.5t-37.5 -16.5z" />
    <glyph glyph-name="copyright" unicode="&#xa9;" horiz-adv-x="777" 
d="M386 -10q-144 0 -238 96.5t-94 240.5t94 240.5t238 96.5q143 0 237 -97t94 -240t-94 -240t-237 -97zM386 39q118 0 196 81.5t78 206.5q0 124 -77.5 205.5t-196.5 81.5t-197 -81.5t-78 -205.5t78 -206t197 -82zM392 127q-83 0 -132 55t-49 140q0 87 51.5 146t137.5 59
q53 0 95 -23v-55q-43 25 -94 25q-59 0 -94.5 -41t-35.5 -106q0 -70 33.5 -109.5t91.5 -39.5q49 0 92 26l19 -45q-54 -32 -115 -32z" />
    <glyph glyph-name="ordfeminine" unicode="&#xaa;" horiz-adv-x="330" 
d="M-27 137l12 58h296l-13 -58h-295zM117 263q-40 0 -64.5 25t-24.5 66q0 65 48 95.5t126 30.5h42q4 18 4 28q0 44 -57 44q-42 0 -99 -24l-12 55q58 28 121 28q53 0 84.5 -24.5t31.5 -74.5q0 -28 -11 -76l-8 -31q-12 -45 -12 -83q0 -22 6 -44l-59 -13q-8 23 -9 49h-2
q-47 -51 -105 -51zM136 322q29 0 57.5 25.5t36.5 62.5l4 16h-28q-109 0 -109 -63q0 -41 39 -41z" />
    <glyph glyph-name="guillemotleft" unicode="&#xab;" horiz-adv-x="538" 
d="M268 401l-154 -165l101 -165l-62 -38l-134 210l197 206zM488 401l-155 -165l101 -165l-61 -38l-135 210l197 206z" />
    <glyph glyph-name="logicalnot" unicode="&#xac;" horiz-adv-x="531" 
d="M16 238v74h473v-289h-83v215h-390z" />
    <glyph glyph-name="registered" unicode="&#xae;" horiz-adv-x="578" 
d="M313 180q-104 0 -171 69t-67 173t67.5 173.5t170.5 69.5q102 0 170.5 -70t68.5 -173t-68.5 -172.5t-170.5 -69.5zM313 220q85 0 139.5 58t54.5 144t-54.5 144t-139.5 58t-139.5 -58t-54.5 -144t54.5 -144t139.5 -58zM276 297h-41v260h69q27 0 46 -7q46 -15 46 -64
q0 -56 -62 -69v-1q18 -13 78 -119h-48q-53 95 -66 106q-3 2 -6 3h-16v-109zM276 439h18q57 0 57 44q0 27 -21 35q-12 5 -36 5h-18v-84z" />
    <glyph glyph-name="macron" unicode="&#xaf;" 
d="M55 572l14 69h260l-15 -69h-259z" />
    <glyph glyph-name="degree" unicode="&#xb0;" horiz-adv-x="383" 
d="M223 353q-67 0 -110.5 43.5t-43.5 109.5t44 109.5t111 43.5q66 0 110 -43.5t44 -109.5t-44 -109.5t-111 -43.5zM224 412q37 0 62.5 26.5t25.5 67.5q0 40 -25.5 66.5t-62.5 26.5q-38 0 -63.5 -26.5t-25.5 -66.5q0 -41 25.5 -67.5t63.5 -26.5z" />
    <glyph glyph-name="plusminus" unicode="&#xb1;" horiz-adv-x="531" 
d="M20 0v74h473v-74h-473zM215 128v152h-195v74h195v152h82v-152h196v-74h-196v-152h-82z" />
    <glyph glyph-name="twosuperior" unicode="&#xb2;" horiz-adv-x="335" 
d="M53 404q7 47 27 85t45 60t53 42t51 33t38 30t15 37q0 41 -54 41q-45 0 -101 -29l-19 57q68 34 131 34q56 0 87 -26.5t31 -69.5q0 -41 -28 -74t-63 -52t-69.5 -47t-43.5 -58h176l-10 -63h-266z" />
    <glyph glyph-name="threesuperior" unicode="&#xb3;" horiz-adv-x="343" 
d="M61 419l24 56q42 -18 89 -18q42 0 66 16.5t24 46.5q0 51 -85 51h-50l9 56h40q49 1 75 18.5t26 45.5q0 42 -57 42q-42 0 -89 -20l-18 55q59 26 122 26q56 0 87 -25.5t31 -65.5q0 -38 -23.5 -64t-59.5 -37v-2q30 -6 49 -26.5t19 -52.5q0 -57 -44 -90.5t-123 -33.5
q-66 0 -112 22z" />
    <glyph glyph-name="acute" unicode="&#xb4;" 
d="M134 531l76 147h100l-109 -147h-67z" />
    <glyph glyph-name="mu" unicode="&#xb5;" horiz-adv-x="539" 
d="M-50 -237l153 710h86l-58 -274q-9 -37 -9 -64q0 -35 18 -52t46 -17q51 0 94 42.5t59 122.5l53 242h86l-70 -328q-6 -30 -6 -45q0 -28 30 -28q17 0 32 6v-74q-27 -10 -56 -10q-73 0 -77 69q0 17 1 23h-2q-62 -96 -155 -96q-59 0 -82 44h-2q-8 -59 -22 -126l-32 -145h-87z
" />
    <glyph glyph-name="paragraph" unicode="&#xb6;" horiz-adv-x="592" 
d="M142 -160l79 375q-72 2 -115 51t-43 125q0 117 85.5 192.5t219.5 75.5h200l-172 -819h-75l159 756h-104l-159 -756h-75z" />
    <glyph glyph-name="periodcentered" unicode="&#xb7;" horiz-adv-x="235" 
d="M95 198q-21 0 -34.5 14.5t-13.5 35.5q0 26 16.5 43.5t41.5 17.5q21 0 34.5 -15t13.5 -36q0 -26 -16.5 -43t-41.5 -17z" />
    <glyph glyph-name="cedilla" unicode="&#xb8;" 
d="M81 -198l21 45q19 -10 47 -10q60 0 60 41q0 35 -78 32l43 90h66l-25 -53q33 -2 52 -19.5t19 -45.5q0 -45 -36.5 -69.5t-94.5 -24.5q-42 0 -74 14z" />
    <glyph glyph-name="onesuperior" unicode="&#xb9;" horiz-adv-x="307" 
d="M150 404l65 308q-47 -24 -117 -39v63q70 15 144 57h63l-83 -389h-72z" />
    <glyph glyph-name="ordmasculine" unicode="&#xba;" horiz-adv-x="357" 
d="M-16 137l13 58h307l-12 -58h-308zM170 263q-61 0 -95.5 36t-34.5 93q0 94 53 156.5t129 62.5q61 0 95.5 -36.5t34.5 -94.5q0 -93 -53 -155t-129 -62zM173 324q49 0 79 46t30 105q0 75 -63 75q-48 0 -78.5 -46t-30.5 -104q0 -76 63 -76z" />
    <glyph glyph-name="guillemotright" unicode="&#xbb;" horiz-adv-x="538" 
d="M229 81l155 165l-102 165l62 38l134 -210l-196 -206zM10 81l154 165l-101 165l62 38l134 -210l-197 -206z" />
    <glyph glyph-name="onequarter" unicode="&#xbc;" horiz-adv-x="886" 
d="M138 0l491 659h77l-490 -659h-78zM155 270l65 308q-47 -24 -117 -39v63q70 15 144 57h63l-83 -389h-72zM612 0l17 86h-162l-11 50l238 253h72l-53 -247h54l-11 -56h-55l-18 -86h-71zM642 142l8 38q1 6 10.5 45t16.5 65l-139 -149z" />
    <glyph glyph-name="onehalf" unicode="&#xbd;" horiz-adv-x="886" 
d="M107 0l491 659h77l-490 -659h-78zM139 270l65 308q-47 -24 -117 -39v63q70 15 144 57h63l-83 -389h-72zM491 0q7 47 27 85t45 60t53 42t51 33t38 30t15 37q0 41 -54 41q-45 0 -101 -29l-19 57q68 34 131 34q56 0 87 -26.5t31 -69.5q0 -41 -28 -74t-63 -52t-69.5 -47
t-43.5 -58h176l-10 -63h-266z" />
    <glyph glyph-name="threequarters" unicode="&#xbe;" horiz-adv-x="886" 
d="M178 0l491 659h77l-490 -659h-78zM650 0l17 86h-162l-11 50l238 253h72l-53 -247h54l-11 -56h-55l-18 -86h-71zM680 142l8 38q1 6 10.5 45t16.5 65l-139 -149zM58 285l24 56q42 -18 89 -18q42 0 66 16.5t24 46.5q0 51 -85 51h-50l9 56h40q49 1 75 18.5t26 45.5
q0 42 -57 42q-42 0 -89 -20l-18 55q59 26 122 26q56 0 87 -25.5t31 -65.5q0 -38 -23.5 -64t-59.5 -37v-2q30 -6 49 -26.5t19 -52.5q0 -57 -44 -90.5t-123 -33.5q-66 0 -112 22z" />
    <glyph glyph-name="questiondown" unicode="&#xbf;" horiz-adv-x="451" 
d="M149 -188q-65 0 -109 34.5t-44 95.5q0 49 29 92q18 26 54 57.5t66.5 56t59 63.5t39.5 84h57q-2 -46 -18.5 -85t-40.5 -64.5t-51.5 -51t-51 -44.5t-39 -44t-15.5 -51q0 -34 21.5 -51t57.5 -17q65 0 134 48l31 -62q-82 -61 -180 -61zM284 374q-21 0 -34.5 14.5t-13.5 35.5
q0 26 16.5 43t41.5 17q21 0 34.5 -14.5t13.5 -35.5q0 -26 -16.5 -43t-41.5 -17z" />
    <glyph glyph-name="Agrave" unicode="&#xc0;" horiz-adv-x="580" 
d="M-44 0l350 661h70l120 -661h-92l-30 173h-232l-88 -173h-98zM182 246h180l-30 195q-8 54 -13 87h-2q-33 -76 -41 -92zM317 696l-81 147h100l49 -147h-68z" />
    <glyph glyph-name="Aacute" unicode="&#xc1;" horiz-adv-x="580" 
d="M-44 0l350 661h70l120 -661h-92l-30 173h-232l-88 -173h-98zM182 246h180l-30 195q-8 54 -13 87h-2q-33 -76 -41 -92zM304 696l76 147h100l-109 -147h-67z" />
    <glyph glyph-name="Acircumflex" unicode="&#xc2;" horiz-adv-x="580" 
d="M-44 0l350 661h70l120 -661h-92l-30 173h-232l-88 -173h-98zM182 246h180l-30 195q-8 54 -13 87h-2q-33 -76 -41 -92zM206 696l119 147h74l82 -147h-71l-52 94l-77 -94h-75z" />
    <glyph glyph-name="Atilde" unicode="&#xc3;" horiz-adv-x="580" 
d="M-44 0l350 661h70l120 -661h-92l-30 173h-232l-88 -173h-98zM182 246h180l-30 195q-8 54 -13 87h-2q-33 -76 -41 -92zM199 724q4 53 29 79.5t60 26.5q30 0 68 -23.5t53 -23.5q28 0 34 41h62q-4 -53 -28.5 -79.5t-59.5 -26.5q-30 0 -68.5 23.5t-53.5 23.5q-27 0 -33 -41
h-63z" />
    <glyph glyph-name="Adieresis" unicode="&#xc4;" horiz-adv-x="580" 
d="M-44 0l350 661h70l120 -661h-92l-30 173h-232l-88 -173h-98zM182 246h180l-30 195q-8 54 -13 87h-2q-33 -76 -41 -92zM256 704q-19 0 -31 11.5t-12 30.5q0 24 15.5 40t37.5 16q19 0 30.5 -11t11.5 -30q0 -25 -15 -41t-37 -16zM436 704q-19 0 -30.5 11.5t-11.5 30.5
q0 24 15 40t37 16q19 0 30.5 -11t11.5 -30q0 -25 -15 -41t-37 -16z" />
    <glyph glyph-name="Aring" unicode="&#xc5;" horiz-adv-x="580" 
d="M-44 0l346 656q-58 17 -58 77q0 49 33.5 78.5t84.5 29.5q43 0 70 -22.5t27 -61.5t-23 -66t-59 -36l119 -655h-92l-30 173h-232l-88 -173h-98zM182 246h180l-30 195q-8 54 -13 87h-2q-33 -76 -41 -92zM345 694q24 0 38.5 17.5t14.5 43.5q0 19 -10.5 30.5t-29.5 11.5
q-24 0 -38.5 -17.5t-14.5 -43.5q0 -19 11 -30.5t29 -11.5z" />
    <glyph glyph-name="AE" unicode="&#xc6;" horiz-adv-x="780" 
d="M-66 0l470 659h340l-22 -75h-215l-29 -210h212l-11 -75h-211l-30 -224h242l-11 -75h-328l23 173h-207l-122 -173h-101zM210 246h164l42 296h-2q-82 -121 -84 -124z" />
    <glyph glyph-name="Ccedilla" unicode="&#xc7;" horiz-adv-x="591" 
d="M167 -198l21 45q17 -10 47 -10q26 0 42.5 10.5t16.5 30.5q0 35 -78 32l40 86q-97 18 -154 87.5t-57 179.5q0 174 108.5 288t273.5 114q89 0 164 -35l-18 -76q-70 35 -145 35q-128 0 -209 -92.5t-81 -224.5q0 -93 50 -149.5t140 -56.5q82 0 163 41l17 -73
q-82 -42 -188 -44l-20 -43q33 -2 52 -19.5t19 -45.5q0 -45 -36.5 -69.5t-94.5 -24.5q-42 0 -73 14z" />
    <glyph glyph-name="Egrave" unicode="&#xc8;" horiz-adv-x="468" 
d="M10 0l140 659h319l-30 -75h-217l-44 -210h213l-16 -75h-214l-47 -224h243l-16 -75h-331zM290 696l-81 147h100l49 -147h-68z" />
    <glyph glyph-name="Eacute" unicode="&#xc9;" horiz-adv-x="468" 
d="M10 0l140 659h319l-30 -75h-217l-44 -210h213l-16 -75h-214l-47 -224h243l-16 -75h-331zM265 696l76 147h100l-109 -147h-67z" />
    <glyph glyph-name="Ecircumflex" unicode="&#xca;" horiz-adv-x="468" 
d="M10 0l140 659h319l-30 -75h-217l-44 -210h213l-16 -75h-214l-47 -224h243l-16 -75h-331zM173 696l119 147h74l82 -147h-71l-52 94l-77 -94h-75z" />
    <glyph glyph-name="Edieresis" unicode="&#xcb;" horiz-adv-x="468" 
d="M10 0l140 659h319l-30 -75h-217l-44 -210h213l-16 -75h-214l-47 -224h243l-16 -75h-331zM226 704q-19 0 -31 11.5t-12 30.5q0 24 15.5 40t37.5 16q19 0 30.5 -11t11.5 -30q0 -25 -15 -41t-37 -16zM406 704q-19 0 -30.5 11.5t-11.5 30.5q0 24 15 40t37 16q19 0 30.5 -11
t11.5 -30q0 -25 -15 -41t-37 -16z" />
    <glyph glyph-name="Igrave" unicode="&#xcc;" horiz-adv-x="248" 
d="M10 0l140 659h88l-140 -659h-88zM181 696l-81 147h100l49 -147h-68z" />
    <glyph glyph-name="Iacute" unicode="&#xcd;" horiz-adv-x="248" 
d="M10 0l140 659h88l-140 -659h-88zM161 696l76 147h100l-109 -147h-67z" />
    <glyph glyph-name="Icircumflex" unicode="&#xce;" horiz-adv-x="248" 
d="M10 0l140 659h88l-140 -659h-88zM63 696l119 147h74l82 -147h-71l-52 94l-77 -94h-75z" />
    <glyph glyph-name="Idieresis" unicode="&#xcf;" horiz-adv-x="248" 
d="M10 0l140 659h88l-140 -659h-88zM114 704q-19 0 -31 11.5t-12 30.5q0 24 15.5 40t37.5 16q19 0 30.5 -11t11.5 -30q0 -25 -15 -41t-37 -16zM294 704q-19 0 -30.5 11.5t-11.5 30.5q0 24 15 40t37 16q19 0 30.5 -11t11.5 -30q0 -25 -15 -41t-37 -16z" />
    <glyph glyph-name="Eth" unicode="&#xd0;" horiz-adv-x="638" 
d="M10 0l62 295h-78l16 73h78l62 291h116q113 0 186 -33q143 -63 143 -241q0 -117 -59 -211.5t-165 -138.5q-85 -35 -201 -35h-160zM114 75h65q93 0 158 30q79 36 122 111t43 175q0 124 -98 169q-52 24 -141 24h-41l-46 -216h159l-16 -73h-159z" />
    <glyph glyph-name="Ntilde" unicode="&#xd1;" horiz-adv-x="703" 
d="M10 0l140 659h83l217 -425q23 -44 44 -93h2q3 19 10 54.5t9 46.5l88 417h89l-141 -659h-73l-224 439q-36 72 -44 92h-2q-5 -33 -17 -95l-93 -436h-88zM283 724q4 53 29 79.5t60 26.5q30 0 68 -23.5t53 -23.5q28 0 34 41h62q-4 -53 -28.5 -79.5t-59.5 -26.5
q-30 0 -68.5 23.5t-53.5 23.5q-27 0 -33 -41h-63z" />
    <glyph glyph-name="Ograve" unicode="&#xd2;" horiz-adv-x="718" 
d="M312 -10q-123 0 -195 72t-72 204q0 105 43.5 195.5t127 147t190.5 56.5q123 0 195 -71.5t72 -203.5q0 -105 -43.5 -195.5t-127 -147.5t-190.5 -57zM318 66q117 0 189 98.5t72 224.5q0 96 -45.5 148t-132.5 52q-79 0 -140.5 -48.5t-92 -121t-30.5 -152.5q0 -95 46 -148
t134 -53zM399 696l-81 147h100l49 -147h-68z" />
    <glyph glyph-name="Oacute" unicode="&#xd3;" horiz-adv-x="718" 
d="M312 -10q-123 0 -195 72t-72 204q0 105 43.5 195.5t127 147t190.5 56.5q123 0 195 -71.5t72 -203.5q0 -105 -43.5 -195.5t-127 -147.5t-190.5 -57zM318 66q117 0 189 98.5t72 224.5q0 96 -45.5 148t-132.5 52q-79 0 -140.5 -48.5t-92 -121t-30.5 -152.5q0 -95 46 -148
t134 -53zM379 696l76 147h100l-109 -147h-67z" />
    <glyph glyph-name="Ocircumflex" unicode="&#xd4;" horiz-adv-x="718" 
d="M312 -10q-123 0 -195 72t-72 204q0 105 43.5 195.5t127 147t190.5 56.5q123 0 195 -71.5t72 -203.5q0 -105 -43.5 -195.5t-127 -147.5t-190.5 -57zM318 66q117 0 189 98.5t72 224.5q0 96 -45.5 148t-132.5 52q-79 0 -140.5 -48.5t-92 -121t-30.5 -152.5q0 -95 46 -148
t134 -53zM287 696l119 147h74l82 -147h-71l-52 94l-77 -94h-75z" />
    <glyph glyph-name="Otilde" unicode="&#xd5;" horiz-adv-x="718" 
d="M312 -10q-123 0 -195 72t-72 204q0 105 43.5 195.5t127 147t190.5 56.5q123 0 195 -71.5t72 -203.5q0 -105 -43.5 -195.5t-127 -147.5t-190.5 -57zM318 66q117 0 189 98.5t72 224.5q0 96 -45.5 148t-132.5 52q-79 0 -140.5 -48.5t-92 -121t-30.5 -152.5q0 -95 46 -148
t134 -53zM280 724q4 53 29 79.5t60 26.5q30 0 68 -23.5t53 -23.5q28 0 34 41h62q-4 -53 -28.5 -79.5t-59.5 -26.5q-30 0 -68.5 23.5t-53.5 23.5q-27 0 -33 -41h-63z" />
    <glyph glyph-name="Odieresis" unicode="&#xd6;" horiz-adv-x="718" 
d="M312 -10q-123 0 -195 72t-72 204q0 105 43.5 195.5t127 147t190.5 56.5q123 0 195 -71.5t72 -203.5q0 -105 -43.5 -195.5t-127 -147.5t-190.5 -57zM318 66q117 0 189 98.5t72 224.5q0 96 -45.5 148t-132.5 52q-79 0 -140.5 -48.5t-92 -121t-30.5 -152.5q0 -95 46 -148
t134 -53zM337 704q-19 0 -31 11.5t-12 30.5q0 24 15.5 40t37.5 16q19 0 30.5 -11t11.5 -30q0 -25 -15 -41t-37 -16zM517 704q-19 0 -30.5 11.5t-11.5 30.5q0 24 15 40t37 16q19 0 30.5 -11t11.5 -30q0 -25 -15 -41t-37 -16z" />
    <glyph glyph-name="multiply" unicode="&#xd7;" horiz-adv-x="554" 
d="M96 13l-54 55l183 183l-183 183l54 55l183 -183l183 183l54 -55l-182 -183l182 -183l-54 -54l-183 183z" />
    <glyph glyph-name="Oslash" unicode="&#xd8;" horiz-adv-x="718" 
d="M314 -10q-100 0 -165 51l-58 -66l-54 46l59 67q-51 70 -51 181q0 104 42.5 193.5t125.5 146t190 56.5q100 0 164 -49l58 65l54 -45l-59 -67q53 -72 53 -182q0 -162 -99.5 -279.5t-259.5 -117.5zM321 66q114 0 186 95t72 228q0 64 -22 107l-353 -392q44 -38 117 -38z
M138 267q0 -63 21 -106l353 391q-43 37 -114 37q-115 0 -187.5 -94.5t-72.5 -227.5z" />
    <glyph glyph-name="Ugrave" unicode="&#xd9;" horiz-adv-x="651" 
d="M276 -10q-104 0 -161.5 51.5t-57.5 140.5q0 31 12 91l82 386h88l-83 -388q-10 -47 -10 -78q0 -63 35.5 -95.5t98.5 -32.5q84 0 129 47q39 40 56 120l91 427h88l-92 -436q-24 -112 -81 -166q-71 -67 -195 -67zM374 696l-81 147h100l49 -147h-68z" />
    <glyph glyph-name="Uacute" unicode="&#xda;" horiz-adv-x="651" 
d="M276 -10q-104 0 -161.5 51.5t-57.5 140.5q0 31 12 91l82 386h88l-83 -388q-10 -47 -10 -78q0 -63 35.5 -95.5t98.5 -32.5q84 0 129 47q39 40 56 120l91 427h88l-92 -436q-24 -112 -81 -166q-71 -67 -195 -67zM362 696l76 147h100l-109 -147h-67z" />
    <glyph glyph-name="Ucircumflex" unicode="&#xdb;" horiz-adv-x="651" 
d="M276 -10q-104 0 -161.5 51.5t-57.5 140.5q0 31 12 91l82 386h88l-83 -388q-10 -47 -10 -78q0 -63 35.5 -95.5t98.5 -32.5q84 0 129 47q39 40 56 120l91 427h88l-92 -436q-24 -112 -81 -166q-71 -67 -195 -67zM266 696l119 147h74l82 -147h-71l-52 94l-77 -94h-75z" />
    <glyph glyph-name="Udieresis" unicode="&#xdc;" horiz-adv-x="651" 
d="M276 -10q-104 0 -161.5 51.5t-57.5 140.5q0 31 12 91l82 386h88l-83 -388q-10 -47 -10 -78q0 -63 35.5 -95.5t98.5 -32.5q84 0 129 47q39 40 56 120l91 427h88l-92 -436q-24 -112 -81 -166q-71 -67 -195 -67zM319 704q-19 0 -31 11.5t-12 30.5q0 24 15.5 40t37.5 16
q19 0 30.5 -11t11.5 -30q0 -25 -15 -41t-37 -16zM499 704q-19 0 -30.5 11.5t-11.5 30.5q0 24 15 40t37 16q19 0 30.5 -11t11.5 -30q0 -25 -15 -41t-37 -16z" />
    <glyph glyph-name="Yacute" unicode="&#xdd;" horiz-adv-x="514" 
d="M163 0l54 255l-145 404h92l107 -318h2l205 318h99l-272 -407l-54 -252h-88zM285 696l76 147h100l-109 -147h-67z" />
    <glyph glyph-name="Thorn" unicode="&#xde;" horiz-adv-x="510" 
d="M10 0l140 659h88l-23 -111h13q61 0 107 -16q57 -20 88 -64t31 -106q0 -78 -44 -136.5t-124 -82.5q-53 -16 -125 -16h-36l-27 -127h-88zM141 200h33q54 0 86 13q50 16 77 55t27 92q0 79 -68 104q-30 11 -71 11h-26z" />
    <glyph glyph-name="germandbls" unicode="&#xdf;" horiz-adv-x="575" 
d="M-16 -141l140 656q16 72 50 116q60 77 171 77q83 0 135 -43t52 -125q0 -27 -9 -74q-71 -3 -111 -29t-40 -70q0 -24 13 -45.5t31.5 -39t37 -37t31.5 -48t13 -62.5q0 -68 -48.5 -106.5t-123.5 -38.5q-81 0 -141 38l29 66q56 -32 108 -32q37 0 62.5 18.5t25.5 53.5
q0 28 -19.5 55t-43 46.5t-43 52.5t-19.5 72q0 63 42.5 104t116.5 49q2 6 2 25q0 47 -27 70.5t-72 23.5q-111 0 -139 -132l-136 -641h-88z" />
    <glyph glyph-name="agrave" unicode="&#xe0;" horiz-adv-x="469" 
d="M127 -10q-57 0 -91.5 35t-34.5 90q0 80 56 126q63 52 191 52l66 1q6 22 6 49q0 72 -87 72q-65 0 -140 -36l-12 67q83 39 166 39q68 0 114 -31.5t46 -105.5q0 -35 -17 -114l-10 -42q-17 -77 -17 -122q0 -31 8 -60l-75 -16q-13 40 -14 81q-66 -85 -155 -85zM150 62
q47 0 90.5 38.5t55.5 95.5l7 33h-37q-107 0 -147 -32q-32 -26 -32 -70q0 -65 63 -65zM243 531l-81 147h100l49 -147h-68z" />
    <glyph glyph-name="aacute" unicode="&#xe1;" horiz-adv-x="469" 
d="M127 -10q-57 0 -91.5 35t-34.5 90q0 80 56 126q63 52 191 52l66 1q6 22 6 49q0 72 -87 72q-65 0 -140 -36l-12 67q83 39 166 39q68 0 114 -31.5t46 -105.5q0 -35 -17 -114l-10 -42q-17 -77 -17 -122q0 -31 8 -60l-75 -16q-13 40 -14 81q-66 -85 -155 -85zM150 62
q47 0 90.5 38.5t55.5 95.5l7 33h-37q-107 0 -147 -32q-32 -26 -32 -70q0 -65 63 -65zM218 531l76 147h100l-109 -147h-67z" />
    <glyph glyph-name="acircumflex" unicode="&#xe2;" horiz-adv-x="469" 
d="M127 -10q-57 0 -91.5 35t-34.5 90q0 80 56 126q63 52 191 52l66 1q6 22 6 49q0 72 -87 72q-65 0 -140 -36l-12 67q83 39 166 39q68 0 114 -31.5t46 -105.5q0 -35 -17 -114l-10 -42q-17 -77 -17 -122q0 -31 8 -60l-75 -16q-13 40 -14 81q-66 -85 -155 -85zM150 62
q47 0 90.5 38.5t55.5 95.5l7 33h-37q-107 0 -147 -32q-32 -26 -32 -70q0 -65 63 -65zM123 531l119 147h74l82 -147h-71l-52 94l-77 -94h-75z" />
    <glyph glyph-name="atilde" unicode="&#xe3;" horiz-adv-x="469" 
d="M127 -10q-57 0 -91.5 35t-34.5 90q0 80 56 126q63 52 191 52l66 1q6 22 6 49q0 72 -87 72q-65 0 -140 -36l-12 67q83 39 166 39q68 0 114 -31.5t46 -105.5q0 -35 -17 -114l-10 -42q-17 -77 -17 -122q0 -31 8 -60l-75 -16q-13 40 -14 81q-66 -85 -155 -85zM150 62
q47 0 90.5 38.5t55.5 95.5l7 33h-37q-107 0 -147 -32q-32 -26 -32 -70q0 -65 63 -65zM117 552q4 53 29 79.5t60 26.5q30 0 68 -23.5t53 -23.5q28 0 34 41h62q-4 -53 -28.5 -79.5t-59.5 -26.5q-30 0 -68.5 23.5t-53.5 23.5q-26 0 -33 -41h-63z" />
    <glyph glyph-name="adieresis" unicode="&#xe4;" horiz-adv-x="469" 
d="M127 -10q-57 0 -91.5 35t-34.5 90q0 80 56 126q63 52 191 52l66 1q6 22 6 49q0 72 -87 72q-65 0 -140 -36l-12 67q83 39 166 39q68 0 114 -31.5t46 -105.5q0 -35 -17 -114l-10 -42q-17 -77 -17 -122q0 -31 8 -60l-75 -16q-13 40 -14 81q-66 -85 -155 -85zM150 62
q47 0 90.5 38.5t55.5 95.5l7 33h-37q-107 0 -147 -32q-32 -26 -32 -70q0 -65 63 -65zM179 555q-19 0 -30.5 11.5t-11.5 30.5q0 25 15 41t37 16q19 0 30.5 -11.5t11.5 -30.5q0 -25 -15 -41t-37 -16zM359 555q-19 0 -30.5 11.5t-11.5 30.5q0 25 15 41t37 16q19 0 31 -11.5
t12 -30.5q0 -24 -15.5 -40.5t-37.5 -16.5z" />
    <glyph glyph-name="aring" unicode="&#xe5;" horiz-adv-x="469" 
d="M127 -10q-57 0 -91.5 35t-34.5 90q0 80 56 126q63 52 191 52l66 1q6 22 6 49q0 72 -87 72q-65 0 -140 -36l-12 67q83 39 166 39q68 0 114 -31.5t46 -105.5q0 -35 -17 -114l-10 -42q-17 -77 -17 -122q0 -31 8 -60l-75 -16q-13 40 -14 81q-66 -85 -155 -85zM150 62
q47 0 90.5 38.5t55.5 95.5l7 33h-37q-107 0 -147 -32q-32 -26 -32 -70q0 -65 63 -65zM270 523q-44 0 -70.5 22.5t-26.5 61.5q0 48 33.5 77.5t83.5 29.5q44 0 71 -22.5t27 -60.5q0 -49 -34 -78.5t-84 -29.5zM274 567q24 0 38.5 17.5t14.5 43.5q0 19 -11 30.5t-30 11.5
q-23 0 -38 -17.5t-15 -43.5q0 -19 11 -30.5t30 -11.5z" />
    <glyph glyph-name="ae" unicode="&#xe6;" horiz-adv-x="749" 
d="M134 -10q-60 0 -96.5 35.5t-36.5 93.5q0 82 65.5 123.5t182.5 42.5l63 1q7 29 7 55q0 38 -20.5 56t-66.5 18q-64 0 -139 -36l-12 67q83 39 162 39q114 0 140 -80h2q62 80 163 80q77 0 117.5 -42.5t40.5 -112.5q0 -60 -20 -105l-298 -4q-2 -18 -2 -27q0 -62 32.5 -97
t86.5 -35q60 0 128 36l25 -64q-72 -44 -159 -44q-64 0 -108.5 30.5t-60.5 85.5h-2q-33 -56 -84.5 -86t-109.5 -30zM150 62q49 0 92 37t56 101l4 20h-49q-166 -3 -166 -93q0 -65 63 -65zM399 287l214 2q8 21 8 44q0 35 -19.5 58.5t-63.5 23.5q-48 0 -87.5 -37.5t-51.5 -90.5z
" />
    <glyph glyph-name="ccedilla" unicode="&#xe7;" horiz-adv-x="438" 
d="M72 -198l21 45q19 -10 47 -10q26 0 43 10.5t17 30.5q0 36 -78 32l40 87q-65 15 -103 66.5t-38 125.5q0 126 77.5 211t196.5 85q66 0 119 -24l-16 -73q-50 24 -102 24q-77 0 -131.5 -61t-54.5 -153q0 -63 31 -99t90 -36q60 0 120 35l23 -63q-27 -19 -68 -31t-80 -14
l-20 -43q33 -2 52 -19.5t19 -45.5q0 -45 -36.5 -69.5t-94.5 -24.5q-42 0 -74 14z" />
    <glyph glyph-name="egrave" unicode="&#xe8;" horiz-adv-x="469" 
d="M218 -10q-89 0 -143 54t-54 148q0 125 70.5 209t177.5 84q77 0 118 -42.5t41 -112.5q0 -50 -21 -110l-298 -4q-1 -8 -1 -24q0 -61 32.5 -95.5t85.5 -34.5q59 0 129 36l24 -64q-72 -44 -161 -44zM120 281l214 3q8 27 8 49q0 35 -19 58.5t-62 23.5q-50 0 -89.5 -39
t-51.5 -95zM252 531l-81 147h100l49 -147h-68z" />
    <glyph glyph-name="eacute" unicode="&#xe9;" horiz-adv-x="469" 
d="M218 -10q-89 0 -143 54t-54 148q0 125 70.5 209t177.5 84q77 0 118 -42.5t41 -112.5q0 -50 -21 -110l-298 -4q-1 -8 -1 -24q0 -61 32.5 -95.5t85.5 -34.5q59 0 129 36l24 -64q-72 -44 -161 -44zM120 281l214 3q8 27 8 49q0 35 -19 58.5t-62 23.5q-50 0 -89.5 -39
t-51.5 -95zM239 531l76 147h100l-109 -147h-67z" />
    <glyph glyph-name="ecircumflex" unicode="&#xea;" horiz-adv-x="469" 
d="M218 -10q-89 0 -143 54t-54 148q0 125 70.5 209t177.5 84q77 0 118 -42.5t41 -112.5q0 -50 -21 -110l-298 -4q-1 -8 -1 -24q0 -61 32.5 -95.5t85.5 -34.5q59 0 129 36l24 -64q-72 -44 -161 -44zM120 281l214 3q8 27 8 49q0 35 -19 58.5t-62 23.5q-50 0 -89.5 -39
t-51.5 -95zM141 531l119 147h74l82 -147h-71l-52 94l-77 -94h-75z" />
    <glyph glyph-name="edieresis" unicode="&#xeb;" horiz-adv-x="469" 
d="M218 -10q-89 0 -143 54t-54 148q0 125 70.5 209t177.5 84q77 0 118 -42.5t41 -112.5q0 -50 -21 -110l-298 -4q-1 -8 -1 -24q0 -61 32.5 -95.5t85.5 -34.5q59 0 129 36l24 -64q-72 -44 -161 -44zM120 281l214 3q8 27 8 49q0 35 -19 58.5t-62 23.5q-50 0 -89.5 -39
t-51.5 -95zM191 555q-19 0 -30.5 11.5t-11.5 30.5q0 25 15 41t37 16q19 0 30.5 -11.5t11.5 -30.5q0 -25 -15 -41t-37 -16zM371 555q-19 0 -30.5 11.5t-11.5 30.5q0 25 15 41t37 16q19 0 31 -11.5t12 -30.5q0 -24 -15.5 -40.5t-37.5 -16.5z" />
    <glyph glyph-name="igrave" unicode="&#xec;" horiz-adv-x="223" 
d="M135 531l-81 147h100l49 -147h-68zM1 0l101 473h86l-101 -473h-86z" />
    <glyph glyph-name="iacute" unicode="&#xed;" horiz-adv-x="223" 
d="M110 531l76 147h100l-109 -147h-67zM1 0l101 473h86l-101 -473h-86z" />
    <glyph glyph-name="icircumflex" unicode="&#xee;" horiz-adv-x="223" 
d="M1 0l101 473h86l-101 -473h-86zM17 531l119 147h74l82 -147h-71l-52 94l-77 -94h-75z" />
    <glyph glyph-name="idieresis" unicode="&#xef;" horiz-adv-x="223" 
d="M69 555q-19 0 -30.5 11.5t-11.5 30.5q0 25 15 41t37 16q19 0 30.5 -11.5t11.5 -30.5q0 -25 -15 -41t-37 -16zM249 555q-19 0 -30.5 11.5t-11.5 30.5q0 25 15 41t37 16q19 0 31 -11.5t12 -30.5q0 -24 -15.5 -40.5t-37.5 -16.5zM1 0l101 473h86l-101 -473h-86z" />
    <glyph glyph-name="eth" unicode="&#xf0;" horiz-adv-x="514" 
d="M202 -10q-87 0 -134 54.5t-47 138.5q0 129 72.5 213.5t170.5 84.5q85 0 129 -64h2q-10 110 -95 168l-123 -60l-22 44l89 42q-57 23 -133 26l16 71q123 -6 204 -54l110 54l22 -44l-89 -43q93 -86 93 -246q0 -183 -74.5 -284t-190.5 -101zM211 63q70 0 115 65t47 156
q1 60 -26 92t-74 32q-72 0 -117.5 -65t-45.5 -157q0 -123 101 -123z" />
    <glyph glyph-name="ntilde" unicode="&#xf1;" horiz-adv-x="499" 
d="M0 0l101 473h70l-12 -94h2q31 46 78.5 76t98.5 30q50 0 79.5 -29t29.5 -87q0 -36 -12 -92l-59 -277h-87l59 274q10 50 10 73q0 60 -53 60q-28 0 -61 -18.5t-60 -54.5q-36 -47 -55 -133l-43 -201h-86zM148 552q4 53 29 79.5t60 26.5q30 0 68 -23.5t53 -23.5q28 0 34 41h62
q-4 -53 -28.5 -79.5t-59.5 -26.5q-30 0 -68.5 23.5t-53.5 23.5q-26 0 -33 -41h-63z" />
    <glyph glyph-name="ograve" unicode="&#xf2;" horiz-adv-x="509" 
d="M205 -10q-89 0 -137 52t-48 134q0 134 75 221.5t182 87.5q89 0 136.5 -52t47.5 -134q0 -134 -74.5 -221.5t-181.5 -87.5zM208 63q72 0 118 69t46 162q0 118 -98 118q-72 0 -118.5 -69t-46.5 -162q0 -118 99 -118zM268 531l-81 147h100l49 -147h-68z" />
    <glyph glyph-name="oacute" unicode="&#xf3;" horiz-adv-x="509" 
d="M205 -10q-89 0 -137 52t-48 134q0 134 75 221.5t182 87.5q89 0 136.5 -52t47.5 -134q0 -134 -74.5 -221.5t-181.5 -87.5zM208 63q72 0 118 69t46 162q0 118 -98 118q-72 0 -118.5 -69t-46.5 -162q0 -118 99 -118zM253 531l76 147h100l-109 -147h-67z" />
    <glyph glyph-name="ocircumflex" unicode="&#xf4;" horiz-adv-x="509" 
d="M205 -10q-89 0 -137 52t-48 134q0 134 75 221.5t182 87.5q89 0 136.5 -52t47.5 -134q0 -134 -74.5 -221.5t-181.5 -87.5zM208 63q72 0 118 69t46 162q0 118 -98 118q-72 0 -118.5 -69t-46.5 -162q0 -118 99 -118zM163 531l119 147h74l82 -147h-71l-52 94l-77 -94h-75z
" />
    <glyph glyph-name="otilde" unicode="&#xf5;" horiz-adv-x="509" 
d="M205 -10q-89 0 -137 52t-48 134q0 134 75 221.5t182 87.5q89 0 136.5 -52t47.5 -134q0 -134 -74.5 -221.5t-181.5 -87.5zM208 63q72 0 118 69t46 162q0 118 -98 118q-72 0 -118.5 -69t-46.5 -162q0 -118 99 -118zM152 552q4 53 29 79.5t60 26.5q30 0 68 -23.5t53 -23.5
q28 0 34 41h62q-4 -53 -28.5 -79.5t-59.5 -26.5q-30 0 -68.5 23.5t-53.5 23.5q-26 0 -33 -41h-63z" />
    <glyph glyph-name="odieresis" unicode="&#xf6;" horiz-adv-x="509" 
d="M205 -10q-89 0 -137 52t-48 134q0 134 75 221.5t182 87.5q89 0 136.5 -52t47.5 -134q0 -134 -74.5 -221.5t-181.5 -87.5zM208 63q72 0 118 69t46 162q0 118 -98 118q-72 0 -118.5 -69t-46.5 -162q0 -118 99 -118zM212 555q-19 0 -30.5 11.5t-11.5 30.5q0 25 15 41t37 16
q19 0 30.5 -11.5t11.5 -30.5q0 -25 -15 -41t-37 -16zM392 555q-19 0 -30.5 11.5t-11.5 30.5q0 25 15 41t37 16q19 0 31 -11.5t12 -30.5q0 -24 -15.5 -40.5t-37.5 -16.5z" />
    <glyph glyph-name="divide" unicode="&#xf7;" horiz-adv-x="531" 
d="M254 29q-21 0 -35.5 15t-14.5 37t14.5 37t35.5 15t35.5 -15t14.5 -37t-14.5 -37t-35.5 -15zM17 215v74h472v-74h-472zM254 370q-21 0 -35.5 15.5t-14.5 36.5q0 22 14.5 37t35.5 15t35.5 -15t14.5 -37q0 -21 -14.5 -36.5t-35.5 -15.5z" />
    <glyph glyph-name="oslash" unicode="&#xf8;" horiz-adv-x="509" 
d="M56 -23l-40 35l40 47q-35 47 -35 117q0 134 75 221.5t182 87.5q67 0 111 -32l37 45l40 -35l-39 -47q35 -47 35 -117q0 -134 -74.5 -221.5t-181.5 -87.5q-67 0 -113 32zM209 62q72 0 119 69.5t47 162.5q0 30 -8 52l-222 -263q23 -21 64 -21zM109 181q0 -28 6 -52l223 264
q-25 20 -63 20q-72 0 -119 -69.5t-47 -162.5z" />
    <glyph glyph-name="ugrave" unicode="&#xf9;" horiz-adv-x="502" 
d="M144 -10q-51 0 -83 29.5t-32 89.5q0 33 12 93l57 271h87l-59 -279q-9 -40 -9 -66q0 -62 54 -62q56 0 100 48.5t60 119.5l51 239h86l-60 -281q-15 -82 -15 -120q0 -29 7 -62l-74 -16q-15 46 -12 92h-2q-30 -42 -75.5 -69t-92.5 -27zM267 531l-81 147h100l49 -147h-68z" />
    <glyph glyph-name="uacute" unicode="&#xfa;" horiz-adv-x="502" 
d="M144 -10q-51 0 -83 29.5t-32 89.5q0 33 12 93l57 271h87l-59 -279q-9 -40 -9 -66q0 -62 54 -62q56 0 100 48.5t60 119.5l51 239h86l-60 -281q-15 -82 -15 -120q0 -29 7 -62l-74 -16q-15 46 -12 92h-2q-30 -42 -75.5 -69t-92.5 -27zM249 531l76 147h100l-109 -147h-67z
" />
    <glyph glyph-name="ucircumflex" unicode="&#xfb;" horiz-adv-x="502" 
d="M144 -10q-51 0 -83 29.5t-32 89.5q0 33 12 93l57 271h87l-59 -279q-9 -40 -9 -66q0 -62 54 -62q56 0 100 48.5t60 119.5l51 239h86l-60 -281q-15 -82 -15 -120q0 -29 7 -62l-74 -16q-15 46 -12 92h-2q-30 -42 -75.5 -69t-92.5 -27zM155 531l119 147h74l82 -147h-71
l-52 94l-77 -94h-75z" />
    <glyph glyph-name="udieresis" unicode="&#xfc;" horiz-adv-x="502" 
d="M144 -10q-51 0 -83 29.5t-32 89.5q0 33 12 93l57 271h87l-59 -279q-9 -40 -9 -66q0 -62 54 -62q56 0 100 48.5t60 119.5l51 239h86l-60 -281q-15 -82 -15 -120q0 -29 7 -62l-74 -16q-15 46 -12 92h-2q-30 -42 -75.5 -69t-92.5 -27zM206 555q-19 0 -30.5 11.5t-11.5 30.5
q0 25 15 41t37 16q19 0 30.5 -11.5t11.5 -30.5q0 -25 -15 -41t-37 -16zM386 555q-19 0 -30.5 11.5t-11.5 30.5q0 25 15 41t37 16q19 0 31 -11.5t12 -30.5q0 -24 -15.5 -40.5t-37.5 -16.5z" />
    <glyph glyph-name="yacute" unicode="&#xfd;" horiz-adv-x="452" 
d="M-125 -219l31 68q27 -13 58 -13q48 0 90.5 35.5t87.5 127.5l-107 474h87l50 -241q6 -29 27 -135h2q23 55 56 123l123 253h91l-249 -489q-62 -123 -121.5 -172t-143.5 -49q-51 0 -82 18zM217 531l76 147h100l-109 -147h-67z" />
    <glyph glyph-name="thorn" unicode="&#xfe;" horiz-adv-x="506" 
d="M-51 -237l202 945h87l-49 -228q23 5 51 5q108 0 163.5 -56t55.5 -147q0 -136 -82.5 -214t-193.5 -78q-49 0 -96 14l-51 -241h-87zM104 77q30 -13 73 -13q84 0 138.5 59t54.5 152q0 68 -35 102t-99 34q-31 0 -63 -8z" />
    <glyph glyph-name="ydieresis" unicode="&#xff;" horiz-adv-x="452" 
d="M-125 -219l31 68q27 -13 58 -13q48 0 90.5 35.5t87.5 127.5l-107 474h87l50 -241q6 -29 27 -135h2q23 55 56 123l123 253h91l-249 -489q-62 -123 -121.5 -172t-143.5 -49q-51 0 -82 18zM172 555q-19 0 -30.5 11.5t-11.5 30.5q0 25 15 41t37 16q19 0 30.5 -11.5
t11.5 -30.5q0 -25 -15 -41t-37 -16zM352 555q-19 0 -30.5 11.5t-11.5 30.5q0 25 15 41t37 16q19 0 31 -11.5t12 -30.5q0 -24 -15.5 -40.5t-37.5 -16.5z" />
    <glyph glyph-name="Amacron" unicode="&#x100;" horiz-adv-x="580" 
d="M-44 0l350 661h70l120 -661h-92l-30 173h-232l-88 -173h-98zM182 246h180l-30 195q-8 54 -13 87h-2q-33 -76 -41 -92zM214 713l14 69h260l-15 -69h-259z" />
    <glyph glyph-name="amacron" unicode="&#x101;" horiz-adv-x="469" 
d="M127 -10q-57 0 -91.5 35t-34.5 90q0 80 56 126q63 52 191 52l66 1q6 22 6 49q0 72 -87 72q-65 0 -140 -36l-12 67q83 39 166 39q68 0 114 -31.5t46 -105.5q0 -35 -17 -114l-10 -42q-17 -77 -17 -122q0 -31 8 -60l-75 -16q-13 40 -14 81q-66 -85 -155 -85zM150 62
q47 0 90.5 38.5t55.5 95.5l7 33h-37q-107 0 -147 -32q-32 -26 -32 -70q0 -65 63 -65zM139 572l14 69h260l-15 -69h-259z" />
    <glyph glyph-name="Abreve" unicode="&#x102;" horiz-adv-x="580" 
d="M-44 0l350 661h70l120 -661h-92l-30 173h-232l-88 -173h-98zM182 246h180l-30 195q-8 54 -13 87h-2q-33 -76 -41 -92zM347 700q-58 0 -88.5 34.5t-25.5 93.5h62q-2 -69 58 -69q59 0 81 69h64q-13 -60 -53 -94t-98 -34z" />
    <glyph glyph-name="abreve" unicode="&#x103;" horiz-adv-x="469" 
d="M127 -10q-57 0 -91.5 35t-34.5 90q0 80 56 126q63 52 191 52l66 1q6 22 6 49q0 72 -87 72q-65 0 -140 -36l-12 67q83 39 166 39q68 0 114 -31.5t46 -105.5q0 -35 -17 -114l-10 -42q-17 -77 -17 -122q0 -31 8 -60l-75 -16q-13 40 -14 81q-66 -85 -155 -85zM150 62
q47 0 90.5 38.5t55.5 95.5l7 33h-37q-107 0 -147 -32q-32 -26 -32 -70q0 -65 63 -65zM265 543q-58 0 -88 34t-25 93h62q-2 -68 57 -68q60 0 81 68h65q-13 -60 -53.5 -93.5t-98.5 -33.5z" />
    <glyph glyph-name="Aogonek" unicode="&#x104;" horiz-adv-x="580" 
d="M-44 0l350 662h70l120 -662q-56 -20 -98 -54.5t-42 -70.5q0 -32 34 -32q14 0 38 8l6 -53q-31 -11 -69 -11q-43 0 -63.5 19.5t-20.5 51.5q0 90 122 150l-29 165h-232l-88 -173h-98zM182 246h180l-30 195q-8 54 -13 87h-2q-33 -76 -41 -92z" />
    <glyph glyph-name="aogonek" unicode="&#x105;" horiz-adv-x="469" 
d="M127 -10q-57 0 -91.5 35t-34.5 90q0 80 56 126q63 52 191 52l66 1q6 22 6 49q0 72 -87 72q-65 0 -140 -36l-12 67q83 39 166 39q68 0 114 -31.5t46 -105.5q0 -35 -17 -114l-10 -42q-17 -79 -17 -125q0 -33 8 -62q-56 -25 -96.5 -60t-40.5 -70q0 -32 34 -32q16 0 38 8
l7 -53q-33 -11 -69 -11q-43 0 -64 20t-21 51q0 88 132 155q-8 34 -9 62q-66 -85 -155 -85zM150 62q47 0 90.5 38.5t55.5 95.5l7 33h-37q-107 0 -147 -32q-32 -26 -32 -70q0 -65 63 -65z" />
    <glyph glyph-name="Cacute" unicode="&#x106;" horiz-adv-x="591" 
d="M321 -10q-126 0 -201 72.5t-75 200.5q0 174 108.5 288t273.5 114q89 0 164 -35l-18 -76q-70 35 -145 35q-128 0 -209 -92.5t-81 -224.5q0 -93 50 -149.5t140 -56.5q82 0 163 41l17 -73q-85 -44 -187 -44zM350 696l76 147h100l-109 -147h-67z" />
    <glyph glyph-name="cacute" unicode="&#x107;" horiz-adv-x="438" 
d="M221 -10q-92 0 -146 54t-54 145q0 125 77.5 210.5t196.5 85.5q66 0 119 -24l-16 -73q-50 24 -102 24q-77 0 -131.5 -61t-54.5 -153q0 -63 31 -99t90 -36q60 0 120 35l23 -63q-28 -20 -71 -32.5t-82 -12.5zM238 531l76 147h100l-109 -147h-67z" />
    <glyph glyph-name="Ccircumflex" unicode="&#x108;" horiz-adv-x="591" 
d="M321 -10q-126 0 -201 72.5t-75 200.5q0 174 108.5 288t273.5 114q89 0 164 -35l-18 -76q-70 35 -145 35q-128 0 -209 -92.5t-81 -224.5q0 -93 50 -149.5t140 -56.5q82 0 163 41l17 -73q-85 -44 -187 -44zM262 696l119 147h74l82 -147h-71l-52 94l-77 -94h-75z" />
    <glyph glyph-name="ccircumflex" unicode="&#x109;" horiz-adv-x="438" 
d="M221 -10q-92 0 -146 54t-54 145q0 125 77.5 210.5t196.5 85.5q66 0 119 -24l-16 -73q-50 24 -102 24q-77 0 -131.5 -61t-54.5 -153q0 -63 31 -99t90 -36q60 0 120 35l23 -63q-28 -20 -71 -32.5t-82 -12.5zM144 531l119 147h74l82 -147h-71l-52 94l-77 -94h-75z" />
    <glyph glyph-name="Cdotaccent" unicode="&#x10a;" horiz-adv-x="591" 
d="M321 -10q-126 0 -201 72.5t-75 200.5q0 174 108.5 288t273.5 114q89 0 164 -35l-18 -76q-70 35 -145 35q-128 0 -209 -92.5t-81 -224.5q0 -93 50 -149.5t140 -56.5q82 0 163 41l17 -73q-85 -44 -187 -44zM401 714q-23 0 -37 14t-14 35q0 28 19 45.5t44 17.5
q24 0 37.5 -13.5t13.5 -34.5q0 -28 -18.5 -46t-44.5 -18z" />
    <glyph glyph-name="cdotaccent" unicode="&#x10b;" horiz-adv-x="438" 
d="M221 -10q-92 0 -146 54t-54 145q0 125 77.5 210.5t196.5 85.5q66 0 119 -24l-16 -73q-50 24 -102 24q-77 0 -131.5 -61t-54.5 -153q0 -63 31 -99t90 -36q60 0 120 35l23 -63q-28 -20 -71 -32.5t-82 -12.5zM292 571q-24 0 -38 14t-14 35q0 28 19 45.5t44 17.5q24 0 38 -14
t14 -35q0 -27 -19 -45t-44 -18z" />
    <glyph glyph-name="Ccaron" unicode="&#x10c;" horiz-adv-x="591" 
d="M321 -10q-126 0 -201 72.5t-75 200.5q0 174 108.5 288t273.5 114q89 0 164 -35l-18 -76q-70 35 -145 35q-128 0 -209 -92.5t-81 -224.5q0 -93 50 -149.5t140 -56.5q82 0 163 41l17 -73q-85 -44 -187 -44zM363 697l-81 147h71l52 -95l77 95h75l-119 -147h-75z" />
    <glyph glyph-name="ccaron" unicode="&#x10d;" horiz-adv-x="438" 
d="M221 -10q-92 0 -146 54t-54 145q0 125 77.5 210.5t196.5 85.5q66 0 119 -24l-16 -73q-50 24 -102 24q-77 0 -131.5 -61t-54.5 -153q0 -63 31 -99t90 -36q60 0 120 35l23 -63q-28 -20 -71 -32.5t-82 -12.5zM245 532l-81 147h71l52 -95l77 95h75l-119 -147h-75z" />
    <glyph glyph-name="Dcaron" unicode="&#x10e;" horiz-adv-x="638" 
d="M10 0l140 659h116q113 0 186 -33q143 -63 143 -238q0 -122 -58.5 -215t-165.5 -138q-85 -35 -201 -35h-160zM114 75h65q93 0 158 30q79 36 122 111.5t43 176.5q0 122 -98 167q-52 24 -141 24h-41zM306 697l-81 147h71l52 -95l77 95h75l-119 -147h-75z" />
    <glyph glyph-name="dcaron" unicode="&#x10f;" horiz-adv-x="500" 
d="M231 -10q-94 0 -152 55.5t-58 152.5q0 129 79.5 208t193.5 79q56 0 98 -15l51 238h87l-147 -686q-73 -32 -152 -32zM238 64q40 0 71 14l67 319q-40 14 -76 14q-80 0 -135 -57.5t-55 -150.5q0 -63 33.5 -101t94.5 -38zM545 513l61 195h88l-82 -195h-67z" />
    <glyph glyph-name="Dcroat" unicode="&#x110;" horiz-adv-x="638" 
d="M10 0l62 295h-78l16 73h78l62 291h116q113 0 186 -33q143 -63 143 -241q0 -117 -59 -211.5t-165 -138.5q-85 -35 -201 -35h-160zM114 75h65q93 0 158 30q79 36 122 111t43 175q0 124 -98 169q-52 24 -141 24h-41l-46 -216h159l-16 -73h-159z" />
    <glyph glyph-name="dcroat" unicode="&#x111;" horiz-adv-x="500" 
d="M231 -10q-94 0 -152 55.5t-58 152.5q0 129 79.5 208t193.5 79q56 0 98 -15l19 90h-137l15 69h137l17 79h87l-17 -79h60l-15 -69h-60l-115 -538q-73 -32 -152 -32zM238 64q40 0 71 14l67 319q-40 14 -76 14q-80 0 -135 -57.5t-55 -150.5q0 -63 33.5 -101t94.5 -38z" />
    <glyph glyph-name="Emacron" unicode="&#x112;" horiz-adv-x="468" 
d="M10 0l140 659h319l-30 -75h-217l-44 -210h213l-16 -75h-214l-47 -224h243l-16 -75h-331zM185 713l14 69h260l-15 -69h-259z" />
    <glyph glyph-name="emacron" unicode="&#x113;" horiz-adv-x="469" 
d="M218 -10q-89 0 -143 54t-54 148q0 125 70.5 209t177.5 84q77 0 118 -42.5t41 -112.5q0 -50 -21 -110l-298 -4q-1 -8 -1 -24q0 -61 32.5 -95.5t85.5 -34.5q59 0 129 36l24 -64q-72 -44 -161 -44zM120 281l214 3q8 27 8 49q0 35 -19 58.5t-62 23.5q-50 0 -89.5 -39
t-51.5 -95zM157 572l14 69h260l-15 -69h-259z" />
    <glyph glyph-name="Ebreve" unicode="&#x114;" horiz-adv-x="468" 
d="M10 0l140 659h319l-30 -75h-217l-44 -210h213l-16 -75h-214l-47 -224h243l-16 -75h-331zM314 700q-58 0 -88.5 34.5t-25.5 93.5h62q-2 -69 58 -69q59 0 81 69h64q-13 -60 -53 -94t-98 -34z" />
    <glyph glyph-name="ebreve" unicode="&#x115;" horiz-adv-x="469" 
d="M218 -10q-89 0 -143 54t-54 148q0 125 70.5 209t177.5 84q77 0 118 -42.5t41 -112.5q0 -50 -21 -110l-298 -4q-1 -8 -1 -24q0 -61 32.5 -95.5t85.5 -34.5q59 0 129 36l24 -64q-72 -44 -161 -44zM120 281l214 3q8 27 8 49q0 35 -19 58.5t-62 23.5q-50 0 -89.5 -39
t-51.5 -95zM278 543q-58 0 -88 34t-25 93h62q-2 -68 57 -68q60 0 81 68h65q-13 -60 -53.5 -93.5t-98.5 -33.5z" />
    <glyph glyph-name="Edotaccent" unicode="&#x116;" horiz-adv-x="468" 
d="M10 0l140 659h319l-30 -75h-217l-44 -210h213l-16 -75h-214l-47 -224h243l-16 -75h-331zM316 714q-24 0 -37.5 14t-13.5 35q0 28 19 45.5t44 17.5q24 0 37.5 -13.5t13.5 -34.5q0 -28 -18.5 -46t-44.5 -18z" />
    <glyph glyph-name="edotaccent" unicode="&#x117;" horiz-adv-x="469" 
d="M218 -10q-89 0 -143 54t-54 148q0 125 70.5 209t177.5 84q77 0 118 -42.5t41 -112.5q0 -50 -21 -110l-298 -4q-1 -8 -1 -24q0 -61 32.5 -95.5t85.5 -34.5q59 0 129 36l24 -64q-72 -44 -161 -44zM120 281l214 3q8 27 8 49q0 35 -19 58.5t-62 23.5q-50 0 -89.5 -39
t-51.5 -95zM287 571q-24 0 -38 14t-14 35q0 28 19 45.5t44 17.5q24 0 38 -14t14 -35q0 -27 -19 -45t-44 -18z" />
    <glyph glyph-name="Eogonek" unicode="&#x118;" horiz-adv-x="468" 
d="M10 0l140 659h319l-30 -75h-217l-44 -210h213l-16 -75h-214l-47 -224h243l-16 -75h-17q-136 -63 -136 -125q0 -32 34 -32q15 0 39 8l6 -53q-38 -11 -69 -11q-43 0 -64 20t-21 51q0 80 110 142h-213z" />
    <glyph glyph-name="eogonek" unicode="&#x119;" horiz-adv-x="469" 
d="M226 -213q-43 0 -63.5 19.5t-20.5 51.5q0 70 86 132v2q-94 -4 -150.5 50t-56.5 149q0 126 70.5 210t177.5 84q77 0 118 -42.5t41 -112.5q0 -50 -21 -110l-298 -4q-1 -6 -1 -25q0 -61 32.5 -95t85.5 -34q59 0 129 36l24 -63q-61 -31 -111.5 -77t-50.5 -83q0 -32 34 -32
q14 0 38 8l6 -53q-31 -11 -69 -11zM120 281l214 3q8 27 8 49q0 35 -19 58.5t-62 23.5q-50 0 -89.5 -39t-51.5 -95z" />
    <glyph glyph-name="Ecaron" unicode="&#x11a;" horiz-adv-x="472" 
d="M10 0l140 659h319l-30 -75h-217l-44 -210h213l-16 -75h-214l-47 -224h243l-16 -75h-331zM274 697l-81 147h71l52 -95l77 95h75l-119 -147h-75z" />
    <glyph glyph-name="ecaron" unicode="&#x11b;" horiz-adv-x="469" 
d="M218 -10q-89 0 -143 54t-54 148q0 125 70.5 209t177.5 84q77 0 118 -42.5t41 -112.5q0 -50 -21 -110l-298 -4q-1 -8 -1 -24q0 -61 32.5 -95.5t85.5 -34.5q59 0 129 36l24 -64q-72 -44 -161 -44zM120 281l214 3q8 27 8 49q0 35 -19 58.5t-62 23.5q-50 0 -89.5 -39
t-51.5 -95zM242 532l-81 147h71l52 -95l77 95h75l-119 -147h-75z" />
    <glyph glyph-name="Gcircumflex" unicode="&#x11c;" horiz-adv-x="662" 
d="M325 -10q-126 0 -203 72.5t-77 203.5q0 106 46 196t136 146.5t207 56.5q103 0 190 -40l-18 -76q-75 41 -166 41q-135 0 -218.5 -91t-83.5 -223q0 -105 53.5 -157.5t140.5 -52.5q80 0 126 24l49 224h87l-59 -276q-83 -48 -210 -48zM278 696l119 147h74l82 -147h-71l-52 94
l-77 -94h-75z" />
    <glyph glyph-name="gcircumflex" unicode="&#x11d;" horiz-adv-x="491" 
d="M-21 -201l31 73q57 -33 118 -33q69 0 105.5 37.5t54.5 118.5l17 75h-2q-63 -79 -148 -79q-61 0 -97.5 41t-36.5 120q0 88 31.5 161.5t100.5 122.5t166 49q81 0 154 -27l-101 -473q-22 -108 -77 -165t-170 -57q-78 0 -146 36zM181 64q45 0 93 47t71 156l29 135
q-27 9 -67 9q-89 0 -143 -73t-54 -171q0 -103 71 -103zM175 531l119 147h74l82 -147h-71l-52 94l-77 -94h-75z" />
    <glyph glyph-name="Gbreve" unicode="&#x11e;" horiz-adv-x="662" 
d="M325 -10q-126 0 -203 72.5t-77 203.5q0 106 46 196t136 146.5t207 56.5q103 0 190 -40l-18 -76q-75 41 -166 41q-135 0 -218.5 -91t-83.5 -223q0 -105 53.5 -157.5t140.5 -52.5q80 0 126 24l49 224h87l-59 -276q-83 -48 -210 -48zM415 700q-58 0 -88.5 34.5t-25.5 93.5
h62q-2 -69 58 -69q59 0 81 69h64q-13 -60 -53 -94t-98 -34z" />
    <glyph glyph-name="gbreve" unicode="&#x11f;" horiz-adv-x="491" 
d="M-21 -201l31 73q57 -33 118 -33q69 0 105.5 37.5t54.5 118.5l17 75h-2q-63 -79 -148 -79q-61 0 -97.5 41t-36.5 120q0 88 31.5 161.5t100.5 122.5t166 49q81 0 154 -27l-101 -473q-22 -108 -77 -165t-170 -57q-78 0 -146 36zM181 64q45 0 93 47t71 156l29 135
q-27 9 -67 9q-89 0 -143 -73t-54 -171q0 -103 71 -103zM316 543q-58 0 -88 34t-25 93h62q-2 -68 57 -68q60 0 81 68h65q-13 -60 -53.5 -93.5t-98.5 -33.5z" />
    <glyph glyph-name="Gdotaccent" unicode="&#x120;" horiz-adv-x="662" 
d="M325 -10q-126 0 -203 72.5t-77 203.5q0 106 46 196t136 146.5t207 56.5q103 0 190 -40l-18 -76q-75 41 -166 41q-135 0 -218.5 -91t-83.5 -223q0 -105 53.5 -157.5t140.5 -52.5q80 0 126 24l49 224h87l-59 -276q-83 -48 -210 -48zM417 714q-23 0 -37 14t-14 35
q0 28 19 45.5t44 17.5q24 0 37.5 -13.5t13.5 -34.5q0 -28 -18.5 -46t-44.5 -18z" />
    <glyph glyph-name="gdotaccent" unicode="&#x121;" horiz-adv-x="491" 
d="M-21 -201l31 73q57 -33 118 -33q69 0 105.5 37.5t54.5 118.5l17 75h-2q-63 -79 -148 -79q-61 0 -97.5 41t-36.5 120q0 88 31.5 161.5t100.5 122.5t166 49q81 0 154 -27l-101 -473q-22 -108 -77 -165t-170 -57q-78 0 -146 36zM181 64q45 0 93 47t71 156l29 135
q-27 9 -67 9q-89 0 -143 -73t-54 -171q0 -103 71 -103zM317 571q-24 0 -38 14t-14 35q0 28 19 45.5t44 17.5q24 0 38 -14t14 -35q0 -27 -19 -45t-44 -18z" />
    <glyph glyph-name="Gcommaaccent" unicode="&#x122;" horiz-adv-x="662" 
d="M325 -10q-126 0 -203 72.5t-77 203.5q0 106 46 196t136 146.5t207 56.5q103 0 190 -40l-18 -76q-75 41 -166 41q-135 0 -218.5 -91t-83.5 -223q0 -105 53.5 -157.5t140.5 -52.5q80 0 126 24l49 224h87l-59 -276q-83 -48 -210 -48zM204 -237l-20 58q87 21 87 79
q0 19 -12 48h80q12 -24 12 -55q0 -104 -147 -130z" />
    <glyph glyph-name="gcommaaccent" unicode="&#x123;" horiz-adv-x="491" 
d="M264 531q-13 23 -13 49q0 111 151 136l18 -57q-88 -22 -88 -80q0 -21 11 -48h-79zM-21 -201l31 73q57 -33 118 -33q69 0 105.5 37.5t54.5 118.5l17 75h-2q-63 -79 -148 -79q-61 0 -97.5 42t-36.5 125q0 63 18.5 120.5t54 104t94 74.5t131.5 28q81 0 154 -27l-101 -473
q-22 -108 -77 -165t-170 -57q-78 0 -146 36zM181 64q45 0 93 47t71 156l29 135q-27 9 -67 9q-89 0 -143 -71.5t-54 -165.5q0 -110 71 -110z" />
    <glyph glyph-name="Hcircumflex" unicode="&#x124;" horiz-adv-x="666" 
d="M10 0l140 659h88l-61 -286h330l61 286h88l-140 -659h-88l63 297h-330l-63 -297h-88zM273 696l119 147h74l82 -147h-71l-52 94l-77 -94h-75z" />
    <glyph glyph-name="hcircumflex" unicode="&#x125;" horiz-adv-x="501" 
d="M0 0l151 708h87l-52 -239q-8 -44 -24 -90h2q30 47 76.5 76.5t97.5 29.5q50 0 79.5 -29t29.5 -87q0 -36 -12 -92l-59 -277h-87l59 274q10 50 10 73q0 60 -53 60q-29 0 -62.5 -19.5t-61.5 -57.5q-34 -48 -52 -129l-43 -201h-86zM58 726l119 147h74l82 -147h-71l-52 94
l-77 -94h-75z" />
    <glyph glyph-name="Hbar" unicode="&#x126;" horiz-adv-x="666" 
d="M10 0l102 478h-71l15 69h70l24 112h88l-24 -112h330l24 112h88l-24 -112h73l-15 -69h-72l-102 -478h-88l63 297h-330l-63 -297h-88zM177 373h330l23 105h-330z" />
    <glyph glyph-name="hbar" unicode="&#x127;" horiz-adv-x="501" 
d="M0 0l118 555h-62l16 69h61l18 84h87l-18 -84h120l-16 -69h-120l-18 -86q-8 -44 -24 -90h2q30 47 76.5 76.5t97.5 29.5q50 0 79.5 -29t29.5 -87q0 -36 -12 -92l-59 -277h-87l59 274q10 50 10 73q0 60 -53 60q-28 0 -61 -18.5t-60 -54.5q-36 -48 -55 -135l-43 -199h-86z
" />
    <glyph glyph-name="Itilde" unicode="&#x128;" horiz-adv-x="248" 
d="M10 0l140 659h88l-140 -659h-88zM57 724q4 53 29 79.5t60 26.5q30 0 68 -23.5t53 -23.5q28 0 34 41h62q-4 -53 -28.5 -79.5t-59.5 -26.5q-30 0 -68.5 23.5t-53.5 23.5q-27 0 -33 -41h-63z" />
    <glyph glyph-name="itilde" unicode="&#x129;" horiz-adv-x="223" 
d="M10 552q4 53 29 79.5t60 26.5q30 0 68 -23.5t53 -23.5q28 0 34 41h62q-4 -53 -28.5 -79.5t-59.5 -26.5q-30 0 -68.5 23.5t-53.5 23.5q-26 0 -33 -41h-63zM1 0l101 473h86l-101 -473h-86z" />
    <glyph glyph-name="imacron" unicode="&#x12b;" horiz-adv-x="223" 
d="M31 572l14 69h260l-15 -69h-259zM1 0l101 473h86l-101 -473h-86z" />
    <glyph glyph-name="Ibreve" unicode="&#x12c;" horiz-adv-x="248" 
d="M10 0l140 659h88l-140 -659h-88zM205 700q-58 0 -88.5 34.5t-25.5 93.5h62q-2 -69 58 -69q59 0 81 69h64q-13 -60 -53 -94t-98 -34z" />
    <glyph glyph-name="Iogonek" unicode="&#x12e;" horiz-adv-x="248" 
d="M12 9l138 650h88l-140 -659q-98 -69 -98 -125q0 -32 34 -32q14 0 38 8l6 -53q-38 -11 -69 -11q-43 0 -63.5 20t-20.5 53q0 68 87 149z" />
    <glyph glyph-name="iogonek" unicode="&#x12f;" horiz-adv-x="223" 
d="M-1 -213q-43 0 -63.5 20t-20.5 53q0 68 87 149l99 464h87l-102 -473q-96 -71 -96 -125q0 -32 34 -32q16 0 38 8l7 -53q-39 -11 -70 -11zM169 571q-24 0 -38 14t-14 35q0 28 19 45.5t44 17.5q24 0 38 -14.5t14 -35.5q0 -27 -18.5 -44.5t-44.5 -17.5z" />
    <glyph glyph-name="Idotaccent" unicode="&#x130;" horiz-adv-x="248" 
d="M10 0l140 659h88l-140 -659h-88zM209 714q-23 0 -37 14t-14 35q0 28 19 45.5t44 17.5q24 0 37.5 -13.5t13.5 -34.5q0 -28 -18.5 -46t-44.5 -18z" />
    <glyph glyph-name="dotlessi" unicode="&#x131;" horiz-adv-x="223" 
d="M1 0l101 473h86l-101 -473h-86z" />
    <glyph glyph-name="IJ" unicode="&#x132;" horiz-adv-x="533" 
d="M10 0l140 659h88l-140 -659h-88zM101 -166l27 71q25 -12 63 -12q57 0 82 45q17 33 25 78l137 643h88l-139 -652q-15 -74 -39 -115q-47 -75 -154 -75q-51 0 -90 17z" />
    <glyph glyph-name="ij" unicode="&#x133;" horiz-adv-x="437" 
d="M0 0l101 473h87l-102 -473h-86zM169 571q-24 0 -38 14t-14 35q0 28 19 45.5t44 17.5q24 0 38 -14t14 -35q0 -27 -19 -45t-44 -18zM50 -223l26 72q21 -9 47 -9q38 0 57.5 23t30.5 75l114 535h87l-123 -572q-29 -138 -163 -138q-43 0 -76 14zM393 571q-23 0 -37 13.5
t-14 35.5q0 28 19 45.5t44 17.5q23 0 37 -13.5t14 -35.5q0 -28 -18.5 -45.5t-44.5 -17.5z" />
    <glyph glyph-name="Jcircumflex" unicode="&#x134;" horiz-adv-x="289" 
d="M-143 -166l27 71q25 -12 63 -12q57 0 82 45q17 33 25 78l137 643h88l-139 -652q-15 -74 -39 -115q-47 -75 -154 -75q-51 0 -90 17zM98 696l119 147h74l82 -147h-71l-52 94l-77 -94h-75z" />
    <glyph glyph-name="jcircumflex" unicode="&#x135;" horiz-adv-x="237" 
d="M-160 -223l24 68q21 -10 48 -10q37 0 57 24t31 76l115 538h87l-123 -572q-29 -138 -163 -138q-43 0 -76 14zM24 531l119 147h75l81 -147h-71l-52 94l-77 -94h-75z" />
    <glyph glyph-name="Kcommaaccent" unicode="&#x136;" horiz-adv-x="547" 
d="M10 0l140 659h88l-64 -303h3l287 303h107l-328 -343l220 -316h-106l-196 288h-2l-61 -288h-88zM104 -237l-20 58q87 21 87 79q0 19 -12 48h80q12 -24 12 -55q0 -104 -147 -130z" />
    <glyph glyph-name="kcommaaccent" unicode="&#x137;" horiz-adv-x="445" 
d="M0 0l151 708h87l-88 -411h2l198 176h108l-240 -211l166 -262h-100l-145 235h-2l-51 -235h-86zM73 -237l-20 58q87 21 87 79q0 19 -12 48h80q12 -24 12 -55q0 -104 -147 -130z" />
    <glyph glyph-name="Lacute" unicode="&#x139;" horiz-adv-x="433" 
d="M10 0l140 659h88l-124 -584h240l-17 -75h-327zM169 696l76 147h100l-109 -147h-67z" />
    <glyph glyph-name="lacute" unicode="&#x13a;" horiz-adv-x="264" 
d="M162 732l65 127h95l-93 -127h-67zM115 -6q-42 0 -66.5 21.5t-24.5 62.5q0 16 6 49l124 581h87l-124 -580q-4 -17 -4 -31q0 -26 29 -26q17 0 38 7v-72q-32 -12 -65 -12z" />
    <glyph glyph-name="Lcommaaccent" unicode="&#x13b;" horiz-adv-x="433" 
d="M10 0l140 659h88l-124 -584h240l-17 -75h-327zM57 -237l-20 58q87 21 87 79q0 19 -12 48h80q12 -24 12 -55q0 -104 -147 -130z" />
    <glyph glyph-name="lcommaaccent" unicode="&#x13c;" horiz-adv-x="264" 
d="M115 -6q-42 0 -66.5 21.5t-24.5 62.5q0 16 6 49l124 581h87l-124 -580q-4 -17 -4 -31q0 -26 29 -26q17 0 38 7v-72q-32 -12 -65 -12zM-28 -237l-20 58q87 21 87 79q0 19 -12 48h80q12 -24 12 -55q0 -104 -147 -130z" />
    <glyph glyph-name="Lcaron" unicode="&#x13d;" horiz-adv-x="433" 
d="M10 0l140 659h88l-124 -584h240l-17 -75h-327zM303 513l61 195h88l-82 -195h-67z" />
    <glyph glyph-name="lcaron" unicode="&#x13e;" horiz-adv-x="264" 
d="M115 -6q-42 0 -66.5 21.5t-24.5 62.5q0 16 6 49l124 581h87l-124 -580q-4 -17 -4 -31q0 -26 29 -26q17 0 38 7v-72q-32 -12 -65 -12zM255 513l61 195h88l-82 -195h-67z" />
    <glyph glyph-name="Ldot" unicode="&#x13f;" horiz-adv-x="433" 
d="M10 0l140 659h88l-124 -584h240l-17 -75h-327zM332 285q-21 0 -34.5 14.5t-13.5 35.5q0 26 16.5 43.5t41.5 17.5q21 0 34.5 -15t13.5 -36q0 -26 -16.5 -43t-41.5 -17z" />
    <glyph glyph-name="ldot" unicode="&#x140;" horiz-adv-x="297" 
d="M115 -6q-42 0 -66.5 21.5t-24.5 62.5q0 16 6 49l124 581h87l-124 -580q-4 -17 -4 -31q0 -26 29 -26q17 0 38 7v-72q-32 -12 -65 -12zM259 285q-21 0 -34.5 14.5t-13.5 35.5q0 26 16.5 43.5t41.5 17.5q21 0 34.5 -15t13.5 -36q0 -26 -16.5 -43t-41.5 -17z" />
    <glyph glyph-name="Lslash" unicode="&#x141;" horiz-adv-x="436" 
d="M14 0l51 238l-63 -34l18 85l63 34l71 336h88l-60 -285l162 85l-19 -84l-161 -85l-46 -215h240l-17 -75h-327z" />
    <glyph glyph-name="lslash" unicode="&#x142;" horiz-adv-x="270" 
d="M121 -6q-42 0 -66.5 21.5t-24.5 62.5q0 16 6 49l31 149l-60 -31l19 86l60 31l74 346h87l-63 -295l69 36l-18 -86l-70 -37l-42 -198q-4 -17 -4 -31q0 -26 29 -26q17 0 38 7v-72q-32 -12 -65 -12z" />
    <glyph glyph-name="Nacute" unicode="&#x143;" horiz-adv-x="703" 
d="M10 0l140 659h83l217 -425q23 -44 44 -93h2q3 19 10 54.5t9 46.5l88 417h89l-141 -659h-73l-224 439q-36 72 -44 92h-2q-5 -33 -17 -95l-93 -436h-88zM382 696l76 147h100l-109 -147h-67z" />
    <glyph glyph-name="nacute" unicode="&#x144;" horiz-adv-x="499" 
d="M0 0l101 473h70l-12 -94h2q31 46 78.5 76t98.5 30q50 0 79.5 -29t29.5 -87q0 -36 -12 -92l-59 -277h-87l59 274q10 50 10 73q0 60 -53 60q-28 0 -61 -18.5t-60 -54.5q-36 -47 -55 -133l-43 -201h-86zM250 531l76 147h100l-109 -147h-67z" />
    <glyph glyph-name="Ncommaaccent" unicode="&#x145;" horiz-adv-x="703" 
d="M10 0l140 659h83l217 -425q23 -44 44 -93h2q3 19 10 54.5t9 46.5l88 417h89l-141 -659h-73l-224 439q-36 72 -44 92h-2q-5 -33 -17 -95l-93 -436h-88zM186 -237l-20 58q87 21 87 79q0 19 -12 48h80q12 -24 12 -55q0 -104 -147 -130z" />
    <glyph glyph-name="ncommaaccent" unicode="&#x146;" horiz-adv-x="499" 
d="M0 0l101 473h70l-12 -94h2q31 46 78.5 76t98.5 30q50 0 79.5 -29t29.5 -87q0 -36 -12 -92l-59 -277h-87l59 274q10 50 10 73q0 60 -53 60q-28 0 -61 -18.5t-60 -54.5q-36 -47 -55 -133l-43 -201h-86zM77 -237l-20 58q87 21 87 79q0 19 -12 48h80q12 -24 12 -55
q0 -104 -147 -130z" />
    <glyph glyph-name="Ncaron" unicode="&#x147;" horiz-adv-x="703" 
d="M10 0l140 659h83l217 -425q23 -44 44 -93h2q3 19 10 54.5t9 46.5l88 417h89l-141 -659h-73l-224 439q-36 72 -44 92h-2q-5 -33 -17 -95l-93 -436h-88zM393 697l-81 147h71l52 -95l77 95h75l-119 -147h-75z" />
    <glyph glyph-name="ncaron" unicode="&#x148;" horiz-adv-x="499" 
d="M0 0l101 473h70l-12 -94h2q31 46 78.5 76t98.5 30q50 0 79.5 -29t29.5 -87q0 -36 -12 -92l-59 -277h-87l59 274q10 50 10 73q0 60 -53 60q-28 0 -61 -18.5t-60 -54.5q-36 -47 -55 -133l-43 -201h-86zM250 532l-81 147h71l52 -95l77 95h75l-119 -147h-75z" />
    <glyph glyph-name="Eng" unicode="&#x14a;" horiz-adv-x="701" 
d="M10 0l140 659h83l217 -424q24 -49 44 -94h2q3 20 10 55.5t9 45.5l88 417h89l-154 -719q-31 -138 -168 -138q-42 0 -80 15l25 72q21 -11 52 -11q38 0 58.5 22.5t33.5 81.5l8 39l-213 417q-32 61 -44 91h-2q-7 -49 -18 -94l-92 -435h-88z" />
    <glyph glyph-name="eng" unicode="&#x14b;" horiz-adv-x="501" 
d="M0 0l101 473h70l-12 -94h2q31 46 78.5 76t98.5 30q50 0 79.5 -29t29.5 -87q0 -36 -12 -92l-71 -334q-31 -138 -163 -138q-44 0 -77 14l26 72q22 -9 47 -9q38 0 57.5 23t30.5 75l63 294q10 50 10 73q0 60 -53 60q-29 0 -62.5 -19t-60.5 -56q-34 -45 -53 -131l-43 -201h-86
z" />
    <glyph glyph-name="Omacron" unicode="&#x14c;" horiz-adv-x="718" 
d="M312 -10q-123 0 -195 72t-72 204q0 105 43.5 195.5t127 147t190.5 56.5q123 0 195 -71.5t72 -203.5q0 -105 -43.5 -195.5t-127 -147.5t-190.5 -57zM318 66q117 0 189 98.5t72 224.5q0 96 -45.5 148t-132.5 52q-79 0 -140.5 -48.5t-92 -121t-30.5 -152.5q0 -95 46 -148
t134 -53zM292 713l14 69h260l-15 -69h-259z" />
    <glyph glyph-name="omacron" unicode="&#x14d;" horiz-adv-x="509" 
d="M205 -10q-89 0 -137 52t-48 134q0 134 75 221.5t182 87.5q89 0 136.5 -52t47.5 -134q0 -134 -74.5 -221.5t-181.5 -87.5zM208 63q72 0 118 69t46 162q0 118 -98 118q-72 0 -118.5 -69t-46.5 -162q0 -118 99 -118zM171 572l14 69h260l-15 -69h-259z" />
    <glyph glyph-name="Obreve" unicode="&#x14e;" horiz-adv-x="718" 
d="M312 -10q-123 0 -195 72t-72 204q0 105 43.5 195.5t127 147t190.5 56.5q123 0 195 -71.5t72 -203.5q0 -105 -43.5 -195.5t-127 -147.5t-190.5 -57zM318 66q117 0 189 98.5t72 224.5q0 96 -45.5 148t-132.5 52q-79 0 -140.5 -48.5t-92 -121t-30.5 -152.5q0 -95 46 -148
t134 -53zM422 700q-58 0 -88.5 34.5t-25.5 93.5h62q-2 -69 58 -69q59 0 81 69h64q-13 -60 -53 -94t-98 -34z" />
    <glyph glyph-name="obreve" unicode="&#x14f;" horiz-adv-x="509" 
d="M205 -10q-89 0 -137 52t-48 134q0 134 75 221.5t182 87.5q89 0 136.5 -52t47.5 -134q0 -134 -74.5 -221.5t-181.5 -87.5zM208 63q72 0 118 69t46 162q0 118 -98 118q-72 0 -118.5 -69t-46.5 -162q0 -118 99 -118zM296 543q-58 0 -88 34t-25 93h62q-2 -68 57 -68
q60 0 81 68h65q-13 -60 -53.5 -93.5t-98.5 -33.5z" />
    <glyph glyph-name="Ohungarumlaut" unicode="&#x150;" horiz-adv-x="718" 
d="M312 -10q-123 0 -195 72t-72 204q0 105 43.5 195.5t127 147t190.5 56.5q123 0 195 -71.5t72 -203.5q0 -105 -43.5 -195.5t-127 -147.5t-190.5 -57zM318 66q117 0 189 98.5t72 224.5q0 96 -45.5 148t-132.5 52q-79 0 -140.5 -48.5t-92 -121t-30.5 -152.5q0 -95 46 -148
t134 -53zM304 696l76 147h100l-108 -147h-68zM470 696l77 147h100l-109 -147h-68z" />
    <glyph glyph-name="ohungarumlaut" unicode="&#x151;" horiz-adv-x="509" 
d="M205 -10q-89 0 -137 52t-48 134q0 134 75 221.5t182 87.5q89 0 136.5 -52t47.5 -134q0 -134 -74.5 -221.5t-181.5 -87.5zM208 63q72 0 118 69t46 162q0 118 -98 118q-72 0 -118.5 -69t-46.5 -162q0 -118 99 -118zM179 531l76 147h100l-108 -147h-68zM345 531l77 147h100
l-109 -147h-68z" />
    <glyph glyph-name="OE" unicode="&#x152;" horiz-adv-x="852" 
d="M45 267q0 168 105 283t287 115q25 0 87 -3t94 -3h235l-29 -75h-218l-44 -210h213l-16 -75h-213l-47 -224h243l-17 -75h-235q-28 0 -86.5 -4.5t-85.5 -4.5q-127 0 -200 73t-73 203zM138 270q0 -96 48 -150t144 -54q36 0 80 6l108 512q-38 6 -90 6q-137 0 -213.5 -94.5
t-76.5 -225.5z" />
    <glyph glyph-name="oe" unicode="&#x153;" horiz-adv-x="814" 
d="M202 -10q-87 0 -134 52t-47 134q0 134 74 221.5t179 87.5q116 0 155 -101h2q29 47 78 74t107 27q76 0 116 -42.5t40 -112.5q0 -55 -21 -110l-298 -4q0 -3 -0.5 -12t-0.5 -13q0 -60 32.5 -94.5t86.5 -34.5q60 0 128 36l25 -64q-74 -44 -162 -44q-61 0 -105 29t-62 82h-2
q-33 -52 -84 -81.5t-107 -29.5zM209 63q72 0 118 69t46 162q0 118 -98 118q-72 0 -118.5 -69t-46.5 -162q0 -118 99 -118zM465 281l214 3q7 24 7 49q0 35 -19 58.5t-63 23.5q-49 0 -88 -39t-51 -95z" />
    <glyph glyph-name="Racute" unicode="&#x154;" horiz-adv-x="536" 
d="M10 0l140 659h130q105 0 156.5 -47.5t51.5 -118.5q0 -82 -47.5 -131.5t-130.5 -66.5v-2q15 -25 44 -87l93 -206h-96l-71 167q-38 82 -53 108h-71l-58 -275h-88zM172 348h56q79 0 124.5 35.5t45.5 101.5q0 46 -30 73.5t-94 27.5h-52zM259 696l76 147h100l-109 -147h-67z
" />
    <glyph glyph-name="racute" unicode="&#x155;" horiz-adv-x="328" 
d="M0 0l101 473h70l-12 -94h2q51 106 134 106q32 0 58 -17l-37 -76q-19 11 -41 11q-45 0 -85 -52.5t-63 -157.5l-40 -193h-87zM188 531l76 147h100l-109 -147h-67z" />
    <glyph glyph-name="Rcommaaccent" unicode="&#x156;" horiz-adv-x="536" 
d="M10 0l140 659h130q105 0 156.5 -47.5t51.5 -118.5q0 -82 -47.5 -131.5t-130.5 -66.5v-2q15 -25 44 -87l93 -206h-96l-71 167q-38 82 -53 108h-71l-58 -275h-88zM172 348h56q79 0 124.5 35.5t45.5 101.5q0 46 -30 73.5t-94 27.5h-52zM104 -237l-20 58q87 21 87 79
q0 19 -12 48h80q12 -24 12 -55q0 -104 -147 -130z" />
    <glyph glyph-name="rcommaaccent" unicode="&#x157;" horiz-adv-x="328" 
d="M0 0l101 473h70l-12 -94h2q51 106 134 106q32 0 58 -17l-37 -76q-19 11 -41 11q-45 0 -85 -52.5t-63 -157.5l-40 -193h-87zM-54 -237l-20 58q87 21 87 79q0 19 -12 48h80q12 -24 12 -55q0 -104 -147 -130z" />
    <glyph glyph-name="Rcaron" unicode="&#x158;" horiz-adv-x="536" 
d="M10 0l140 659h130q105 0 156.5 -47.5t51.5 -118.5q0 -82 -47.5 -131.5t-130.5 -66.5v-2q15 -25 44 -87l93 -206h-96l-71 167q-38 82 -53 108h-71l-58 -275h-88zM172 348h56q79 0 124.5 35.5t45.5 101.5q0 46 -30 73.5t-94 27.5h-52zM270 697l-81 147h71l52 -95l77 95h75
l-119 -147h-75z" />
    <glyph glyph-name="rcaron" unicode="&#x159;" horiz-adv-x="328" 
d="M0 0l101 473h70l-12 -94h2q51 106 134 106q32 0 58 -17l-37 -76q-19 11 -41 11q-45 0 -85 -52.5t-63 -157.5l-40 -193h-87zM188 532l-81 147h71l52 -95l77 95h75l-119 -147h-75z" />
    <glyph glyph-name="Sacute" unicode="&#x15a;" horiz-adv-x="471" 
d="M-4 34l36 70q59 -38 131 -38q56 0 95.5 26.5t39.5 84.5q0 33 -15.5 60t-39.5 44.5t-51 38.5t-51 40.5t-39.5 51.5t-15.5 72q0 80 57 130.5t151 50.5q83 0 149 -33l-16 -76q-62 34 -132 34q-51 0 -84 -25t-33 -69q0 -34 22 -61.5t53 -49t62 -46t53 -63.5t22 -89
q0 -96 -64.5 -146.5t-162.5 -50.5q-94 0 -167 44zM257 696l76 147h100l-109 -147h-67z" />
    <glyph glyph-name="sacute" unicode="&#x15b;" horiz-adv-x="360" 
d="M-26 28l29 66q53 -32 111 -32q38 0 64.5 17t26.5 49q0 23 -16 42t-38.5 34.5t-45 33t-38.5 46t-16 64.5q0 59 41.5 98t119.5 39q65 0 119 -21l-14 -71q-55 21 -101 21q-34 0 -55.5 -15.5t-21.5 -46.5q0 -23 16 -42t38.5 -35t45 -33.5t38.5 -46t16 -65.5
q0 -65 -49.5 -102.5t-125.5 -37.5q-82 0 -144 38zM180 531l76 147h100l-109 -147h-67z" />
    <glyph glyph-name="Scircumflex" unicode="&#x15c;" horiz-adv-x="471" 
d="M-4 34l36 70q59 -38 131 -38q56 0 95.5 26.5t39.5 84.5q0 33 -15.5 60t-39.5 44.5t-51 38.5t-51 40.5t-39.5 51.5t-15.5 72q0 80 57 130.5t151 50.5q83 0 149 -33l-16 -76q-62 34 -132 34q-51 0 -84 -25t-33 -69q0 -34 22 -61.5t53 -49t62 -46t53 -63.5t22 -89
q0 -96 -64.5 -146.5t-162.5 -50.5q-94 0 -167 44zM160 696l119 147h74l82 -147h-71l-52 94l-77 -94h-75z" />
    <glyph glyph-name="scircumflex" unicode="&#x15d;" horiz-adv-x="360" 
d="M-26 28l29 66q53 -32 111 -32q38 0 64.5 17t26.5 49q0 23 -16 42t-38.5 34.5t-45 33t-38.5 46t-16 64.5q0 59 41.5 98t119.5 39q65 0 119 -21l-14 -71q-55 21 -101 21q-34 0 -55.5 -15.5t-21.5 -46.5q0 -23 16 -42t38.5 -35t45 -33.5t38.5 -46t16 -65.5
q0 -65 -49.5 -102.5t-125.5 -37.5q-82 0 -144 38zM85 531l119 147h74l82 -147h-71l-52 94l-77 -94h-75z" />
    <glyph glyph-name="Scedilla" unicode="&#x15e;" horiz-adv-x="471" 
d="M38 -198l20 45q19 -10 47 -10q60 0 60 41q0 35 -78 32l39 82q-75 8 -130 42l36 70q59 -38 131 -38q56 0 95.5 26.5t39.5 84.5q0 33 -15.5 60t-39.5 44.5t-51 38.5t-51 40.5t-39.5 51.5t-15.5 72q0 80 57 130.5t151 50.5q83 0 149 -33l-16 -76q-62 34 -132 34
q-51 0 -84 -25t-33 -69q0 -34 22 -61.5t53 -49t62 -46t53 -63.5t22 -89q0 -89 -55.5 -139t-142.5 -56l-21 -45q33 -2 52 -19.5t19 -45.5q0 -45 -36.5 -69.5t-94.5 -24.5q-42 0 -73 14z" />
    <glyph glyph-name="scedilla" unicode="&#x15f;" horiz-adv-x="360" 
d="M-17 -198l21 45q19 -10 47 -10q26 0 42.5 10.5t16.5 30.5q0 36 -77 32l39 84q-56 7 -98 34l29 66q53 -32 111 -32q38 0 64.5 17t26.5 49q0 26 -24 50t-53 41.5t-53 51t-24 77.5q0 59 41.5 98t119.5 39q65 0 119 -21l-14 -71q-55 21 -101 21q-34 0 -55.5 -15.5
t-21.5 -46.5q0 -22 16 -41t38.5 -35t45 -34t38.5 -46.5t16 -65.5q0 -61 -43.5 -97.5t-112.5 -41.5l-20 -44q33 -2 51.5 -19.5t18.5 -45.5q0 -45 -36.5 -69.5t-93.5 -24.5q-42 0 -74 14z" />
    <glyph glyph-name="Scaron" unicode="&#x160;" horiz-adv-x="471" 
d="M-4 34l36 70q59 -38 131 -38q56 0 95.5 26.5t39.5 84.5q0 33 -15.5 60t-39.5 44.5t-51 38.5t-51 40.5t-39.5 51.5t-15.5 72q0 80 57 130.5t151 50.5q83 0 149 -33l-16 -76q-62 34 -132 34q-51 0 -84 -25t-33 -69q0 -34 22 -61.5t53 -49t62 -46t53 -63.5t22 -89
q0 -96 -64.5 -146.5t-162.5 -50.5q-94 0 -167 44zM257 697l-81 147h71l52 -95l77 95h75l-119 -147h-75z" />
    <glyph glyph-name="scaron" unicode="&#x161;" horiz-adv-x="360" 
d="M-26 28l29 66q53 -32 111 -32q38 0 64.5 17t26.5 49q0 23 -16 42t-38.5 34.5t-45 33t-38.5 46t-16 64.5q0 59 41.5 98t119.5 39q65 0 119 -21l-14 -71q-55 21 -101 21q-34 0 -55.5 -15.5t-21.5 -46.5q0 -23 16 -42t38.5 -35t45 -33.5t38.5 -46t16 -65.5
q0 -65 -49.5 -102.5t-125.5 -37.5q-82 0 -144 38zM185 532l-81 147h71l52 -95l77 95h75l-119 -147h-75z" />
    <glyph glyph-name="Tcommaaccent" unicode="&#x162;" horiz-adv-x="492" 
d="M131 0l124 584h-194l16 75h479l-32 -75h-181l-124 -584h-88zM70 -237l-20 58q87 21 87 79q0 19 -12 48h80q12 -24 12 -55q0 -104 -147 -130z" />
    <glyph glyph-name="tcommaaccent" unicode="&#x163;" horiz-adv-x="341" 
d="M157 -10q-55 0 -82 25.5t-27 69.5q0 26 7 58l55 259h-78l15 71h79l23 107l92 26l-29 -133h129l-28 -71h-116l-57 -268q-4 -16 -4 -31q0 -40 42 -40q35 0 80 25l22 -64q-59 -34 -123 -34zM14 -237l-20 58q87 21 87 79q0 19 -12 48h80q12 -24 12 -55q0 -104 -147 -130z" />
    <glyph glyph-name="Tcaron" unicode="&#x164;" horiz-adv-x="492" 
d="M131 0l124 584h-194l16 75h479l-32 -75h-181l-124 -584h-88zM289 697l-81 147h71l52 -95l77 95h75l-119 -147h-75z" />
    <glyph glyph-name="tcaron" unicode="&#x165;" horiz-adv-x="341" 
d="M157 -10q-55 0 -82 25.5t-27 69.5q0 26 7 58l55 259h-78l15 71h79l23 107l92 26l-29 -133h129l-28 -71h-116l-57 -268q-4 -16 -4 -31q0 -40 42 -40q35 0 80 25l22 -64q-59 -34 -123 -34zM274 513l61 195h88l-82 -195h-67z" />
    <glyph glyph-name="Tbar" unicode="&#x166;" horiz-adv-x="492" 
d="M131 0l59 284h-116l16 73h116l49 227h-194l16 75h479l-32 -75h-181l-49 -227h119l-16 -73h-119l-59 -284h-88z" />
    <glyph glyph-name="tbar" unicode="&#x167;" horiz-adv-x="341" 
d="M157 -10q-55 0 -82 25.5t-27 69.5q0 26 6 53l18 88h-75l15 69h75l23 107h-78l15 71h79l23 109l92 21l-29 -130h129l-28 -71h-116l-23 -107h95l-16 -69h-93l-19 -89q-5 -19 -5 -34q0 -40 42 -40q35 0 80 25l22 -64q-59 -34 -123 -34z" />
    <glyph glyph-name="Utilde" unicode="&#x168;" horiz-adv-x="651" 
d="M276 -10q-104 0 -161.5 51.5t-57.5 140.5q0 31 12 91l82 386h88l-83 -388q-10 -47 -10 -78q0 -63 35.5 -95.5t98.5 -32.5q84 0 129 47q39 40 56 120l91 427h88l-92 -436q-24 -112 -81 -166q-71 -67 -195 -67zM262 724q4 53 29 79.5t60 26.5q30 0 68 -23.5t53 -23.5
q28 0 34 41h62q-4 -53 -28.5 -79.5t-59.5 -26.5q-30 0 -68.5 23.5t-53.5 23.5q-27 0 -33 -41h-63z" />
    <glyph glyph-name="utilde" unicode="&#x169;" horiz-adv-x="502" 
d="M144 -10q-51 0 -83 29.5t-32 89.5q0 33 12 93l57 271h87l-59 -279q-9 -40 -9 -66q0 -62 54 -62q56 0 100 48.5t60 119.5l51 239h86l-60 -281q-15 -82 -15 -120q0 -29 7 -62l-74 -16q-15 46 -12 92h-2q-30 -42 -75.5 -69t-92.5 -27zM154 552q4 53 29 79.5t60 26.5
q30 0 68 -23.5t53 -23.5q28 0 34 41h62q-4 -53 -28.5 -79.5t-59.5 -26.5q-30 0 -68.5 23.5t-53.5 23.5q-26 0 -33 -41h-63z" />
    <glyph glyph-name="Umacron" unicode="&#x16a;" horiz-adv-x="651" 
d="M276 -10q-104 0 -161.5 51.5t-57.5 140.5q0 31 12 91l82 386h88l-83 -388q-10 -47 -10 -78q0 -63 35.5 -95.5t98.5 -32.5q84 0 129 47q39 40 56 120l91 427h88l-92 -436q-24 -112 -81 -166q-71 -67 -195 -67zM277 713l14 69h260l-15 -69h-259z" />
    <glyph glyph-name="umacron" unicode="&#x16b;" horiz-adv-x="502" 
d="M144 -10q-51 0 -83 29.5t-32 89.5q0 33 12 93l57 271h87l-59 -279q-9 -40 -9 -66q0 -62 54 -62q56 0 100 48.5t60 119.5l51 239h86l-60 -281q-15 -82 -15 -120q0 -29 7 -62l-74 -16q-15 46 -12 92h-2q-30 -42 -75.5 -69t-92.5 -27zM170 572l14 69h260l-15 -69h-259z" />
    <glyph glyph-name="Ubreve" unicode="&#x16c;" horiz-adv-x="651" 
d="M276 -10q-104 0 -161.5 51.5t-57.5 140.5q0 31 12 91l82 386h88l-83 -388q-10 -47 -10 -78q0 -63 35.5 -95.5t98.5 -32.5q84 0 129 47q39 40 56 120l91 427h88l-92 -436q-24 -112 -81 -166q-71 -67 -195 -67zM404 700q-58 0 -88.5 34.5t-25.5 93.5h62q-2 -69 58 -69
q59 0 81 69h64q-13 -60 -53 -94t-98 -34z" />
    <glyph glyph-name="ubreve" unicode="&#x16d;" horiz-adv-x="502" 
d="M144 -10q-51 0 -83 29.5t-32 89.5q0 33 12 93l57 271h87l-59 -279q-9 -40 -9 -66q0 -62 54 -62q56 0 100 48.5t60 119.5l51 239h86l-60 -281q-15 -82 -15 -120q0 -29 7 -62l-74 -16q-15 46 -12 92h-2q-30 -42 -75.5 -69t-92.5 -27zM294 543q-58 0 -88 34t-25 93h62
q-2 -68 57 -68q60 0 81 68h65q-13 -60 -53.5 -93.5t-98.5 -33.5z" />
    <glyph glyph-name="Uring" unicode="&#x16e;" horiz-adv-x="651" 
d="M276 -10q-104 0 -161.5 51.5t-57.5 140.5q0 31 12 91l82 386h88l-83 -388q-10 -47 -10 -78q0 -63 35.5 -95.5t98.5 -32.5q84 0 129 47q39 40 56 120l91 427h88l-92 -436q-24 -112 -81 -166q-71 -67 -195 -67zM397 653q-44 0 -71 22.5t-27 61.5q0 48 33.5 77.5t84.5 29.5
q43 0 70 -22.5t27 -60.5q0 -49 -33.5 -78.5t-83.5 -29.5zM400 697q24 0 38.5 17.5t14.5 43.5q0 20 -10.5 31t-29.5 11q-24 0 -38.5 -17.5t-14.5 -43.5q0 -19 11 -30.5t29 -11.5z" />
    <glyph glyph-name="uring" unicode="&#x16f;" horiz-adv-x="502" 
d="M144 -10q-51 0 -83 29.5t-32 89.5q0 33 12 93l57 271h87l-59 -279q-9 -40 -9 -66q0 -62 54 -62q56 0 100 48.5t60 119.5l51 239h86l-60 -281q-15 -82 -15 -120q0 -29 7 -62l-74 -16q-15 46 -12 92h-2q-30 -42 -75.5 -69t-92.5 -27zM291 523q-44 0 -70.5 22.5t-26.5 61.5
q0 48 33.5 77.5t83.5 29.5q44 0 71 -22.5t27 -60.5q0 -49 -34 -78.5t-84 -29.5zM295 567q24 0 38.5 17.5t14.5 43.5q0 19 -11 30.5t-30 11.5q-23 0 -38 -17.5t-15 -43.5q0 -19 11 -30.5t30 -11.5z" />
    <glyph glyph-name="Uhungarumlaut" unicode="&#x170;" horiz-adv-x="651" 
d="M276 -10q-104 0 -161.5 51.5t-57.5 140.5q0 31 12 91l82 386h88l-83 -388q-10 -47 -10 -78q0 -63 35.5 -95.5t98.5 -32.5q84 0 129 47q39 40 56 120l91 427h88l-92 -436q-24 -112 -81 -166q-71 -67 -195 -67zM282 696l76 147h100l-108 -147h-68zM448 696l77 147h100
l-109 -147h-68z" />
    <glyph glyph-name="uhungarumlaut" unicode="&#x171;" horiz-adv-x="502" 
d="M144 -10q-51 0 -83 29.5t-32 89.5q0 33 12 93l57 271h87l-59 -279q-9 -40 -9 -66q0 -62 54 -62q56 0 100 48.5t60 119.5l51 239h86l-60 -281q-15 -82 -15 -120q0 -29 7 -62l-74 -16q-15 46 -12 92h-2q-30 -42 -75.5 -69t-92.5 -27zM173 531l76 147h100l-108 -147h-68z
M339 531l77 147h100l-109 -147h-68z" />
    <glyph glyph-name="Uogonek" unicode="&#x172;" horiz-adv-x="651" 
d="M239 -213q-43 0 -64 20t-21 51q0 74 94 132v2q-88 5 -139.5 55t-51.5 135q0 31 12 91l82 386h88l-83 -388q-10 -47 -10 -78q0 -63 35 -95.5t99 -32.5q81 0 124.5 43t60.5 124l91 427h88l-92 -436q-37 -175 -170 -218q-60 -20 -106.5 -56.5t-46.5 -73.5q0 -32 34 -32
q15 0 39 8l6 -53q-38 -11 -69 -11z" />
    <glyph glyph-name="uogonek" unicode="&#x173;" horiz-adv-x="502" 
d="M271 -213q-43 0 -64 20t-21 51q0 89 134 158q-8 41 -7 70h-2q-30 -43 -75 -69.5t-92 -26.5q-51 0 -83 29.5t-32 89.5q0 33 12 93l57 271h87l-59 -279q-9 -40 -9 -66q0 -62 54 -62q56 0 100 48.5t60 119.5l51 239h86l-60 -281q-15 -82 -15 -121q0 -32 7 -65
q-59 -26 -99 -61t-40 -70q0 -32 34 -32q15 0 39 8l6 -53q-33 -11 -69 -11z" />
    <glyph glyph-name="Wcircumflex" unicode="&#x174;" horiz-adv-x="836" 
d="M163 -4l-91 663h96l44 -378q8 -67 15 -151h2q25 67 61 138l137 280l-15 111h88l46 -379q8 -58 16 -150h2q21 63 57 140l180 389h97l-324 -663h-72l-39 290q-12 77 -17 135h-2q-25 -60 -64 -138l-144 -287h-73zM354 696l119 147h74l82 -147h-71l-52 94l-77 -94h-75z" />
    <glyph glyph-name="wcircumflex" unicode="&#x175;" horiz-adv-x="674" 
d="M111 -3l-72 476h82l32 -227q10 -68 15 -129h2q22 53 50 112l118 244h62l28 -222q6 -48 14 -134h2q7 19 49 114l110 242h91l-236 -476h-68l-28 229q-10 80 -14 119h-2q-19 -45 -57 -122l-112 -226h-66zM239 531l119 147h74l82 -147h-71l-52 94l-77 -94h-75z" />
    <glyph glyph-name="Ycircumflex" unicode="&#x176;" horiz-adv-x="514" 
d="M163 0l54 255l-145 404h92l107 -318h2l205 318h99l-272 -407l-54 -252h-88zM185 696l119 147h74l82 -147h-71l-52 94l-77 -94h-75z" />
    <glyph glyph-name="ycircumflex" unicode="&#x177;" horiz-adv-x="452" 
d="M-125 -219l31 68q27 -13 58 -13q48 0 90.5 35.5t87.5 127.5l-107 474h87l50 -241q6 -29 27 -135h2q23 55 56 123l123 253h91l-249 -489q-62 -123 -121.5 -172t-143.5 -49q-51 0 -82 18zM123 531l119 147h74l82 -147h-71l-52 94l-77 -94h-75z" />
    <glyph glyph-name="Ydieresis" unicode="&#x178;" horiz-adv-x="514" 
d="M163 0l54 255l-145 404h92l107 -318h2l205 318h99l-272 -407l-54 -252h-88zM242 704q-19 0 -31 11.5t-12 30.5q0 24 15.5 40t37.5 16q19 0 30.5 -11t11.5 -30q0 -25 -15 -41t-37 -16zM422 704q-19 0 -30.5 11.5t-11.5 30.5q0 24 15 40t37 16q19 0 30.5 -11t11.5 -30
q0 -25 -15 -41t-37 -16z" />
    <glyph glyph-name="Zacute" unicode="&#x179;" horiz-adv-x="526" 
d="M-28 0l416 584h-283l-8 75h441l-413 -584h319l-17 -75h-455zM268 696l76 147h100l-109 -147h-67z" />
    <glyph glyph-name="zacute" unicode="&#x17a;" horiz-adv-x="387" 
d="M-35 0l272 402h-187l-9 71h339l-274 -403h214l-14 -70h-341zM172 531l76 147h100l-109 -147h-67z" />
    <glyph glyph-name="Zdotaccent" unicode="&#x17b;" horiz-adv-x="526" 
d="M-28 0l416 584h-283l-8 75h441l-413 -584h319l-17 -75h-455zM311 714q-23 0 -37 14t-14 35q0 28 19 45.5t44 17.5q24 0 37.5 -13.5t13.5 -34.5q0 -28 -18.5 -46t-44.5 -18z" />
    <glyph glyph-name="zdotaccent" unicode="&#x17c;" horiz-adv-x="387" 
d="M-35 0l272 402h-187l-9 71h339l-274 -403h214l-14 -70h-341zM231 571q-24 0 -38 14t-14 35q0 28 19 45.5t44 17.5q24 0 38 -14t14 -35q0 -27 -19 -45t-44 -18z" />
    <glyph glyph-name="Zcaron" unicode="&#x17d;" horiz-adv-x="526" 
d="M-28 0l416 584h-283l-8 75h441l-413 -584h319l-17 -75h-455zM273 697l-81 147h71l52 -95l77 95h75l-119 -147h-75z" />
    <glyph glyph-name="zcaron" unicode="&#x17e;" horiz-adv-x="387" 
d="M-35 0l272 402h-187l-9 71h339l-274 -403h214l-14 -70h-341zM184 532l-81 147h71l52 -95l77 95h75l-119 -147h-75z" />
    <glyph glyph-name="florin" unicode="&#x192;" horiz-adv-x="524" 
d="M-87 -143l31 71q30 -20 76 -20q42 0 69.5 27t43.5 95l64 284h-100l10 70h105l33 144q40 180 195 180q62 0 110 -27l-31 -71q-30 20 -76 20q-41 0 -69 -27.5t-44 -94.5l-28 -124h127l-25 -70h-118l-68 -304q-40 -180 -194 -180q-63 0 -111 27z" />
    <glyph glyph-name="Aringacute" unicode="&#x1fa;" horiz-adv-x="580" 
d="M-44 0l346 656q-58 17 -58 77q0 46 30.5 75t76.5 32l57 113h100l-93 -124q44 -21 44 -72q0 -39 -23 -66t-59 -36l119 -655h-92l-30 173h-232l-88 -173h-98zM182 246h180l-30 195q-8 54 -13 87h-2q-33 -76 -41 -92zM345 694q24 0 38.5 17.5t14.5 43.5q0 19 -10.5 30.5
t-29.5 11.5q-24 0 -38.5 -17.5t-14.5 -43.5q0 -19 11 -30.5t29 -11.5z" />
    <glyph glyph-name="aringacute" unicode="&#x1fb;" horiz-adv-x="469" 
d="M268 516q-44 0 -70.5 23t-26.5 61q0 45 29 74t74 33l70 136h100l-108 -144q50 -21 50 -75q0 -48 -34 -78t-84 -30zM272 560q24 0 38.5 17.5t14.5 43.5q0 20 -11 31.5t-30 11.5q-23 0 -38 -17.5t-15 -43.5q0 -20 11 -31.5t30 -11.5zM127 -10q-57 0 -91.5 35t-34.5 90
q0 80 56 126q63 52 191 52l66 1q6 22 6 49q0 72 -87 72q-65 0 -140 -36l-12 67q83 39 166 39q68 0 114 -31.5t46 -105.5q0 -35 -17 -114l-10 -42q-17 -77 -17 -122q0 -31 8 -60l-75 -16q-13 40 -14 81q-66 -85 -155 -85zM150 62q47 0 90.5 38.5t55.5 95.5l7 33h-37
q-107 0 -147 -32q-32 -26 -32 -70q0 -65 63 -65z" />
    <glyph glyph-name="AEacute" unicode="&#x1fc;" horiz-adv-x="780" 
d="M-66 0l470 659h340l-22 -75h-215l-29 -210h212l-11 -75h-211l-30 -224h242l-11 -75h-328l23 173h-207l-122 -173h-101zM210 246h164l42 296h-2q-82 -121 -84 -124zM482 696l76 147h100l-109 -147h-67z" />
    <glyph glyph-name="aeacute" unicode="&#x1fd;" horiz-adv-x="749" 
d="M134 -10q-60 0 -96.5 35.5t-36.5 93.5q0 82 65.5 123.5t182.5 42.5l63 1q7 29 7 55q0 38 -20.5 56t-66.5 18q-64 0 -139 -36l-12 67q83 39 162 39q114 0 140 -80h2q62 80 163 80q77 0 117.5 -42.5t40.5 -112.5q0 -60 -20 -105l-298 -4q-2 -18 -2 -27q0 -62 32.5 -97
t86.5 -35q60 0 128 36l25 -64q-72 -44 -159 -44q-64 0 -108.5 30.5t-60.5 85.5h-2q-33 -56 -84.5 -86t-109.5 -30zM150 62q49 0 92 37t56 101l4 20h-49q-166 -3 -166 -93q0 -65 63 -65zM399 287l214 2q8 21 8 44q0 35 -19.5 58.5t-63.5 23.5q-48 0 -87.5 -37.5t-51.5 -90.5z
M369 531l76 147h100l-109 -147h-67z" />
    <glyph glyph-name="Oslashacute" unicode="&#x1fe;" horiz-adv-x="718" 
d="M314 -10q-100 0 -165 51l-58 -66l-54 46l59 67q-51 70 -51 181q0 104 42.5 193.5t125.5 146t190 56.5q100 0 164 -49l58 65l54 -45l-59 -67q53 -72 53 -182q0 -162 -99.5 -279.5t-259.5 -117.5zM321 66q114 0 186 95t72 228q0 64 -22 107l-353 -392q44 -38 117 -38z
M138 267q0 -63 21 -106l353 391q-43 37 -114 37q-115 0 -187.5 -94.5t-72.5 -227.5zM379 696l76 147h100l-109 -147h-67z" />
    <glyph glyph-name="oslashacute" unicode="&#x1ff;" horiz-adv-x="509" 
d="M254 531l76 147h100l-109 -147h-67zM56 -23l-40 35l40 47q-35 47 -35 117q0 134 75 221.5t182 87.5q67 0 111 -32l37 45l40 -35l-39 -47q35 -47 35 -117q0 -134 -74.5 -221.5t-181.5 -87.5q-67 0 -113 32zM209 62q72 0 119 69.5t47 162.5q0 30 -8 52l-222 -263
q23 -21 64 -21zM109 181q0 -28 6 -52l223 264q-25 20 -63 20q-72 0 -119 -69.5t-47 -162.5z" />
    <glyph glyph-name="Scommaaccent" unicode="&#x218;" horiz-adv-x="471" 
d="M-4 34l36 70q59 -38 131 -38q56 0 95.5 26.5t39.5 84.5q0 33 -15.5 60t-39.5 44.5t-51 38.5t-51 40.5t-39.5 51.5t-15.5 72q0 80 57 130.5t151 50.5q83 0 149 -33l-16 -76q-62 34 -132 34q-51 0 -84 -25t-33 -69q0 -34 22 -61.5t53 -49t62 -46t53 -63.5t22 -89
q0 -96 -64.5 -146.5t-162.5 -50.5q-94 0 -167 44zM54 -237l-20 58q87 21 87 79q0 19 -12 48h80q12 -24 12 -55q0 -104 -147 -130z" />
    <glyph glyph-name="scommaaccent" unicode="&#x219;" horiz-adv-x="360" 
d="M-26 28l29 66q53 -32 111 -32q38 0 64.5 17t26.5 49q0 23 -16 42t-38.5 34.5t-45 33t-38.5 46t-16 64.5q0 59 41.5 98t119.5 39q65 0 119 -21l-14 -71q-55 21 -101 21q-34 0 -55.5 -15.5t-21.5 -46.5q0 -23 16 -42t38.5 -35t45 -33.5t38.5 -46t16 -65.5
q0 -65 -49.5 -102.5t-125.5 -37.5q-82 0 -144 38zM4 -237l-20 58q87 21 87 79q0 19 -12 48h80q12 -24 12 -55q0 -104 -147 -130z" />
    <glyph glyph-name="circumflex" unicode="&#x2c6;" 
d="M46 531l119 147h74l82 -147h-71l-52 94l-77 -94h-75z" />
    <glyph glyph-name="caron" unicode="&#x2c7;" 
d="M147 532l-81 147h71l52 -95l77 95h75l-119 -147h-75z" />
    <glyph glyph-name="breve" unicode="&#x2d8;" 
d="M184 543q-58 0 -88 34t-25 93h62q-2 -68 57 -68q60 0 81 68h65q-13 -60 -53.5 -93.5t-98.5 -33.5z" />
    <glyph glyph-name="dotaccent" unicode="&#x2d9;" 
d="M191 571q-24 0 -38 14t-14 35q0 28 19 45.5t44 17.5q24 0 38 -14t14 -35q0 -27 -19 -45t-44 -18z" />
    <glyph glyph-name="ring" unicode="&#x2da;" 
d="M186 523q-44 0 -70.5 22.5t-26.5 61.5q0 48 33.5 77.5t83.5 29.5q44 0 71 -22.5t27 -60.5q0 -49 -34 -78.5t-84 -29.5zM190 567q24 0 38.5 17.5t14.5 43.5q0 19 -11 30.5t-30 11.5q-23 0 -38 -17.5t-15 -43.5q0 -19 11 -30.5t30 -11.5z" />
    <glyph glyph-name="ogonek" unicode="&#x2db;" 
d="M163 -213q-43 0 -64 20t-21 51q0 87 132 155l79 -13q-136 -62 -136 -125q0 -32 34 -32q16 0 38 8l7 -53q-38 -11 -69 -11z" />
    <glyph glyph-name="tilde" unicode="&#x2dc;" 
d="M33 552q4 53 29 79.5t60 26.5q30 0 68 -23.5t53 -23.5q28 0 34 41h62q-4 -53 -28.5 -79.5t-59.5 -26.5q-30 0 -68.5 23.5t-53.5 23.5q-26 0 -33 -41h-63z" />
    <glyph glyph-name="hungarumlaut" unicode="&#x2dd;" 
d="M66 531l76 147h100l-108 -147h-68zM232 531l77 147h100l-109 -147h-68z" />
    <glyph glyph-name="uni0315" unicode="&#x315;" 
d="M132 513l61 195h88l-82 -195h-67z" />
    <glyph glyph-name="uni0326" unicode="&#x326;" 
d="M120 -237l-20 58q87 21 87 79q0 19 -12 48h80q12 -24 12 -55q0 -104 -147 -130z" />
    <glyph glyph-name="Alphatonos" unicode="&#x386;" horiz-adv-x="606" 
d="M41 473l72 186h91l-90 -186h-73zM-21 0l350 661h70l121 -661h-92l-30 173h-232l-89 -173h-98zM206 246h180l-30 195q-1 9 -4 25.5t-5 31.5l-4 30h-2q-30 -69 -42 -92z" />
    <glyph glyph-name="Epsilontonos" unicode="&#x388;" horiz-adv-x="530" 
d="M15 473l72 186h90l-89 -186h-73zM89 0l140 659h319l-30 -75h-217l-45 -210h214l-17 -75h-213l-47 -224h243l-16 -75h-331z" />
    <glyph glyph-name="Etatonos" unicode="&#x389;" horiz-adv-x="748" 
d="M15 473l72 186h90l-89 -186h-73zM89 0l140 659h88l-61 -286h330l61 286h88l-140 -659h-88l63 297h-330l-63 -297h-88z" />
    <glyph glyph-name="Iotatonos" unicode="&#x38a;" horiz-adv-x="329" 
d="M15 473l72 186h90l-89 -186h-73zM89 0l140 659h88l-140 -659h-88z" />
    <glyph glyph-name="Omicrontonos" unicode="&#x38c;" horiz-adv-x="797" 
d="M15 473l72 186h90l-89 -186h-73zM388 -10q-122 0 -194.5 73t-72.5 205q0 106 43.5 196t127 145.5t190.5 55.5q123 0 195 -72.5t72 -204.5q0 -106 -43.5 -196.5t-127 -146t-190.5 -55.5zM394 66q79 0 140.5 48t91.5 120t30 152q0 96 -46 149.5t-133 53.5
q-79 0 -140.5 -47.5t-92 -119.5t-30.5 -151q0 -96 46 -150.5t134 -54.5z" />
    <glyph glyph-name="Upsilontonos" unicode="&#x38e;" horiz-adv-x="687" 
d="M15 473l72 186h90l-89 -186h-73zM287 0l37 178q11 45 11 88q0 147 -129 393h93q89 -180 101 -306h2q57 130 226 306h108q-144 -148 -222 -256t-101 -221l-39 -182h-87z" />
    <glyph glyph-name="Omegatonos" unicode="&#x38f;" horiz-adv-x="792" 
d="M15 473l72 186h90l-89 -186h-73zM68 0l15 75h65q34 0 76 -7v2q-41 38 -68.5 97.5t-27.5 128.5q0 153 98 261t252 108q127 0 197 -72t70 -183q0 -203 -205 -341v-2q38 8 79 8h58l-15 -75h-244l12 60q222 137 222 342q0 81 -46.5 134t-132.5 53q-109 0 -181.5 -86
t-72.5 -221q0 -64 26.5 -122.5t75.5 -99.5l-12 -60h-241z" />
    <glyph glyph-name="iotadieresistonos" unicode="&#x390;" horiz-adv-x="260" 
d="M126 -6q-45 0 -72 23t-27 64q0 19 5 44l75 348h86l-74 -345q-3 -15 -3 -27q0 -30 33 -30q18 0 39 7v-74q-27 -10 -62 -10zM127 531l58 160h80l-82 -160h-56zM79 557q-18 0 -29 11.5t-11 29.5q0 22 15 37t36 15q18 0 29 -11t11 -29q0 -22 -15 -37.5t-36 -15.5zM288 557
q-18 0 -28.5 11.5t-10.5 29.5q0 22 14.5 37t35.5 15q18 0 29 -11t11 -29q0 -22 -15 -37.5t-36 -15.5z" />
    <glyph glyph-name="Alpha" unicode="&#x391;" horiz-adv-x="585" 
d="M-41 0l350 661h70l120 -661h-92l-30 173h-232l-88 -173h-98zM185 246h180l-30 195q-8 54 -13 87h-2q-33 -76 -41 -92z" />
    <glyph glyph-name="Beta" unicode="&#x392;" horiz-adv-x="538" 
d="M13 0l140 659h148q92 0 136.5 -43t44.5 -107q0 -115 -112 -164v-2q41 -10 71 -43.5t30 -84.5q0 -89 -73.5 -152t-210.5 -63h-174zM180 373h82q63 0 97 38.5t34 86.5q0 39 -24.5 63t-76.5 24h-67zM117 73h87q83 0 130 37.5t47 97.5q0 44 -30 68t-82 24h-105z" />
    <glyph glyph-name="Gamma" unicode="&#x393;" horiz-adv-x="449" 
d="M12 0l141 659h327l-32 -75h-223l-124 -584h-89z" />
    <glyph glyph-name="Epsilon" unicode="&#x395;" horiz-adv-x="454" 
d="M13 0l140 659h319l-30 -75h-217l-44 -210h213l-16 -75h-214l-47 -224h243l-16 -75h-331z" />
    <glyph glyph-name="Zeta" unicode="&#x396;" horiz-adv-x="523" 
d="M-25 0l416 584h-283l-8 75h441l-413 -584h319l-17 -75h-455z" />
    <glyph glyph-name="Eta" unicode="&#x397;" horiz-adv-x="671" 
d="M13 0l140 659h88l-61 -286h330l61 286h88l-140 -659h-88l63 297h-330l-63 -297h-88z" />
    <glyph glyph-name="Theta" unicode="&#x398;" horiz-adv-x="726" 
d="M316 -10q-123 0 -195.5 72t-72.5 204q0 162 101 280.5t261 118.5q123 0 195.5 -71.5t72.5 -203.5q0 -105 -43.5 -195.5t-127.5 -147.5t-191 -57zM322 66q117 0 190 99t73 224q0 95 -46.5 147.5t-133.5 52.5q-118 0 -191 -98.5t-73 -223.5q0 -95 46 -148t135 -53zM210 298
l16 73h287l-16 -73h-287z" />
    <glyph glyph-name="Iota" unicode="&#x399;" horiz-adv-x="253" 
d="M13 0l140 659h88l-140 -659h-88z" />
    <glyph glyph-name="Kappa" unicode="&#x39a;" horiz-adv-x="536" 
d="M13 0l140 659h88l-64 -303h3l287 303h107l-328 -343l220 -316h-106l-196 288h-2l-61 -288h-88z" />
    <glyph glyph-name="Lambda" unicode="&#x39b;" horiz-adv-x="586" 
d="M-42 0l348 662h73l121 -662h-93l-70 430q-9 58 -14 98h-2q-25 -56 -48 -103l-216 -425h-99z" />
    <glyph glyph-name="Mu" unicode="&#x39c;" horiz-adv-x="791" 
d="M13 0l140 659h84l102 -280q6 -17 22 -62t22 -63h2q46 67 73 102l228 303h93l-140 -659h-88l73 342q21 101 39 166h-3q-42 -60 -80 -108l-191 -253h-48l-92 248q-31 88 -39 113h-2q-16 -79 -35 -168l-72 -340h-88z" />
    <glyph glyph-name="Nu" unicode="&#x39d;" horiz-adv-x="706" 
d="M13 0l140 659h83l217 -425q23 -44 44 -93h2q3 19 10 54.5t9 46.5l88 417h89l-141 -659h-73l-224 439q-36 72 -44 92h-2q-5 -33 -17 -95l-93 -436h-88z" />
    <glyph glyph-name="Xi" unicode="&#x39e;" horiz-adv-x="529" 
d="M-21 0l17 75h435l-16 -75h-436zM100 300l17 75h316l-17 -75h-316zM114 584l17 75h414l-32 -75h-399z" />
    <glyph glyph-name="Omicron" unicode="&#x39f;" horiz-adv-x="723" 
d="M315 -10q-123 0 -195 72t-72 204q0 105 43.5 195.5t127 147t190.5 56.5q123 0 195 -71.5t72 -203.5q0 -105 -43.5 -195.5t-127 -147.5t-190.5 -57zM321 66q117 0 189 98.5t72 224.5q0 96 -45.5 148t-132.5 52q-79 0 -140.5 -48.5t-92 -121t-30.5 -152.5q0 -95 46 -148
t134 -53z" />
    <glyph glyph-name="Pi" unicode="&#x3a0;" horiz-adv-x="653" 
d="M13 0l141 659h486l-141 -659h-88l124 584h-310l-124 -584h-88z" />
    <glyph glyph-name="Rho" unicode="&#x3a1;" horiz-adv-x="504" 
d="M13 0l140 659h101q66 0 108 -16q56 -20 87.5 -64t31.5 -105q0 -78 -44.5 -137t-123.5 -82q-56 -17 -125 -17h-37l-50 -238h-88zM167 311h34q51 0 85 14q51 16 78 55t27 92q0 78 -69 103q-28 11 -70 11h-27z" />
    <glyph glyph-name="Sigma" unicode="&#x3a3;" horiz-adv-x="506" 
d="M-37 0l264 356l-120 303h410l-32 -75h-258l93 -238l-204 -271h301l-16 -75h-438z" />
    <glyph glyph-name="Tau" unicode="&#x3a4;" horiz-adv-x="497" 
d="M134 0l124 584h-194l16 75h479l-32 -75h-181l-124 -584h-88z" />
    <glyph glyph-name="Upsilon" unicode="&#x3a5;" horiz-adv-x="572" 
d="M171 0l38 178q11 45 11 88q0 144 -129 393h93q89 -180 101 -306h2q57 130 226 306h108q-144 -148 -222 -256t-101 -221l-39 -182h-88z" />
    <glyph glyph-name="Phi" unicode="&#x3a6;" horiz-adv-x="760" 
d="M258 -20l13 62q-102 10 -165 71t-63 160q0 147 97.5 243t252.5 99l13 59h87l-13 -60q102 -10 165 -71t63 -160q0 -146 -98 -242t-253 -100l-12 -61h-87zM288 120l89 419q-110 -6 -176.5 -80t-66.5 -181q0 -70 39 -110.5t115 -47.5zM374 118q109 5 176 79t67 181
q0 70 -39.5 110t-114.5 48z" />
    <glyph glyph-name="Chi" unicode="&#x3a7;" horiz-adv-x="588" 
d="M-40 0l279 338l-150 321h95l117 -254l208 254h106l-275 -333l153 -326h-94l-121 258l-213 -258h-105z" />
    <glyph glyph-name="Psi" unicode="&#x3a8;" horiz-adv-x="716" 
d="M238 0l46 216q-95 9 -143.5 58t-48.5 150q0 94 41 235h86q-40 -151 -40 -228q0 -70 29.5 -102t92.5 -35l78 365h88l-78 -365q105 4 157.5 86t82.5 279h87q-30 -237 -109 -338.5t-235 -106.5l-45 -214h-89z" />
    <glyph glyph-name="uni03A9" unicode="&#x3a9;" horiz-adv-x="724" 
d="M0 0l15 75h65q34 0 76 -7v2q-41 38 -68.5 97.5t-27.5 128.5q0 153 98 261t252 108q127 0 197 -72t70 -183q0 -203 -205 -341v-2q38 8 79 8h58l-15 -75h-244l12 60q222 137 222 342q0 81 -46.5 134t-132.5 53q-109 0 -181.5 -86t-72.5 -221q0 -64 26.5 -122.5t75.5 -99.5
l-12 -60h-241z" />
    <glyph glyph-name="Iotadieresis" unicode="&#x3aa;" horiz-adv-x="253" 
d="M13 0l140 659h88l-140 -659h-88zM116 704q-19 0 -31 11.5t-12 30.5q0 24 15.5 40t37.5 16q19 0 30.5 -11t11.5 -30q0 -25 -15 -41t-37 -16zM296 704q-19 0 -30.5 11.5t-11.5 30.5q0 24 15 40t37 16q19 0 30.5 -11t11.5 -30q0 -25 -15 -41t-37 -16z" />
    <glyph glyph-name="Upsilondieresis" unicode="&#x3ab;" horiz-adv-x="572" 
d="M171 0l38 178q11 45 11 88q0 144 -129 393h93q89 -180 101 -306h2q57 130 226 306h108q-144 -148 -222 -256t-101 -221l-39 -182h-88zM265 704q-19 0 -31 11.5t-12 30.5q0 24 15.5 40t37.5 16q19 0 30.5 -11t11.5 -30q0 -25 -15 -41t-37 -16zM445 704q-19 0 -30.5 11.5
t-11.5 30.5q0 24 15 40t37 16q19 0 30.5 -11t11.5 -30q0 -25 -15 -41t-37 -16z" />
    <glyph glyph-name="alphatonos" unicode="&#x3ac;" horiz-adv-x="564" 
d="M161 -10q-64 0 -100.5 47.5t-36.5 129.5q0 77 28.5 149.5t82.5 120.5t119 48q117 0 132 -146h2q34 73 72 140l65 -39q-63 -104 -119 -207q0 -84 11.5 -122t47.5 -38q13 0 25 4v-76q-15 -6 -38 -6q-53 0 -77.5 36.5t-26.5 107.5h-2q-30 -64 -77.5 -106.5t-107.5 -42.5z
M179 64q82 0 155 184q-3 39 -6.5 62.5t-11.5 50t-23 38.5t-37 12q-39 0 -72.5 -39.5t-52 -95.5t-18.5 -109q0 -103 66 -103zM320 531h-71l93 167h102z" />
    <glyph glyph-name="epsilontonos" unicode="&#x3ad;" horiz-adv-x="443" 
d="M296 531h-71l93 167h102zM184 -10q-82 0 -129 36.5t-47 94.5q0 49 31 82t82 44v2q-64 24 -64 91q0 65 55 105t141 40q80 0 147 -27l-15 -71q-59 28 -130 28q-48 0 -79 -20t-31 -55q0 -63 108 -63q43 0 62 1l-15 -67q-46 2 -64 2q-63 0 -101 -21t-38 -61q0 -36 27.5 -53.5
t71.5 -17.5q81 0 161 39l17 -63q-86 -46 -190 -46z" />
    <glyph glyph-name="etatonos" unicode="&#x3ae;" horiz-adv-x="527" 
d="M24 0l75 352q5 20 5 31q0 24 -24 24q-15 0 -30 -6v71q32 13 63 13q35 0 55 -18.5t20 -56.5q0 -14 -4 -29h2q33 47 79.5 75.5t96.5 28.5t79.5 -29t29.5 -87q0 -36 -12 -92l-109 -514h-86l108 511q10 50 10 73q0 60 -53 60q-28 0 -61 -18.5t-60 -54.5q-36 -47 -55 -133
l-43 -201h-86zM355 531h-71l93 167h102z" />
    <glyph glyph-name="iotatonos" unicode="&#x3af;" horiz-adv-x="260" 
d="M126 -6q-45 0 -72 23t-27 64q0 19 5 44l75 348h86l-74 -345q-3 -15 -3 -27q0 -30 33 -30q18 0 39 7v-74q-27 -10 -62 -10zM193 531h-71l93 167h102z" />
    <glyph glyph-name="upsilondieresistonos" unicode="&#x3b0;" horiz-adv-x="527" 
d="M210 -10q-76 0 -122 40.5t-46 112.5q0 45 26.5 126.5t26.5 109.5t-26 28q-9 0 -26 -5v71q31 12 60 12q36 0 58.5 -22.5t22.5 -62.5q0 -41 -26.5 -124.5t-26.5 -122.5q0 -90 87 -90q80 0 126 82t46 196q-2 84 -24 132h87q23 -52 25 -138q0 -89 -28 -165.5t-90.5 -128
t-149.5 -51.5zM240 531l58 160h80l-82 -160h-56zM192 557q-18 0 -29 11.5t-11 29.5q0 22 15 37t36 15q18 0 29 -11t11 -29q0 -22 -15 -37.5t-36 -15.5zM401 557q-18 0 -28.5 11.5t-10.5 29.5q0 22 14.5 37t35.5 15q18 0 29 -11t11 -29q0 -22 -15 -37.5t-36 -15.5z" />
    <glyph glyph-name="alpha" unicode="&#x3b1;" horiz-adv-x="564" 
d="M161 -10q-64 0 -100.5 47.5t-36.5 129.5q0 77 28.5 149.5t82.5 120.5t119 48q117 0 132 -146h2q34 73 72 140l65 -39q-63 -104 -119 -207q0 -84 11.5 -122t47.5 -38q13 0 25 4v-76q-15 -6 -38 -6q-53 0 -77.5 36.5t-26.5 107.5h-2q-30 -64 -77.5 -106.5t-107.5 -42.5z
M179 64q82 0 155 184q-3 39 -6.5 62.5t-11.5 50t-23 38.5t-37 12q-39 0 -72.5 -39.5t-52 -95.5t-18.5 -109q0 -103 66 -103z" />
    <glyph glyph-name="beta" unicode="&#x3b2;" horiz-adv-x="513" 
d="M220 -10q-182 0 -182 221q0 74 21.5 158.5t60.5 161t103 127t139 50.5q63 0 100.5 -35t37.5 -94q0 -127 -145 -205v-2q48 -8 72.5 -44t24.5 -91q0 -98 -64 -172.5t-168 -74.5zM227 62q58 0 97 49.5t39 120.5q0 41 -20.5 66.5t-57.5 25.5q-32 0 -153 -43q-5 -30 -5 -70
q0 -75 23.5 -112t76.5 -37zM146 358q265 72 265 216q0 26 -14 43.5t-43 18.5q-63 1 -121.5 -81.5t-86.5 -196.5z" />
    <glyph glyph-name="gamma" unicode="&#x3b3;" horiz-adv-x="514" 
d="M69 -237q16 78 40 167q35 179 35 282q0 198 -93 198q-15 0 -31 -4v74q28 5 49 5q42 0 73.5 -21.5t47.5 -56.5t23 -71.5t7 -75.5q0 -81 -15 -153h2q102 238 242 377l57 -61q-160 -163 -273 -404q-32 -69 -54 -169l-19 -87h-91z" />
    <glyph glyph-name="delta" unicode="&#x3b4;" horiz-adv-x="527" 
d="M221 -10q-93 1 -145 52t-52 136q0 95 56.5 163.5t153.5 94.5v2q-79 69 -79 137q0 60 46 96.5t119 36.5q52 0 108.5 -16t92.5 -35l-29 -70q-89 47 -163 48q-41 1 -63 -16t-22 -47q0 -26 23 -53t55.5 -53t65 -57t55.5 -76.5t23 -99.5q0 -101 -69 -172.5t-176 -70.5zM223 63
q67 -1 110.5 49.5t43.5 123.5q0 48 -21 82t-61 67q-83 -20 -132.5 -75t-49.5 -131q0 -56 29 -85.5t81 -30.5z" />
    <glyph glyph-name="epsilon" unicode="&#x3b5;" horiz-adv-x="443" 
d="M184 -10q-82 0 -129 36.5t-47 94.5q0 49 31 82t82 44v2q-64 24 -64 91q0 65 55 105t141 40q80 0 147 -27l-15 -71q-59 28 -130 28q-48 0 -79 -20t-31 -55q0 -63 108 -63q43 0 62 1l-15 -67q-46 2 -64 2q-63 0 -101 -21t-38 -61q0 -36 27.5 -53.5t71.5 -17.5q81 0 161 39
l17 -63q-86 -46 -190 -46z" />
    <glyph glyph-name="zeta" unicode="&#x3b6;" horiz-adv-x="438" 
d="M268 -183l-62 44q66 61 66 100q0 19 -17.5 33.5t-44.5 23.5t-57.5 23.5t-57.5 31.5t-44.5 50t-17.5 77q0 71 29 140t77.5 124t106 98.5t119.5 73.5v3q-112 -26 -216 -29l-7 73q171 0 332 24v-59q-155 -89 -253 -199t-98 -234q0 -43 25 -71t60.5 -42t70.5 -27.5t60 -36.5
t25 -58q0 -75 -96 -163z" />
    <glyph glyph-name="eta" unicode="&#x3b7;" horiz-adv-x="527" 
d="M24 0l75 352q5 20 5 31q0 24 -24 24q-15 0 -30 -6v71q32 13 63 13q35 0 55 -18.5t20 -56.5q0 -14 -4 -29h2q33 47 79.5 75.5t96.5 28.5t79.5 -29t29.5 -87q0 -36 -12 -92l-109 -514h-86l108 511q10 50 10 73q0 60 -53 60q-28 0 -61 -18.5t-60 -54.5q-36 -47 -55 -133
l-43 -201h-86z" />
    <glyph glyph-name="theta" unicode="&#x3b8;" horiz-adv-x="529" 
d="M184 -10q-74 0 -116 35.5t-42 94.5q0 32 19.5 88.5t19.5 88.5q0 19 -8 47h84q8 -22 8 -47q0 -32 -18 -86t-18 -81q0 -67 79 -67q77 0 125 74.5t69 185.5q-265 42 -265 207q0 77 48.5 127.5t126.5 50.5q95 0 143.5 -69t48.5 -193q0 -72 -16.5 -147t-50.5 -146.5
t-95.5 -117t-141.5 -45.5zM208 536q0 -33 15 -58.5t43 -41t58.5 -25t70.5 -15.5q5 38 5 65q0 77 -26 125.5t-77 48.5q-39 0 -64 -26.5t-25 -72.5z" />
    <glyph glyph-name="iota" unicode="&#x3b9;" horiz-adv-x="260" 
d="M126 -6q-45 0 -72 23t-27 64q0 19 5 44l75 348h86l-74 -345q-3 -15 -3 -27q0 -30 33 -30q18 0 39 7v-74q-27 -10 -62 -10z" />
    <glyph glyph-name="kappa" unicode="&#x3ba;" horiz-adv-x="502" 
d="M2 0l102 473h86l-34 -160q-8 -40 -16 -66l2 -1q58 76 151 137t179 99l35 -71q-139 -61 -240 -142l150 -269h-99l-118 217q-81 -72 -94 -135l-17 -82h-87z" />
    <glyph glyph-name="lambda" unicode="&#x3bb;" horiz-adv-x="490" 
d="M-34 0l273 484q-11 89 -32 119.5t-57 30.5q-26 0 -53 -10l-16 67q41 17 82 17q74 0 110.5 -55.5t51.5 -196.5q16 -154 40 -262t70 -194h-95q-61 123 -83 361h-2l-192 -361h-97z" />
    <glyph glyph-name="uni03BC" unicode="&#x3bc;" horiz-adv-x="544" 
d="M-47 -237l153 710h86l-58 -274q-9 -37 -9 -64q0 -35 18 -52t46 -17q51 0 94 42.5t59 122.5l53 242h86l-70 -328q-6 -30 -6 -45q0 -28 30 -28q17 0 32 6v-74q-27 -10 -56 -10q-73 0 -77 69q0 17 1 23h-2q-62 -96 -155 -96q-59 0 -82 44h-2q-8 -59 -22 -126l-32 -145h-87z
" />
    <glyph glyph-name="nu" unicode="&#x3bd;" horiz-adv-x="471" 
d="M115 -3l-81 476h87l59 -376h2q79 75 120 151.5t41 167.5q0 32 -4 57h90q4 -23 4 -51q0 -122 -63.5 -219t-193.5 -206h-61z" />
    <glyph glyph-name="xi" unicode="&#x3be;" horiz-adv-x="432" 
d="M198 -139q66 61 66 95q0 22 -24 37t-59 26.5t-69.5 26.5t-58.5 46.5t-24 78.5q0 64 43 111.5t110 63.5v2q-68 26 -68 94q0 117 200 191v3q-109 -21 -184 -22l-6 72q170 0 338 19v-54q-126 -45 -191 -92t-65 -107q0 -73 117 -73q15 0 51 2l-13 -70q-17 2 -46 2
q-79 0 -137.5 -31.5t-58.5 -93.5q0 -35 24.5 -57.5t59.5 -34.5t69.5 -24t59 -35t24.5 -59q0 -76 -96 -161z" />
    <glyph glyph-name="omicron" unicode="&#x3bf;" horiz-adv-x="514" 
d="M209 -10q-89 0 -137 52t-48 134q0 134 75 221.5t182 87.5q89 0 136.5 -52t47.5 -134q0 -134 -74.5 -221.5t-181.5 -87.5zM212 63q72 0 118 69t46 162q0 118 -98 118q-72 0 -118.5 -69t-46.5 -162q0 -118 99 -118z" />
    <glyph glyph-name="pi" unicode="&#x3c0;" horiz-adv-x="571" 
d="M38 0l86 402h-82l16 71h515l-29 -71h-85l-59 -281q-4 -13 -4 -25q0 -24 27 -24q12 0 30 5v-74q-29 -9 -63 -9q-84 0 -84 75q0 21 8 58l58 275h-161l-86 -402h-87z" />
    <glyph glyph-name="rho" unicode="&#x3c1;" horiz-adv-x="521" 
d="M-48 -237l106 505q24 111 78.5 164t144.5 53q85 0 137.5 -52t52.5 -146q0 -121 -71 -209t-183 -88q-75 0 -121 36h-2l-56 -263h-86zM213 64q78 0 123.5 66.5t45.5 159.5q0 61 -28 91t-75 30q-58 0 -89.5 -42t-48.5 -123l-31 -146q42 -36 103 -36z" />
    <glyph glyph-name="sigmafinal" unicode="&#x3c2;" horiz-adv-x="416" 
d="M159 -138q2 3 10.5 11.5t11.5 12t10 11.5t10 12.5l8 12t7 13t4 12.5t2 13q0 26 -20.5 45.5t-49.5 35.5t-58 36t-49.5 57t-20.5 87q0 112 72 188.5t179 75.5q73 0 124 -24l-16 -73q-48 24 -105 24q-76 0 -120.5 -55t-44.5 -131q0 -40 20.5 -68.5t50 -45.5t58.5 -33.5
t49.5 -42.5t20.5 -63q0 -70 -92 -156z" />
    <glyph glyph-name="sigma" unicode="&#x3c3;" horiz-adv-x="549" 
d="M207 -10q-82 0 -132.5 50t-50.5 137q0 132 78.5 214t198.5 82h276l-29 -73h-66q-32 0 -72 4v-2q41 -64 41 -144q0 -105 -66.5 -186.5t-177.5 -81.5zM214 63q68 0 108.5 63.5t40.5 148.5q0 72 -38 125h-11q-94 0 -147.5 -63t-53.5 -156q0 -57 26 -87.5t75 -30.5z" />
    <glyph glyph-name="tau" unicode="&#x3c4;" horiz-adv-x="427" 
d="M211 -10q-56 0 -84.5 25.5t-28.5 69.5q0 21 8 58l55 259h-130l15 71h400l-28 -71h-170l-57 -268q-4 -16 -4 -30q0 -41 45 -41q41 0 81 23l22 -64q-56 -32 -124 -32z" />
    <glyph glyph-name="upsilon" unicode="&#x3c5;" horiz-adv-x="527" 
d="M210 -10q-76 0 -122 40.5t-46 112.5q0 45 26.5 126.5t26.5 109.5t-26 28q-9 0 -26 -5v71q31 12 60 12q36 0 58.5 -22.5t22.5 -62.5q0 -41 -26.5 -124.5t-26.5 -122.5q0 -90 87 -90q80 0 126 82t46 196q-2 84 -24 132h87q23 -52 25 -138q0 -89 -28 -165.5t-90.5 -128
t-149.5 -51.5z" />
    <glyph glyph-name="phi" unicode="&#x3c6;" horiz-adv-x="661" 
d="M162 -237l50 230q-92 13 -140 63.5t-48 134.5q0 87 39 164t99 126l84 -18q-134 -120 -134 -264q0 -121 115 -134l56 265q34 155 161 155q79 0 123 -50.5t44 -126.5q0 -132 -86.5 -222.5t-228.5 -94.5l-48 -228h-86zM312 63q91 3 151 72t60 177q0 44 -20.5 72t-55.5 28
q-61 0 -79 -89z" />
    <glyph glyph-name="chi" unicode="&#x3c7;" horiz-adv-x="471" 
d="M-115 -237l265 382q-5 58 -9 90.5t-9 67t-10.5 50.5t-13.5 31t-18.5 19.5t-24.5 4.5q-10 0 -26 -4v71q21 8 48 8q63 0 90.5 -57.5t39.5 -205.5h2l168 253h93l-246 -360q16 -175 30 -226.5t55 -51.5q15 0 26 3v-71q-21 -8 -47 -8q-65 0 -92 61t-39 218h-2l-186 -275h-94z
" />
    <glyph glyph-name="psi" unicode="&#x3c8;" horiz-adv-x="684" 
d="M177 -237l48 228q-93 6 -143.5 51.5t-50.5 119.5q0 50 28 131t28 130q0 22 -7 50h86q8 -26 8 -58q0 -46 -27 -122.5t-27 -120.5q0 -103 120 -110l139 646h86l-138 -646q106 9 162.5 89.5t56.5 190.5q0 80 -27 131h87q28 -54 28 -142q0 -63 -20 -121t-58 -106.5
t-101.5 -78.5t-143.5 -34l-48 -228h-86z" />
    <glyph glyph-name="omega" unicode="&#x3c9;" horiz-adv-x="741" 
d="M171 -10q-70 0 -108.5 47t-38.5 125q0 93 46 177.5t120 140.5l85 -16q-164 -139 -164 -297q0 -46 19 -74t58 -28q65 0 101 79.5t42 206.5h94q-27 -78 -27 -165q0 -121 82 -121q58 0 91 56t33 133q0 111 -75 210l86 16q76 -93 76 -224q0 -112 -56 -189t-154 -77
q-61 0 -96.5 37t-40.5 98h-2q-21 -61 -66.5 -98t-104.5 -37z" />
    <glyph glyph-name="iotadieresis" unicode="&#x3ca;" horiz-adv-x="260" 
d="M126 -6q-45 0 -72 23t-27 64q0 19 5 44l75 348h86l-74 -345q-3 -15 -3 -27q0 -30 33 -30q18 0 39 7v-74q-27 -10 -62 -10zM80 555q-19 0 -30.5 11.5t-11.5 30.5q0 25 15 41t37 16q19 0 30.5 -11.5t11.5 -30.5q0 -25 -15 -41t-37 -16zM260 555q-19 0 -30.5 11.5
t-11.5 30.5q0 25 15 41t37 16q19 0 31 -11.5t12 -30.5q0 -24 -15.5 -40.5t-37.5 -16.5z" />
    <glyph glyph-name="upsilondieresis" unicode="&#x3cb;" horiz-adv-x="527" 
d="M210 -10q-76 0 -122 40.5t-46 112.5q0 45 26.5 126.5t26.5 109.5t-26 28q-9 0 -26 -5v71q31 12 60 12q36 0 58.5 -22.5t22.5 -62.5q0 -41 -26.5 -124.5t-26.5 -122.5q0 -90 87 -90q80 0 126 82t46 196q-2 84 -24 132h87q23 -52 25 -138q0 -89 -28 -165.5t-90.5 -128
t-149.5 -51.5zM196 555q-19 0 -30.5 11.5t-11.5 30.5q0 25 15 41t37 16q19 0 30.5 -11.5t11.5 -30.5q0 -25 -15 -41t-37 -16zM376 555q-19 0 -30.5 11.5t-11.5 30.5q0 25 15 41t37 16q19 0 31 -11.5t12 -30.5q0 -24 -15.5 -40.5t-37.5 -16.5z" />
    <glyph glyph-name="omicrontonos" unicode="&#x3cc;" horiz-adv-x="514" 
d="M209 -10q-89 0 -137 52t-48 134q0 134 75 221.5t182 87.5q89 0 136.5 -52t47.5 -134q0 -134 -74.5 -221.5t-181.5 -87.5zM212 63q72 0 118 69t46 162q0 118 -98 118q-72 0 -118.5 -69t-46.5 -162q0 -118 99 -118zM332 531h-71l93 167h102z" />
    <glyph glyph-name="upsilontonos" unicode="&#x3cd;" horiz-adv-x="527" 
d="M306 531h-71l93 167h102zM210 -10q-76 0 -122 40.5t-46 112.5q0 45 26.5 126.5t26.5 109.5t-26 28q-9 0 -26 -5v71q31 12 60 12q36 0 58.5 -22.5t22.5 -62.5q0 -41 -26.5 -124.5t-26.5 -122.5q0 -90 87 -90q80 0 126 82t46 196q-2 84 -24 132h87q23 -52 25 -138
q0 -89 -28 -165.5t-90.5 -128t-149.5 -51.5z" />
    <glyph glyph-name="omegatonos" unicode="&#x3ce;" horiz-adv-x="741" 
d="M171 -10q-70 0 -108.5 47t-38.5 125q0 93 46 177.5t120 140.5l85 -16q-164 -139 -164 -297q0 -46 19 -74t58 -28q65 0 101 79.5t42 206.5h94q-27 -78 -27 -165q0 -121 82 -121q58 0 91 56t33 133q0 111 -75 210l86 16q76 -93 76 -224q0 -112 -56 -189t-154 -77
q-61 0 -96.5 37t-40.5 98h-2q-21 -61 -66.5 -98t-104.5 -37zM441 531h-71l93 167h102z" />
    <glyph glyph-name="uni0400" unicode="&#x400;" horiz-adv-x="454" 
d="M13 0l140 659h319l-30 -75h-217l-44 -210h213l-16 -75h-214l-47 -224h243l-16 -75h-331zM293 696l-81 147h100l49 -147h-68z" />
    <glyph glyph-name="afii10023" unicode="&#x401;" horiz-adv-x="464" 
d="M13 0l140 659h319l-30 -75h-217l-44 -210h213l-16 -75h-214l-47 -224h243l-16 -75h-331zM229 704q-19 0 -31 11.5t-12 30.5q0 24 15.5 40t37.5 16q19 0 30.5 -11t11.5 -30q0 -25 -15 -41t-37 -16zM409 704q-19 0 -30.5 11.5t-11.5 30.5q0 24 15 40t37 16q19 0 30.5 -11
t11.5 -30q0 -25 -15 -41t-37 -16z" />
    <glyph glyph-name="afii10051" unicode="&#x402;" horiz-adv-x="710" 
d="M132 0l124 586h-193l16 73h505l-28 -73h-212l-43 -204q36 6 74 6q114 0 177.5 -49.5t63.5 -136.5q0 -91 -55.5 -149.5t-149.5 -58.5q-53 0 -91 17l27 69q25 -11 58 -11q55 0 88.5 34t33.5 96q0 114 -161 114q-36 0 -81 -8l-65 -305h-88z" />
    <glyph glyph-name="afii10052" unicode="&#x403;" horiz-adv-x="448" 
d="M12 0l141 659h327l-32 -75h-223l-124 -584h-89zM281 696l76 147h100l-109 -147h-67z" />
    <glyph glyph-name="afii10053" unicode="&#x404;" horiz-adv-x="594" 
d="M319 -10q-130 0 -200.5 72.5t-70.5 199.5q0 176 104.5 289.5t270.5 113.5q93 0 168 -35l-17 -75q-72 35 -150 35q-103 0 -175.5 -60t-97.5 -158h321l-15 -72h-317q-2 -24 -2 -36q0 -87 46.5 -143t140.5 -56q86 0 166 42l18 -73q-86 -44 -190 -44z" />
    <glyph glyph-name="afii10054" unicode="&#x405;" horiz-adv-x="472" 
d="M-1 34l36 70q59 -38 131 -38q56 0 95.5 26.5t39.5 84.5q0 33 -15.5 60t-39.5 44.5t-51 38.5t-51 40.5t-39.5 51.5t-15.5 72q0 80 57 130.5t151 50.5q83 0 149 -33l-16 -76q-62 34 -132 34q-51 0 -84 -25t-33 -69q0 -34 22 -61.5t53 -49t62 -46t53 -63.5t22 -89
q0 -96 -64.5 -146.5t-162.5 -50.5q-94 0 -167 44z" />
    <glyph glyph-name="afii10055" unicode="&#x406;" horiz-adv-x="253" 
d="M13 0l140 659h88l-140 -659h-88z" />
    <glyph glyph-name="afii10056" unicode="&#x407;" horiz-adv-x="253" 
d="M13 0l140 659h88l-140 -659h-88zM116 704q-19 0 -31 11.5t-12 30.5q0 24 15.5 40t37.5 16q19 0 30.5 -11t11.5 -30q0 -25 -15 -41t-37 -16zM296 704q-19 0 -30.5 11.5t-11.5 30.5q0 24 15 40t37 16q19 0 30.5 -11t11.5 -30q0 -25 -15 -41t-37 -16z" />
    <glyph glyph-name="afii10057" unicode="&#x408;" horiz-adv-x="294" 
d="M-140 -166l27 71q25 -12 63 -12q57 0 82 45q17 33 25 78l137 643h88l-139 -652q-15 -74 -39 -115q-47 -75 -154 -75q-51 0 -90 17z" />
    <glyph glyph-name="afii10058" unicode="&#x409;" horiz-adv-x="869" 
d="M-52 -1l19 80q14 -2 18 -2q46 0 88 52q45 56 93 184t112 346h300l-56 -261h36q96 0 146 -24q86 -44 86 -140q0 -111 -73.5 -172.5t-208.5 -61.5h-158l125 586h-133q-119 -408 -205 -516q-60 -76 -150 -76q-19 0 -39 5zM454 74h61q87 0 136.5 39t49.5 117q0 56 -45 78
q-31 17 -99 17h-50z" />
    <glyph glyph-name="afii10059" unicode="&#x40a;" horiz-adv-x="939" 
d="M12 0l141 659h88l-61 -286h313l61 286h88l-56 -261h42q96 0 146 -24q86 -44 86 -140q0 -111 -73.5 -172.5t-208.5 -61.5h-165l63 297h-313l-63 -297h-88zM517 74h69q86 0 135.5 39t49.5 117q0 56 -45 78q-31 17 -98 17h-57z" />
    <glyph glyph-name="afii10060" unicode="&#x40b;" horiz-adv-x="728" 
d="M133 0l125 586h-194l16 73h501l-29 -73h-206l-43 -202q57 10 111 10q100 0 154.5 -43t54.5 -121q0 -25 -10 -77l-33 -153h-87l31 141q11 52 11 79q0 99 -136 99q-51 0 -113 -13l-65 -306h-88z" />
    <glyph glyph-name="afii10061" unicode="&#x40c;" horiz-adv-x="582" 
d="M320 696l76 147h100l-109 -147h-67zM12 0l141 659h88l-62 -292h75q39 0 68 39.5t59 106t55 97.5q43 55 111 55q29 0 54 -9l-16 -78q-17 6 -32 6q-31 0 -57 -33q-16 -21 -41 -73.5t-51.5 -92t-59.5 -51.5v-2q21 -8 34.5 -29.5t26.5 -61.5l79 -241h-97l-68 227
q-20 67 -49 67h-107l-63 -294h-88z" />
    <glyph glyph-name="uni040D" unicode="&#x40d;" horiz-adv-x="700" 
d="M12 0l141 659h88l-88 -412q-11 -55 -23 -100h2q35 44 116 130l353 382h87l-140 -659h-89l90 421q3 15 7 32t8.5 36t6.5 27h-2q-25 -32 -111 -123l-364 -393h-82zM386 696l-81 147h100l49 -147h-68z" />
    <glyph glyph-name="afii10062" unicode="&#x40e;" horiz-adv-x="528" 
d="M23 2l18 74q18 -6 36 -6q36 0 65.5 27.5t68.5 93.5l-126 468h93l92 -374h2l221 374h97l-310 -509q-51 -85 -96 -121t-102 -36q-34 0 -59 9zM194 828l71 16q9 -81 72 -81q69 0 122 99l63 -30q-36 -69 -81 -102.5t-108 -33.5q-59 0 -95.5 33.5t-43.5 98.5z" />
    <glyph glyph-name="afii10145" unicode="&#x40f;" horiz-adv-x="645" 
d="M12 0l141 659h88l-124 -582h304l123 582h88l-141 -659h-193l-39 -184h-84l39 184h-202z" />
    <glyph glyph-name="afii10017" unicode="&#x410;" horiz-adv-x="585" 
d="M-41 0l350 661h70l120 -661h-92l-30 173h-232l-88 -173h-98zM185 246h180l-30 195q-8 54 -13 87h-2q-33 -76 -41 -92z" />
    <glyph glyph-name="afii10018" unicode="&#x411;" horiz-adv-x="549" 
d="M12 0l141 659h354l-29 -73h-253l-41 -193h53q97 0 149 -26q82 -42 82 -138q0 -106 -74 -167.5t-208 -61.5h-174zM116 74h77q90 0 138 40.5t48 111.5q0 54 -41 75q-30 18 -103 18h-67z" />
    <glyph glyph-name="afii10019" unicode="&#x412;" horiz-adv-x="542" 
d="M13 0l140 659h148q92 0 136.5 -43t44.5 -107q0 -115 -112 -164v-2q41 -10 71 -43.5t30 -84.5q0 -89 -73.5 -152t-210.5 -63h-174zM180 373h82q63 0 97 38.5t34 86.5q0 39 -24.5 63t-76.5 24h-67zM117 73h87q83 0 130 37.5t47 97.5q0 44 -30 68t-82 24h-105z" />
    <glyph glyph-name="afii10020" unicode="&#x413;" horiz-adv-x="429" 
d="M12 0l141 659h327l-32 -75h-223l-124 -584h-89z" />
    <glyph glyph-name="afii10021" unicode="&#x414;" horiz-adv-x="636" 
d="M-82 -184l55 259h32q93 95 160 236.5t125 347.5h307l-124 -584h80l-55 -259h-88l39 184h-404l-39 -184h-88zM385 75l109 511h-142q-100 -354 -241 -509v-2h274z" />
    <glyph glyph-name="afii10022" unicode="&#x415;" horiz-adv-x="464" 
d="M13 0l140 659h319l-30 -75h-217l-44 -210h213l-16 -75h-214l-47 -224h243l-16 -75h-331z" />
    <glyph glyph-name="afii10024" unicode="&#x416;" horiz-adv-x="883" 
d="M-29 0l151 247q52 83 101 94v2q-25 23 -37 110.5t-23 107.5q-12 23 -39 23q-16 0 -33 -6l17 79q24 8 48 8q53 0 78 -44q15 -27 23 -75t11 -85.5t17 -66.5t42 -29h67l63 294h86l-62 -294h71q39 0 67.5 39.5t58.5 106t54 97.5q44 57 112 57q32 0 53 -9l-16 -77q-15 5 -32 5
q-31 0 -57 -33q-17 -21 -41 -72.5t-50 -91t-57 -52.5v-2q36 -13 60 -92l77 -241h-95l-66 227q-19 66 -54 66h-100l-62 -293h-86l62 293h-91q-43 0 -85 -69l-134 -224h-99z" />
    <glyph glyph-name="afii10025" unicode="&#x417;" horiz-adv-x="526" 
d="M192 -10q-106 0 -179 41l17 76q67 -41 157 -41q68 0 112.5 31t44.5 100q0 103 -151 103q-34 0 -54 -1l16 74q19 -2 51 -2q175 0 175 124q0 44 -32.5 69t-89.5 25q-71 0 -145 -34l-17 68q86 42 175 42q92 0 146 -45t54 -116q0 -61 -35 -106.5t-104 -63.5v-2
q103 -34 103 -143q0 -89 -64 -144t-180 -55z" />
    <glyph glyph-name="afii10026" unicode="&#x418;" horiz-adv-x="700" 
d="M12 0l141 659h88l-88 -412q-11 -55 -23 -100h2q35 44 116 130l353 382h87l-140 -659h-89l90 421q3 15 7 32t8.5 36t6.5 27h-2q-25 -32 -111 -123l-364 -393h-82z" />
    <glyph glyph-name="afii10027" unicode="&#x419;" horiz-adv-x="700" 
d="M12 0l141 659h88l-88 -412q-11 -55 -23 -100h2q35 44 116 130l353 382h87l-140 -659h-89l90 421q3 15 7 32t8.5 36t6.5 27h-2q-25 -32 -111 -123l-364 -393h-82zM278 828l71 16q9 -81 72 -81q69 0 122 99l63 -30q-36 -69 -81 -102.5t-108 -33.5q-59 0 -95.5 33.5
t-43.5 98.5z" />
    <glyph glyph-name="afii10028" unicode="&#x41a;" horiz-adv-x="587" 
d="M12 0l141 659h88l-62 -292h75q39 0 68 39.5t59 106t55 97.5q43 55 111 55q29 0 54 -9l-16 -78q-17 6 -32 6q-31 0 -57 -33q-16 -21 -41 -73.5t-51.5 -92t-59.5 -51.5v-2q21 -8 34.5 -29.5t26.5 -61.5l79 -241h-97l-68 227q-20 67 -49 67h-107l-63 -294h-88z" />
    <glyph glyph-name="afii10029" unicode="&#x41b;" horiz-adv-x="598" 
d="M-52 -1l19 80q14 -2 18 -2q46 0 88 52q45 56 93 184t112 346h308l-140 -659h-89l126 586h-141q-119 -408 -205 -516q-60 -76 -150 -76q-19 0 -39 5z" />
    <glyph glyph-name="afii10030" unicode="&#x41c;" horiz-adv-x="791" 
d="M13 0l140 659h84l102 -280q6 -17 22 -62t22 -63h2q46 67 73 102l228 303h93l-140 -659h-88l73 342q21 101 39 166h-3q-42 -60 -80 -108l-191 -253h-48l-92 248q-31 88 -39 113h-2q-16 -79 -35 -168l-72 -340h-88z" />
    <glyph glyph-name="afii10031" unicode="&#x41d;" horiz-adv-x="671" 
d="M13 0l140 659h88l-61 -286h330l61 286h88l-140 -659h-88l63 297h-330l-63 -297h-88z" />
    <glyph glyph-name="afii10032" unicode="&#x41e;" horiz-adv-x="723" 
d="M315 -10q-123 0 -195 72t-72 204q0 105 43.5 195.5t127 147t190.5 56.5q123 0 195 -71.5t72 -203.5q0 -105 -43.5 -195.5t-127 -147.5t-190.5 -57zM321 66q117 0 189 98.5t72 224.5q0 96 -45.5 148t-132.5 52q-79 0 -140.5 -48.5t-92 -121t-30.5 -152.5q0 -95 46 -148
t134 -53z" />
    <glyph glyph-name="afii10033" unicode="&#x41f;" horiz-adv-x="651" 
d="M12 0l141 659h486l-141 -659h-88l124 584h-310l-124 -584h-88z" />
    <glyph glyph-name="afii10034" unicode="&#x420;" horiz-adv-x="504" 
d="M13 0l140 659h101q66 0 108 -16q56 -20 87.5 -64t31.5 -105q0 -78 -44.5 -137t-123.5 -82q-56 -17 -125 -17h-37l-50 -238h-88zM167 311h34q51 0 85 14q51 16 78 55t27 92q0 78 -69 103q-28 11 -70 11h-27z" />
    <glyph glyph-name="afii10035" unicode="&#x421;" horiz-adv-x="590" 
d="M324 -10q-126 0 -201 72.5t-75 200.5q0 174 108.5 288t273.5 114q89 0 164 -35l-18 -76q-70 35 -145 35q-128 0 -209 -92.5t-81 -224.5q0 -93 50 -149.5t140 -56.5q82 0 163 41l17 -73q-85 -44 -187 -44z" />
    <glyph glyph-name="afii10036" unicode="&#x422;" horiz-adv-x="492" 
d="M131 0l124 584h-194l16 75h479l-32 -75h-181l-124 -584h-88z" />
    <glyph glyph-name="afii10037" unicode="&#x423;" horiz-adv-x="528" 
d="M20 2l18 74q18 -6 36 -6q36 0 65.5 27.5t68.5 93.5l-126 468h93l92 -374h2l221 374h97l-310 -509q-51 -85 -96 -121t-102 -36q-33 0 -59 9z" />
    <glyph glyph-name="afii10038" unicode="&#x424;" horiz-adv-x="733" 
d="M246 -18l20 94q-107 11 -163 63t-56 141q0 132 85 219t244 92l18 83h88l-18 -86q108 -11 165 -63.5t57 -141.5q0 -133 -86 -220t-247 -91l-19 -90h-88zM370 148q103 4 165 66t62 164q0 124 -149 136zM282 149l78 366q-102 -5 -162.5 -67t-60.5 -162q0 -122 145 -137z" />
    <glyph glyph-name="afii10039" unicode="&#x425;" horiz-adv-x="588" 
d="M-40 0l279 338l-150 321h95l117 -254l208 254h106l-275 -333l153 -326h-94l-121 258l-213 -258h-105z" />
    <glyph glyph-name="afii10040" unicode="&#x426;" horiz-adv-x="660" 
d="M12 0l141 659h88l-125 -584h293l124 584h88l-124 -584h81l-56 -259h-86l39 184h-463z" />
    <glyph glyph-name="afii10041" unicode="&#x427;" horiz-adv-x="600" 
d="M360 0l58 275q-55 -10 -112 -10q-100 0 -154.5 43t-54.5 121q0 25 10 77l33 153h87l-31 -141q-11 -52 -11 -79q0 -99 136 -99q52 0 114 13l65 306h88l-140 -659h-88z" />
    <glyph glyph-name="afii10042" unicode="&#x428;" horiz-adv-x="846" 
d="M12 0l141 659h88l-125 -584h209l124 584h89l-125 -584h208l124 584h89l-141 -659h-681z" />
    <glyph glyph-name="afii10043" unicode="&#x429;" horiz-adv-x="866" 
d="M12 0l141 659h88l-125 -584h205l125 584h88l-125 -584h206l124 584h88l-124 -584h81l-55 -259h-87l39 184h-669z" />
    <glyph glyph-name="afii10044" unicode="&#x42a;" horiz-adv-x="679" 
d="M153 0l124 586h-193l-8 73h305l-55 -261h42q96 0 146 -24q86 -44 86 -140q0 -111 -73.5 -172.5t-208.5 -61.5h-165zM257 74h68q87 0 136.5 39t49.5 117q0 55 -45 78q-31 17 -99 17h-57z" />
    <glyph glyph-name="afii10045" unicode="&#x42b;" horiz-adv-x="729" 
d="M12 0l141 659h88l-56 -261h35q98 0 146 -24q87 -44 87 -140q0 -111 -74 -172.5t-209 -61.5h-158zM116 74h62q87 0 136.5 39t49.5 117q0 55 -45 78q-31 17 -99 17h-50zM488 0l140 659h88l-140 -659h-88z" />
    <glyph glyph-name="afii10046" unicode="&#x42c;" horiz-adv-x="547" 
d="M12 0l141 659h88l-56 -261h51q96 0 146 -24q86 -44 86 -140q0 -111 -73.5 -172.5t-208.5 -61.5h-174zM116 74h77q87 0 136.5 39t49.5 117q0 55 -45 78q-31 17 -99 17h-65z" />
    <glyph glyph-name="afii10047" unicode="&#x42d;" horiz-adv-x="588" 
d="M10 31l16 76q69 -42 165 -42q105 0 171 63.5t81 171.5h-305l15 72h296q3 98 -50.5 158t-147.5 60q-67 0 -141 -31l-17 67q80 39 171 39q131 0 203.5 -80.5t72.5 -209.5q0 -170 -93.5 -277.5t-256.5 -107.5q-109 0 -180 41z" />
    <glyph glyph-name="afii10048" unicode="&#x42e;" horiz-adv-x="949" 
d="M12 0l141 659h88l-60 -284h134q31 127 119 208.5t214 81.5q114 0 183.5 -70.5t69.5 -196.5q0 -168 -96 -288t-251 -120q-115 0 -184 70t-69 197q0 14 2 42h-139l-64 -299h-88zM560 66q114 0 180.5 99t66.5 228q0 92 -43 144t-122 52q-77 0 -135 -49.5t-85.5 -122.5
t-27.5 -155q0 -92 43.5 -144t122.5 -52z" />
    <glyph glyph-name="afii10049" unicode="&#x42f;" horiz-adv-x="554" 
d="M-34 0l142 226q41 64 80 83v2q-39 21 -61.5 57t-22.5 81q0 96 68 153t169 57h200l-140 -659h-88l58 273h-96q-42 0 -86 -71l-124 -202h-99zM307 346h79l51 240h-82q-71 1 -115 -36t-44 -103q0 -47 31.5 -74t79.5 -27z" />
    <glyph glyph-name="afii10065" unicode="&#x430;" horiz-adv-x="474" 
d="M130 -10q-57 0 -91.5 35t-34.5 90q0 80 56 126q63 52 191 52l66 1q6 22 6 49q0 72 -87 72q-65 0 -140 -36l-12 67q83 39 166 39q68 0 114 -31.5t46 -105.5q0 -35 -17 -114l-10 -42q-17 -77 -17 -122q0 -31 8 -60l-75 -16q-13 40 -14 81q-66 -85 -155 -85zM153 62
q47 0 90.5 38.5t55.5 95.5l7 33h-37q-107 0 -147 -32q-32 -26 -32 -70q0 -65 63 -65z" />
    <glyph glyph-name="afii10066" unicode="&#x431;" horiz-adv-x="508" 
d="M216 -10q-84 0 -133 55t-49 158q0 98 35.5 211.5t87.5 166.5q11 11 21 19.5t24 17t23.5 14t29.5 13t31 11t39 11.5t42 11.5t52 13.5t58 15l20 -77q-23 -6 -59 -16t-52.5 -14.5t-42 -12t-38 -12t-30 -11t-27 -12t-19.5 -13t-18 -15.5q-53 -53 -83 -170h2q30 48 75 73
t92 25q76 0 117.5 -50.5t41.5 -126.5q0 -113 -68 -199t-172 -86zM220 63q67 0 107 61.5t40 145.5q0 48 -22 79.5t-66 31.5q-67 0 -113 -61.5t-46 -140.5q0 -57 27.5 -86.5t72.5 -29.5z" />
    <glyph glyph-name="afii10067" unicode="&#x432;" horiz-adv-x="482" 
d="M11 24l93 436q69 25 153 25q91 0 134.5 -34.5t43.5 -86.5q-1 -49 -34 -80.5t-87 -41.5v-2q88 -21 88 -95q0 -68 -56 -111.5t-166 -43.5q-95 0 -169 34zM107 69q32 -13 80 -13q62 0 94.5 24.5t32.5 63.5q0 65 -107 65h-71zM149 271h55q70 0 106 22.5t37 61.5
q1 31 -23 47.5t-73 16.5q-38 0 -73 -11z" />
    <glyph glyph-name="afii10068" unicode="&#x433;" horiz-adv-x="403" 
d="M168 -10q-73 0 -117 34t-44 93q0 48 28 81.5t68 50.5t80 31t68 33.5t28 48.5q0 52 -76 52q-49 0 -110 -22l-19 66q68 27 137 27q75 0 115 -33t40 -88q0 -46 -28 -78t-68 -49t-80 -31t-68 -34t-28 -49t21 -45t59 -16q63 0 117 30l27 -64q-68 -38 -150 -38z" />
    <glyph glyph-name="afii10069" unicode="&#x434;" horiz-adv-x="507" 
d="M198 -10q-82 0 -128 51.5t-46 136.5q0 115 68.5 194.5t169.5 79.5q64 0 117 -29h2q-6 209 -156 209q-44 0 -90 -16l-19 71q52 21 112 21q120 0 178.5 -82.5t58.5 -219.5q0 -110 -27 -201.5t-89.5 -153t-150.5 -61.5zM203 63q74 0 119 81.5t55 202.5q-49 34 -104 34
q-73 0 -116.5 -61.5t-43.5 -141.5q0 -115 90 -115z" />
    <glyph glyph-name="afii10070" unicode="&#x435;" horiz-adv-x="474" 
d="M221 -10q-89 0 -143 54t-54 148q0 125 70.5 209t177.5 84q77 0 118 -42.5t41 -112.5q0 -50 -21 -110l-298 -4q-1 -8 -1 -24q0 -61 32.5 -95.5t85.5 -34.5q59 0 129 36l24 -64q-72 -44 -161 -44zM123 281l214 3q8 27 8 49q0 35 -19 58.5t-62 23.5q-50 0 -89.5 -39
t-51.5 -95z" />
    <glyph glyph-name="afii10072" unicode="&#x436;" horiz-adv-x="725" 
d="M-36 1l21 73q10 -5 24 -5q20 0 37 20q8 10 31.5 50.5t48.5 69.5t52 37v2q-24 18 -38 69l-42 156h88l34 -142q14 -56 45 -56h53l41 198h84l-41 -198h55q30 0 52 27.5t44.5 74.5t39.5 68q32 38 83 38q26 0 48 -8l-17 -73q-10 5 -23 5q-20 0 -36 -19q-9 -12 -28.5 -48
t-40.5 -62.5t-47 -36.5v-2q28 -19 44 -74l48 -165h-88l-39 150q-16 57 -39 57h-68l-44 -207h-84l43 207h-62q-24 0 -47.5 -30t-51 -78t-48.5 -70q-33 -36 -86 -36q-28 0 -46 8z" />
    <glyph glyph-name="afii10073" unicode="&#x437;" horiz-adv-x="415" 
d="M138 -10q-83 0 -147 36l16 66q58 -33 126 -33q49 0 83 20t34 64q0 70 -118 70q-24 0 -47 -2l14 67q22 -1 57 -1q62 0 93.5 22t31.5 55q0 32 -26 47t-62 15q-53 0 -107 -23l-18 64q65 28 138 28q71 0 116 -31t45 -89q0 -46 -30 -77.5t-77 -45.5v-2q77 -25 77 -100
q0 -67 -55 -108.5t-144 -41.5z" />
    <glyph glyph-name="afii10074" unicode="&#x438;" horiz-adv-x="507" 
d="M147 -10q-51 0 -83 29.5t-32 89.5q0 33 12 93l57 271h87l-59 -279q-9 -40 -9 -66q0 -62 54 -62q56 0 100 48.5t60 119.5l51 239h86l-60 -281q-15 -82 -15 -120q0 -29 7 -62l-74 -16q-15 46 -12 92h-2q-30 -42 -75.5 -69t-92.5 -27z" />
    <glyph glyph-name="afii10075" unicode="&#x439;" horiz-adv-x="507" 
d="M147 -10q-51 0 -83 29.5t-32 89.5q0 33 12 93l57 271h87l-59 -279q-9 -40 -9 -66q0 -62 54 -62q56 0 100 48.5t60 119.5l51 239h86l-60 -281q-15 -82 -15 -120q0 -29 7 -62l-74 -16q-15 46 -12 92h-2q-30 -42 -75.5 -69t-92.5 -27zM155 674l69 15q9 -81 71 -81
q39 0 67.5 25.5t54.5 73.5l61 -30q-37 -69 -80.5 -101.5t-104.5 -32.5q-59 0 -95 33t-43 98z" />
    <glyph glyph-name="afii10076" unicode="&#x43a;" horiz-adv-x="463" 
d="M1 0l101 473h86l-42 -198h56q30 0 49.5 28.5t39 76t37.5 69.5q28 36 82 36q26 0 50 -8l-17 -74q-10 5 -24 5q-22 0 -36 -19q-11 -14 -27 -49t-35 -62t-44 -37v-2q29 -19 46 -74l51 -165h-88l-41 150q-16 56 -41 56h-72l-45 -206h-86z" />
    <glyph glyph-name="afii10077" unicode="&#x43b;" horiz-adv-x="532" 
d="M-41 1l19 74q10 -3 23 -3q33 0 53 29q19 28 69 152t85 167q53 65 151 65q61 0 120 -17l-58 -271q-16 -75 -16 -111q0 -34 12 -74l-83 -18q-16 38 -16 86q0 39 13 101l48 226q-12 3 -32 3q-47 0 -78 -40q-25 -34 -74.5 -161t-82.5 -169q-34 -46 -103 -46q-27 0 -50 7z" />
    <glyph glyph-name="afii10078" unicode="&#x43c;" horiz-adv-x="641" 
d="M-41 0l17 73q10 -3 24 -3q36 0 58 33q27 41 47.5 127.5t48.5 242.5h73q51 -109 94 -256h2q29 40 63 82l142 174h86l-59 -276q-16 -75 -16 -113t10 -72l-84 -18q-13 39 -13 82q0 58 47 255h-2q-34 -44 -59 -74l-115 -140h-42q-50 160 -73 216h-2q-21 -116 -41.5 -184
t-55.5 -112t-101 -44q-25 0 -49 7z" />
    <glyph glyph-name="afii10079" unicode="&#x43d;" horiz-adv-x="510" 
d="M1 0l101 473h87l-39 -182h207l39 182h87l-101 -473h-87l45 214h-207l-45 -214h-87z" />
    <glyph glyph-name="afii10080" unicode="&#x43e;" horiz-adv-x="514" 
d="M209 -10q-89 0 -137 52t-48 134q0 134 75 221.5t182 87.5q89 0 136.5 -52t47.5 -134q0 -134 -74.5 -221.5t-181.5 -87.5zM212 63q72 0 118 69t46 162q0 118 -98 118q-72 0 -118.5 -69t-46.5 -162q0 -118 99 -118z" />
    <glyph glyph-name="afii10081" unicode="&#x43f;" horiz-adv-x="506" 
d="M3 0l101 473h70l-12 -94h2q31 46 78.5 76t98.5 30q50 0 79.5 -29t29.5 -87q0 -36 -12 -92l-59 -277h-87l59 274q10 50 10 73q0 60 -53 60q-28 0 -61 -18.5t-60 -54.5q-36 -47 -55 -133l-43 -201h-86z" />
    <glyph glyph-name="afii10082" unicode="&#x440;" horiz-adv-x="511" 
d="M-48 -237l150 700q73 22 141 22q107 0 163 -55.5t56 -143.5q0 -134 -81.5 -215t-194.5 -81q-49 0 -96 14l-51 -241h-87zM107 77q30 -13 73 -13q86 0 139.5 62t53.5 153q0 65 -35.5 98.5t-98.5 33.5q-31 0 -63 -8z" />
    <glyph glyph-name="afii10083" unicode="&#x441;" horiz-adv-x="443" 
d="M224 -10q-92 0 -146 54t-54 145q0 125 77.5 210.5t196.5 85.5q66 0 119 -24l-16 -73q-50 24 -102 24q-77 0 -131.5 -61t-54.5 -153q0 -63 31 -99t90 -36q60 0 120 35l23 -63q-28 -20 -71 -32.5t-82 -12.5z" />
    <glyph glyph-name="afii10084" unicode="&#x442;" horiz-adv-x="774" 
d="M2 0l101 473h70l-12 -94h2q32 47 76.5 76.5t93.5 29.5t76.5 -27.5t26.5 -83.5h2q32 48 78.5 79.5t97.5 31.5q48 0 77 -27.5t29 -80.5q1 -28 -12 -96l-60 -281h-86l60 284q9 40 9 66q0 57 -51 57q-58 0 -114 -73q-37 -49 -54 -131l-44 -203h-86l60 284q9 40 9 66
q0 57 -51 57q-58 0 -114 -74q-36 -47 -54 -130l-44 -203h-86z" />
    <glyph glyph-name="afii10085" unicode="&#x443;" horiz-adv-x="457" 
d="M-122 -219l31 68q27 -13 58 -13q48 0 90.5 35.5t87.5 127.5l-107 474h87l50 -241q6 -29 27 -135h2q23 55 56 123l123 253h91l-249 -489q-62 -123 -121.5 -172t-143.5 -49q-51 0 -82 18z" />
    <glyph glyph-name="afii10086" unicode="&#x444;" horiz-adv-x="672" 
d="M68 -225l24 70q16 -6 34 -6q34 0 53 26q13 15 21.5 36.5t20.5 67.5t17 61h-2q-35 -43 -91 -43q-55 0 -89 46t-34 125t28.5 152t84 122.5t125.5 49.5q34 0 69 -13l14 67q35 172 153 172q35 0 65 -12l-24 -70q-17 6 -35 6q-29 0 -45 -20.5t-28 -66.5q-2 -7 -11 -48.5
t-13 -53.5h2q34 42 91 42q55 0 89 -46t34 -125t-28.5 -152t-84.5 -122.5t-126 -49.5q-36 0 -69 13q-39 -157 -81 -200q-39 -40 -102 -40q-34 0 -62 12zM175 61q65 0 87 98l51 239q-22 11 -48 11q-68 0 -110.5 -77.5t-43.5 -167.5q-1 -48 15.5 -75.5t48.5 -27.5zM378 63
q68 0 110 77t44 168q0 103 -65 103q-63 0 -87 -98l-51 -240q25 -10 49 -10z" />
    <glyph glyph-name="afii10087" unicode="&#x445;" horiz-adv-x="454" 
d="M-47 0l211 242l-125 231h89l93 -173l147 173h95l-205 -237l129 -236h-91l-95 180l-154 -180h-94z" />
    <glyph glyph-name="afii10088" unicode="&#x446;" horiz-adv-x="543" 
d="M147 -10q-51 0 -83 29.5t-32 89.5q0 39 12 93l57 271h87l-60 -279q-8 -36 -8 -66q0 -62 55 -62t98.5 47t59.5 117l51 243h87l-52 -246q-18 -89 -18 -119q0 -34 16.5 -42.5t67.5 -2.5l-47 -227h-80l33 160q-72 10 -72 92h-2q-69 -98 -170 -98z" />
    <glyph glyph-name="afii10089" unicode="&#x447;" horiz-adv-x="490" 
d="M274 0l29 132q10 47 18 79h-2q-60 -37 -137 -37q-61 0 -92.5 28.5t-31.5 76.5q0 24 10 71l27 123h86l-31 -138q-5 -23 -5 -40q0 -49 67 -49q48 0 85 18t41 35l38 174h86l-101 -473h-87z" />
    <glyph glyph-name="afii10090" unicode="&#x448;" horiz-adv-x="734" 
d="M139 -10q-49 0 -78 30t-29 91q0 37 12 91l57 271h87l-60 -279q-8 -42 -8 -64q0 -64 50 -64q47 0 84 51t51 117l51 239h87l-60 -279q-8 -42 -8 -67q0 -61 49 -61q48 0 85 50.5t51 117.5l51 239h86l-59 -281q-16 -78 -16 -120q0 -29 7 -62l-74 -16q-13 40 -12 89h-2
q-64 -93 -147 -93q-43 0 -70.5 24t-30.5 72h-2q-67 -96 -152 -96z" />
    <glyph glyph-name="afii10091" unicode="&#x449;" horiz-adv-x="769" 
d="M139 -10q-49 0 -78 30t-29 91q0 37 12 91l57 271h87l-60 -279q-8 -42 -8 -64q0 -64 50 -64q47 0 84 51t51 117l51 239h87l-60 -279q-8 -42 -8 -67q0 -61 49 -61q48 0 85 50.5t51 117.5l51 239h86l-52 -246q-18 -89 -18 -119q0 -34 17 -42.5t68 -2.5l-47 -227h-80l33 160
q-70 10 -73 87h-2q-64 -93 -149 -93q-43 0 -70.5 24t-30.5 72h-2q-67 -96 -152 -96z" />
    <glyph glyph-name="afii10092" unicode="&#x44a;" horiz-adv-x="586" 
d="M120 24l79 376h-152l-7 73h262l-39 -184q47 7 73 7q87 0 133.5 -36t46.5 -95q0 -77 -62 -126t-166 -49q-100 0 -168 34zM217 72q33 -13 78 -13q58 0 95 26.5t37 72.5q0 69 -112 69q-37 0 -68 -7z" />
    <glyph glyph-name="afii10093" unicode="&#x44b;" horiz-adv-x="647" 
d="M13 24l96 449h87l-39 -184q35 7 66 7q84 0 130 -36.5t46 -94.5q0 -76 -59 -125.5t-164 -49.5q-90 0 -163 34zM110 72q34 -13 78 -13q55 0 88.5 26.5t33.5 71.5q0 70 -105 70q-31 0 -64 -7zM432 0l101 473h86l-101 -473h-86z" />
    <glyph glyph-name="afii10094" unicode="&#x44c;" horiz-adv-x="479" 
d="M13 24l96 449h87l-39 -184q47 7 73 7q87 0 133.5 -36t46.5 -95q0 -77 -62 -126t-166 -49q-99 0 -169 34zM110 72q34 -13 79 -13q59 0 95.5 26.5t36.5 72.5q0 69 -112 69q-37 0 -68 -7z" />
    <glyph glyph-name="afii10095" unicode="&#x44d;" horiz-adv-x="444" 
d="M5 25l16 67q49 -33 120 -33q65 0 108.5 39.5t56.5 111.5h-203l14 65h193q-1 67 -36 103.5t-95 36.5q-47 0 -97 -24l-19 62q59 32 126 32q99 0 152.5 -61t53.5 -163q0 -117 -67.5 -194t-182.5 -77q-76 0 -140 35z" />
    <glyph glyph-name="afii10096" unicode="&#x44e;" horiz-adv-x="710" 
d="M1 0l101 473h87l-40 -190h95q28 91 94 146.5t146 55.5q85 0 131.5 -50t46.5 -130q0 -135 -75 -225t-181 -90q-82 0 -127.5 46.5t-49.5 120.5q-2 27 2 49h-99l-44 -206h-87zM411 63q69 0 115.5 72.5t46.5 165.5q0 111 -94 111q-70 0 -116.5 -72.5t-46.5 -165.5
q0 -111 95 -111z" />
    <glyph glyph-name="afii10097" unicode="&#x44f;" horiz-adv-x="485" 
d="M-31 2l21 73q12 -4 25 -4q19 0 35 19q9 11 25.5 39t33.5 50.5t36 33.5v2q-65 31 -65 106q0 71 55 117.5t148 46.5q79 0 171 -29l-98 -456h-86l39 183h-77q-23 0 -42 -23.5t-42.5 -65t-43.5 -64.5q-33 -36 -89 -36q-24 0 -46 8zM242 248h81l34 158q-37 12 -75 12
q-54 0 -85 -28.5t-31 -72.5q0 -28 19 -48.5t57 -20.5z" />
    <glyph glyph-name="uni0450" unicode="&#x450;" horiz-adv-x="474" 
d="M221 -10q-89 0 -143 54t-54 148q0 125 70.5 209t177.5 84q77 0 118 -42.5t41 -112.5q0 -50 -21 -110l-298 -4q-1 -8 -1 -24q0 -61 32.5 -95.5t85.5 -34.5q59 0 129 36l24 -64q-72 -44 -161 -44zM123 281l214 3q8 27 8 49q0 35 -19 58.5t-62 23.5q-50 0 -89.5 -39
t-51.5 -95zM258 531l-81 147h100l49 -147h-68z" />
    <glyph glyph-name="afii10071" unicode="&#x451;" horiz-adv-x="474" 
d="M221 -10q-89 0 -143 54t-54 148q0 125 70.5 209t177.5 84q77 0 118 -42.5t41 -112.5q0 -50 -21 -110l-298 -4q-1 -8 -1 -24q0 -61 32.5 -95.5t85.5 -34.5q59 0 129 36l24 -64q-72 -44 -161 -44zM123 281l214 3q8 27 8 49q0 35 -19 58.5t-62 23.5q-50 0 -89.5 -39
t-51.5 -95zM194 555q-19 0 -30.5 11.5t-11.5 30.5q0 25 15 41t37 16q19 0 30.5 -11.5t11.5 -30.5q0 -25 -15 -41t-37 -16zM374 555q-19 0 -30.5 11.5t-11.5 30.5q0 25 15 41t37 16q19 0 31 -11.5t12 -30.5q0 -24 -15.5 -40.5t-37.5 -16.5z" />
    <glyph glyph-name="afii10099" unicode="&#x452;" horiz-adv-x="511" 
d="M1 0l118 555h-57l16 69h57l18 84h86l-18 -84h137l-16 -69h-137l-21 -104q-11 -48 -25 -90h2q70 106 163 106q65 0 98.5 -48.5t33.5 -127.5q0 -141 -74 -268t-208 -172l-28 69q102 36 161 141.5t59 224.5q0 104 -73 104q-55 0 -111 -73q-38 -50 -56 -134l-39 -183h-86z
" />
    <glyph glyph-name="afii10100" unicode="&#x453;" horiz-adv-x="403" 
d="M194 531l76 147h100l-109 -147h-67zM168 -10q-73 0 -117 34t-44 93q0 48 28 81.5t68 50.5t80 31t68 33.5t28 48.5q0 52 -76 52q-49 0 -110 -22l-19 66q68 27 137 27q75 0 115 -33t40 -88q0 -46 -28 -78t-68 -49t-80 -31t-68 -34t-28 -49t21 -45t59 -16q63 0 117 30
l27 -64q-68 -38 -150 -38z" />
    <glyph glyph-name="afii10101" unicode="&#x454;" horiz-adv-x="447" 
d="M224 -10q-90 0 -145 54t-55 148q0 124 74.5 208.5t192.5 84.5q66 0 121 -24l-17 -71q-47 25 -100 25q-61 0 -109 -39t-65 -101h207l-13 -65h-203q-1 -4 -1 -21q0 -61 30.5 -95.5t87.5 -34.5t119 36l24 -61q-67 -44 -148 -44z" />
    <glyph glyph-name="afii10102" unicode="&#x455;" horiz-adv-x="365" 
d="M-23 28l29 66q53 -32 111 -32q38 0 64.5 17t26.5 49q0 23 -16 42t-38.5 34.5t-45 33t-38.5 46t-16 64.5q0 59 41.5 98t119.5 39q65 0 119 -21l-14 -71q-55 21 -101 21q-34 0 -55.5 -15.5t-21.5 -46.5q0 -23 16 -42t38.5 -35t45 -33.5t38.5 -46t16 -65.5
q0 -65 -49.5 -102.5t-125.5 -37.5q-82 0 -144 38z" />
    <glyph glyph-name="afii10103" unicode="&#x456;" horiz-adv-x="227" 
d="M2 0l101 473h87l-102 -473h-86zM171 571q-24 0 -38 14t-14 35q0 28 19 45.5t44 17.5q24 0 38 -14t14 -35q0 -27 -19 -45t-44 -18z" />
    <glyph glyph-name="afii10104" unicode="&#x457;" horiz-adv-x="227" 
d="M70 555q-19 0 -30.5 11.5t-11.5 30.5q0 25 15 41t37 16q19 0 30.5 -11.5t11.5 -30.5q0 -25 -15 -41t-37 -16zM250 555q-19 0 -30.5 11.5t-11.5 30.5q0 25 15 41t37 16q19 0 31 -11.5t12 -30.5q0 -24 -15.5 -40.5t-37.5 -16.5zM2 0l101 473h86l-101 -473h-86z" />
    <glyph glyph-name="afii10105" unicode="&#x458;" horiz-adv-x="243" 
d="M-157 -223l26 72q21 -9 47 -9q38 0 57.5 23t30.5 75l114 535h87l-123 -572q-29 -138 -163 -138q-43 0 -76 14zM186 571q-24 0 -37.5 13.5t-13.5 35.5q0 28 19 45.5t44 17.5q24 0 37.5 -13.5t13.5 -35.5q0 -28 -18.5 -45.5t-44.5 -17.5z" />
    <glyph glyph-name="afii10106" unicode="&#x459;" horiz-adv-x="747" 
d="M-41 1l19 74q10 -3 23 -3q33 0 53 29q19 28 69 152t85 167q53 65 151 65q57 0 116 -17l-39 -178q45 5 66 5q84 0 129.5 -35.5t45.5 -94.5q0 -78 -58 -126.5t-164 -48.5q-91 0 -161 34l82 383q-14 3 -29 3q-47 0 -78 -40q-25 -34 -74.5 -161t-82.5 -169q-34 -46 -103 -46
q-27 0 -50 7zM389 71q36 -12 77 -12q55 0 89 27t34 72q0 69 -103 69q-29 0 -66 -7z" />
    <glyph glyph-name="afii10107" unicode="&#x45a;" horiz-adv-x="741" 
d="M1 0l101 473h87l-39 -182h193l39 182h87l-40 -184q36 6 67 6q84 0 129 -35.5t45 -94.5q0 -77 -58.5 -126t-163.5 -49q-92 0 -162 34l41 190h-194l-45 -214h-87zM383 71q35 -12 76 -12q55 0 89 27t34 72q0 69 -103 69q-30 0 -65 -7z" />
    <glyph glyph-name="afii10108" unicode="&#x45b;" horiz-adv-x="505" 
d="M1 0l118 555h-61l16 69h61l18 84h86l-18 -84h123l-16 -69h-122l-22 -104q-11 -48 -25 -90h2q31 47 75 76.5t94 29.5q52 0 85.5 -29t33.5 -85q0 -27 -13 -93l-55 -260h-87l54 257q10 44 10 73q0 60 -58 60q-63 0 -119 -74q-36 -46 -55 -135l-38 -181h-87z" />
    <glyph glyph-name="afii10109" unicode="&#x45c;" horiz-adv-x="462" 
d="M242 531l76 147h100l-109 -147h-67zM1 0l101 473h86l-42 -198h56q30 0 49.5 28.5t39 76t37.5 69.5q28 36 82 36q26 0 50 -8l-17 -74q-10 5 -24 5q-22 0 -36 -19q-11 -14 -27 -49t-35 -62t-44 -37v-2q29 -19 46 -74l51 -165h-88l-41 150q-16 56 -41 56h-72l-45 -206h-86z
" />
    <glyph glyph-name="uni045D" unicode="&#x45d;" horiz-adv-x="507" 
d="M147 -10q-51 0 -83 29.5t-32 89.5q0 33 12 93l57 271h87l-59 -279q-9 -40 -9 -66q0 -62 54 -62q56 0 100 48.5t60 119.5l51 239h86l-60 -281q-15 -82 -15 -120q0 -29 7 -62l-74 -16q-15 46 -12 92h-2q-30 -42 -75.5 -69t-92.5 -27zM269 531l-81 147h100l49 -147h-68z" />
    <glyph glyph-name="afii10110" unicode="&#x45e;" horiz-adv-x="457" 
d="M-122 -219l31 68q27 -13 58 -13q48 0 90.5 35.5t87.5 127.5l-107 474h87l50 -241q6 -29 27 -135h2q23 55 56 123l123 253h91l-249 -489q-62 -123 -121.5 -172t-143.5 -49q-51 0 -82 18zM121 674l69 15q9 -81 71 -81q39 0 67.5 25.5t54.5 73.5l61 -30
q-37 -69 -80.5 -101.5t-104.5 -32.5q-59 0 -95 33t-43 98z" />
    <glyph glyph-name="afii10193" unicode="&#x45f;" horiz-adv-x="507" 
d="M108 -210l53 162h65l-33 -162h-85zM147 -10q-51 0 -83 29.5t-32 89.5q0 39 12 93l57 271h87l-60 -279q-8 -36 -8 -66q0 -62 54 -62q56 0 100 48.5t59 119.5l51 239h87l-60 -281q-16 -78 -16 -120q0 -32 8 -62l-75 -16q-13 42 -12 92h-2q-30 -43 -75 -69.5t-92 -26.5z" />
    <glyph glyph-name="afii10146" unicode="&#x462;" horiz-adv-x="603" 
d="M68 0l108 508h-128l16 73h128l20 95h88l-20 -95h162l-29 -73h-149l-25 -118h57q95 0 144 -25q84 -42 84 -138q0 -105 -74.5 -166t-207.5 -61h-174zM172 74h77q91 0 138.5 40t47.5 110q0 55 -44 76q-29 16 -100 16h-67z" />
    <glyph glyph-name="afii10194" unicode="&#x463;" horiz-adv-x="515" 
d="M49 24l81 381h-122l16 68h121l28 132h87l-28 -132h158l-28 -68h-145l-26 -121q47 7 76 7q87 0 132.5 -35t45.5 -94q0 -75 -61.5 -123.5t-165.5 -48.5q-98 0 -169 34zM146 70q32 -13 78 -13q59 0 96 26.5t37 71.5q0 68 -111 68q-38 0 -71 -7z" />
    <glyph glyph-name="afii10147" unicode="&#x472;" horiz-adv-x="739" 
d="M324 -10q-131 0 -205 71.5t-74 202.5q0 169 100.5 285t268.5 116q131 0 205 -71.5t74 -202.5q0 -169 -100.5 -285t-268.5 -116zM327 65q106 0 174.5 66.5t88.5 168.5h-451q-2 -26 -2 -38q0 -92 47 -144.5t143 -52.5zM152 374h448v18q0 92 -46.5 145t-142.5 53
q-101 0 -168 -60.5t-91 -155.5z" />
    <glyph glyph-name="afii10195" unicode="&#x473;" horiz-adv-x="515" 
d="M209 -10q-93 0 -139 50t-46 136q1 140 74 224.5t183 84.5q92 0 138 -50.5t46 -135.5q0 -139 -73 -224t-183 -85zM212 61q58 0 98.5 41t56.5 108h-252q-2 -12 -2 -37q0 -56 23 -84t76 -28zM125 275h251q0 3 0.5 12t0.5 15q0 56 -23.5 84t-75.5 28q-57 0 -96.5 -38
t-56.5 -101z" />
    <glyph glyph-name="afii10148" unicode="&#x474;" horiz-adv-x="615" 
d="M189 -4l-109 663h92l57 -380q9 -57 18 -147h2q92 251 165 389q42 78 84.5 111t101.5 33q34 0 66 -10l-16 -79q-15 7 -39 7q-32 0 -60 -24t-60 -82q-70 -126 -216 -481h-86z" />
    <glyph glyph-name="afii10196" unicode="&#x475;" horiz-adv-x="464" 
d="M128 -3l-78 476h84l31 -228q10 -75 16 -132h2q62 181 111 274q53 98 136 98q32 0 60 -10l-17 -72q-12 6 -32 6q-43 0 -82 -74q-43 -80 -149 -338h-82z" />
    <glyph glyph-name="afii10050" unicode="&#x490;" horiz-adv-x="469" 
d="M12 0l141 659h270l33 156l87 24l-53 -253h-265l-125 -586h-88z" />
    <glyph glyph-name="afii10098" unicode="&#x491;" horiz-adv-x="391" 
d="M1 0l101 473h223l31 140l83 24l-51 -241h-216l-84 -396h-87z" />
    <glyph glyph-name="Wgrave" unicode="&#x1e80;" horiz-adv-x="836" 
d="M163 -4l-91 663h96l44 -378q8 -67 15 -151h2q25 67 61 138l137 280l-15 111h88l46 -379q8 -58 16 -150h2q21 63 57 140l180 389h97l-324 -663h-72l-39 290q-12 77 -17 135h-2q-25 -60 -64 -138l-144 -287h-73zM451 696l-81 147h100l49 -147h-68z" />
    <glyph glyph-name="wgrave" unicode="&#x1e81;" horiz-adv-x="674" 
d="M111 -3l-72 476h82l32 -227q10 -68 15 -129h2q22 53 50 112l118 244h62l28 -222q6 -48 14 -134h2q7 19 49 114l110 242h91l-236 -476h-68l-28 229q-10 80 -14 119h-2q-19 -45 -57 -122l-112 -226h-66zM357 531l-81 147h100l49 -147h-68z" />
    <glyph glyph-name="Wacute" unicode="&#x1e82;" horiz-adv-x="836" 
d="M163 -4l-91 663h96l44 -378q8 -67 15 -151h2q25 67 61 138l137 280l-15 111h88l46 -379q8 -58 16 -150h2q21 63 57 140l180 389h97l-324 -663h-72l-39 290q-12 77 -17 135h-2q-25 -60 -64 -138l-144 -287h-73zM442 696l76 147h100l-109 -147h-67z" />
    <glyph glyph-name="wacute" unicode="&#x1e83;" horiz-adv-x="674" 
d="M111 -3l-72 476h82l32 -227q10 -68 15 -129h2q22 53 50 112l118 244h62l28 -222q6 -48 14 -134h2q7 19 49 114l110 242h91l-236 -476h-68l-28 229q-10 80 -14 119h-2q-19 -45 -57 -122l-112 -226h-66zM332 531l76 147h100l-109 -147h-67z" />
    <glyph glyph-name="Wdieresis" unicode="&#x1e84;" horiz-adv-x="836" 
d="M163 -4l-91 663h96l44 -378q8 -67 15 -151h2q25 67 61 138l137 280l-15 111h88l46 -379q8 -58 16 -150h2q21 63 57 140l180 389h97l-324 -663h-72l-39 290q-12 77 -17 135h-2q-25 -60 -64 -138l-144 -287h-73zM400 704q-19 0 -31 11.5t-12 30.5q0 24 15.5 40t37.5 16
q19 0 30.5 -11t11.5 -30q0 -25 -15 -41t-37 -16zM580 704q-19 0 -30.5 11.5t-11.5 30.5q0 24 15 40t37 16q19 0 30.5 -11t11.5 -30q0 -25 -15 -41t-37 -16z" />
    <glyph glyph-name="wdieresis" unicode="&#x1e85;" horiz-adv-x="674" 
d="M111 -3l-72 476h82l32 -227q10 -68 15 -129h2q22 53 50 112l118 244h62l28 -222q6 -48 14 -134h2q7 19 49 114l110 242h91l-236 -476h-68l-28 229q-10 80 -14 119h-2q-19 -45 -57 -122l-112 -226h-66zM293 555q-19 0 -30.5 11.5t-11.5 30.5q0 25 15 41t37 16
q19 0 30.5 -11.5t11.5 -30.5q0 -25 -15 -41t-37 -16zM473 555q-19 0 -30.5 11.5t-11.5 30.5q0 25 15 41t37 16q19 0 31 -11.5t12 -30.5q0 -24 -15.5 -40.5t-37.5 -16.5z" />
    <glyph glyph-name="Ygrave" unicode="&#x1ef2;" horiz-adv-x="514" 
d="M163 0l54 255l-145 404h92l107 -318h2l205 318h99l-272 -407l-54 -252h-88zM294 696l-81 147h100l49 -147h-68z" />
    <glyph glyph-name="ygrave" unicode="&#x1ef3;" horiz-adv-x="452" 
d="M-125 -219l31 68q27 -13 58 -13q48 0 90.5 35.5t87.5 127.5l-107 474h87l50 -241q6 -29 27 -135h2q23 55 56 123l123 253h91l-249 -489q-62 -123 -121.5 -172t-143.5 -49q-51 0 -82 18zM231 531l-81 147h100l49 -147h-68z" />
    <glyph glyph-name="endash" unicode="&#x2013;" horiz-adv-x="450" 
d="M0 219v68h450v-68h-450z" />
    <glyph glyph-name="emdash" unicode="&#x2014;" horiz-adv-x="800" 
d="M0 219v68h800v-68h-800z" />
    <glyph glyph-name="quoteleft" unicode="&#x2018;" horiz-adv-x="215" 
d="M119 448q-11 37 -11 82q0 98 71 181l48 -20q-37 -66 -37 -136q0 -38 11 -84z" />
    <glyph glyph-name="quoteright" unicode="&#x2019;" horiz-adv-x="220" 
d="M92 468q36 66 36 136q0 36 -10 84l82 23q11 -42 11 -82q0 -96 -71 -181z" />
    <glyph glyph-name="quotesinglbase" unicode="&#x201a;" horiz-adv-x="220" 
d="M-26 -126q36 66 36 136q0 36 -10 84l82 23q11 -42 11 -82q0 -96 -71 -181z" />
    <glyph glyph-name="quotedblleft" unicode="&#x201c;" horiz-adv-x="395" 
d="M119 448q-11 37 -11 82q0 98 71 181l48 -20q-37 -66 -37 -136q0 -38 11 -84zM300 448q-11 37 -11 82q0 98 71 181l48 -20q-37 -66 -37 -136q0 -38 11 -84z" />
    <glyph glyph-name="quotedblright" unicode="&#x201d;" horiz-adv-x="401" 
d="M321 448l-49 20q37 66 37 136q0 36 -10 84l82 23q11 -42 11 -82q0 -96 -71 -181zM140 448l-48 20q36 66 36 136q0 36 -10 84l82 23q11 -42 11 -82q0 -96 -71 -181z" />
    <glyph glyph-name="quotedblbase" unicode="&#x201e;" horiz-adv-x="401" 
d="M203 -146l-49 20q37 66 37 136q0 36 -10 84l82 23q11 -42 11 -82q0 -96 -71 -181zM22 -146l-48 20q36 66 36 136q0 36 -10 84l82 23q11 -42 11 -82q0 -96 -71 -181z" />
    <glyph glyph-name="dagger" unicode="&#x2020;" horiz-adv-x="487" 
d="M119 -47l29 138q16 80 32 146t27.5 109.5t14.5 58.5q-19 0 -76.5 -5.5t-80.5 -5.5l18 88q24 -1 79 -7.5t72 -7.5q5 23 12.5 80.5t12.5 80.5h87q-5 -24 -22 -81t-22 -80q16 1 74.5 7.5t82.5 6.5l-18 -88q-23 1 -77.5 6.5t-73.5 5.5q-3 -15 -18.5 -104t-35.5 -183l-34 -165
h-83z" />
    <glyph glyph-name="daggerdbl" unicode="&#x2021;" horiz-adv-x="487" 
d="M118 -47q5 27 22 84.5t21 75.5q-16 -1 -74.5 -7t-82.5 -6l18 88q23 -1 77.5 -6.5t73.5 -5.5q3 11 8.5 49.5t12.5 70.5q6 26 16 61.5t12 47.5q-19 0 -76.5 -5.5t-80.5 -5.5l18 88q24 -1 79 -7.5t72 -7.5q5 24 12.5 82t11.5 79h88q-5 -24 -22 -81t-22 -80q15 1 73.5 7.5
t83.5 6.5l-18 -88q-23 1 -77.5 6.5t-73.5 5.5q-3 -14 -9.5 -52t-10.5 -62q-6 -32 -16.5 -69.5t-12.5 -45.5q18 0 75.5 5.5t80.5 5.5l-18 -88q-24 1 -79.5 7t-71.5 7q-6 -24 -13 -83.5t-10 -76.5h-87z" />
    <glyph glyph-name="bullet" unicode="&#x2022;" horiz-adv-x="310" 
d="M150 207q-45 0 -76 32.5t-31 78.5q0 47 30.5 79t76.5 32t77 -32t31 -79q0 -46 -31 -78.5t-77 -32.5z" />
    <glyph glyph-name="ellipsis" unicode="&#x2026;" horiz-adv-x="892" 
d="M93 -8q-21 0 -34.5 14.5t-13.5 35.5q0 26 16.5 43.5t41.5 17.5q21 0 35 -15t14 -36q0 -25 -17 -42.5t-42 -17.5zM384 -8q-21 0 -34.5 14.5t-13.5 35.5q0 26 16.5 43.5t41.5 17.5q21 0 35 -15t14 -36q0 -25 -17 -42.5t-42 -17.5zM677 -8q-21 0 -35 14.5t-14 35.5
q0 26 17 43.5t41 17.5q21 0 35 -15t14 -36q0 -25 -17 -42.5t-41 -17.5z" />
    <glyph glyph-name="perthousand" unicode="&#x2030;" horiz-adv-x="1208" 
d="M151 0l490 659h78l-490 -659h-78zM222 316q-60 0 -93.5 35.5t-33.5 98.5q0 92 48.5 153.5t129.5 61.5q60 0 93 -36t33 -99q0 -92 -48.5 -153t-128.5 -61zM228 374q45 0 72 47.5t27 106.5q0 79 -60 79q-45 0 -72 -48t-27 -107q0 -78 60 -78zM594 -10q-60 0 -93.5 35.5
t-33.5 98.5q0 92 48.5 153.5t129.5 61.5q60 0 93 -36t33 -98q0 -92 -48.5 -153.5t-128.5 -61.5zM600 48q44 0 71.5 48t27.5 106q0 79 -61 79q-44 0 -71 -48t-27 -107q0 -78 60 -78zM945 -10q-60 0 -93 35.5t-33 98.5q0 92 48.5 153.5t128.5 61.5q60 0 93.5 -36t33.5 -98
q0 -92 -48.5 -153.5t-129.5 -61.5zM952 48q44 0 71 48t27 106q0 79 -60 79q-44 0 -71.5 -48t-27.5 -107q0 -78 61 -78z" />
    <glyph glyph-name="guilsinglleft" unicode="&#x2039;" horiz-adv-x="319" 
d="M268 401l-154 -165l101 -165l-62 -38l-134 210l197 206z" />
    <glyph glyph-name="guilsinglright" unicode="&#x203a;" horiz-adv-x="319" 
d="M10 81l154 165l-101 165l62 38l134 -210l-197 -206z" />
    <glyph glyph-name="fraction" unicode="&#x2044;" horiz-adv-x="136" 
d="M-214 0l491 659h77l-490 -659h-78z" />
    <glyph glyph-name="zerosuperior" unicode="&#x2070;" horiz-adv-x="374" 
d="M212 397q-60 0 -91.5 40.5t-31.5 108.5q0 107 47.5 177.5t124.5 70.5q60 0 91.5 -40.5t31.5 -108.5q0 -107 -47.5 -177.5t-124.5 -70.5zM215 457q41 0 68 59t27 129q0 89 -52 89q-40 0 -67 -59t-27 -129q0 -89 51 -89z" />
    <glyph glyph-name="foursuperior" unicode="&#x2074;" horiz-adv-x="374" 
d="M231 404l17 86h-162l-11 50l238 253h72l-53 -247h54l-11 -56h-55l-18 -86h-71zM261 546l8 38q1 6 10.5 45t16.5 65l-139 -149z" />
    <glyph glyph-name="fivesuperior" unicode="&#x2075;" horiz-adv-x="342" 
d="M54 418l23 57q43 -18 88 -18q42 0 68 17.5t26 51.5t-31 48q-21 8 -54 8h-64l42 204h225l-17 -62h-149l-19 -88h10q42 0 66 -9q66 -27 66 -95q0 -64 -46.5 -99.5t-124.5 -35.5q-61 0 -109 21z" />
    <glyph glyph-name="sixsuperior" unicode="&#x2076;" horiz-adv-x="357" 
d="M215 397q-58 0 -94.5 36.5t-36.5 106.5q0 107 61.5 180.5t154.5 73.5q46 0 80 -16l-21 -57q-29 13 -60 13q-47 0 -82 -33t-50 -81h2q32 26 77 26q48 0 79.5 -30t31.5 -80q0 -61 -40 -100t-102 -39zM216 456q30 0 49 20t19 51q0 26 -14.5 42.5t-41.5 16.5q-31 0 -50 -18
t-19 -49q0 -27 14.5 -45t42.5 -18z" />
    <glyph glyph-name="sevensuperior" unicode="&#x2077;" horiz-adv-x="306" 
d="M88 404q46 176 176 320h-166l-9 62h268v-38q-141 -158 -189 -344h-80z" />
    <glyph glyph-name="eightsuperior" unicode="&#x2078;" horiz-adv-x="374" 
d="M218 397q-60 0 -96.5 26.5t-36.5 74.5q0 76 84 106v1q-46 31 -46 80q0 50 39 79.5t99 29.5q59 0 93 -26.5t34 -71.5q0 -67 -75 -95v-1q59 -24 59 -86q0 -55 -43.5 -86t-110.5 -31zM222 457q30 0 53 14.5t23 44.5q0 39 -69 59q-31 -9 -50 -26t-19 -40q0 -26 17.5 -39
t44.5 -13zM248 627q65 19 65 64q0 21 -15 32.5t-39 11.5q-26 0 -43.5 -13.5t-17.5 -37.5q0 -41 50 -57z" />
    <glyph glyph-name="ninesuperior" unicode="&#x2079;" horiz-adv-x="359" 
d="M70 412l21 58q24 -13 61 -13q101 0 130 106l-2 1q-32 -23 -78 -23q-49 0 -80.5 29.5t-31.5 82.5q0 64 39.5 102.5t99.5 38.5q63 0 100 -39.5t37 -109.5q0 -114 -57 -181t-155 -67q-49 0 -84 15zM219 600q34 0 69 26q2 9 2 28q0 39 -18 60t-44 21q-28 0 -46.5 -20.5
t-18.5 -54.5q0 -60 56 -60z" />
    <glyph glyph-name="plussuperior" unicode="&#x207a;" horiz-adv-x="408" 
d="M220 434v132h-123v60h123v128h63v-128h123v-60h-123v-132h-63z" />
    <glyph glyph-name="minussuperior" unicode="&#x207b;" horiz-adv-x="408" 
d="M97 566v60h309v-60h-309z" />
    <glyph glyph-name="equalsuperior" unicode="&#x207c;" horiz-adv-x="408" 
d="M97 502v59h309v-59h-309zM97 631v59h309v-59h-309z" />
    <glyph glyph-name="parenleftsuperior" unicode="&#x207d;" horiz-adv-x="236" 
d="M149 356q-27 32 -42.5 81t-15.5 98q0 174 154 301l39 -44q-122 -114 -122 -254q0 -91 37 -148z" />
    <glyph glyph-name="parenrightsuperior" unicode="&#x207e;" horiz-adv-x="236" 
d="M76 356l-39 43q122 115 122 254q0 93 -37 148l50 35q58 -71 58 -179q0 -174 -154 -301z" />
    <glyph glyph-name="n.superior" unicode="&#x207f;" horiz-adv-x="350" 
d="M27 270l71 332h59l-8 -58h2q49 67 116 67q36 0 58.5 -21t22.5 -63q0 -26 -8 -66l-41 -191h-70l42 200q5 28 5 43q0 34 -32 34q-31 0 -66.5 -33.5t-49.5 -100.5l-30 -143h-71z" />
    <glyph glyph-name="zeroinferior" unicode="&#x2080;" horiz-adv-x="374" 
d="M103 -187q-60 0 -91.5 40.5t-31.5 108.5q0 107 47.5 177.5t124.5 70.5q60 0 91.5 -40.5t31.5 -108.5q0 -107 -47.5 -177.5t-124.5 -70.5zM106 -127q41 0 68 59t27 129q0 89 -52 89q-40 0 -67 -59t-27 -129q0 -89 51 -89z" />
    <glyph glyph-name="oneinferior" unicode="&#x2081;" horiz-adv-x="307" 
d="M46 -180l65 308q-47 -24 -117 -39v63q70 15 144 57h63l-83 -389h-72z" />
    <glyph glyph-name="twoinferior" unicode="&#x2082;" horiz-adv-x="335" 
d="M-50 -180q7 47 27 85t45 60t53 42t51 33t38 30t15 37q0 41 -54 41q-45 0 -101 -29l-19 57q68 34 131 34q56 0 87 -26.5t31 -69.5q0 -41 -28 -74t-63 -52t-69.5 -47t-43.5 -58h176l-10 -63h-266z" />
    <glyph glyph-name="threeinferior" unicode="&#x2083;" horiz-adv-x="343" 
d="M-49 -165l24 56q42 -18 89 -18q42 0 66 16.5t24 46.5q0 51 -85 51h-50l9 56h40q49 1 75 18.5t26 45.5q0 42 -57 42q-42 0 -89 -20l-18 55q59 26 122 26q56 0 87 -25.5t31 -65.5q0 -38 -23.5 -64t-59.5 -37v-2q30 -6 49 -26.5t19 -52.5q0 -57 -44 -90.5t-123 -33.5
q-66 0 -112 22z" />
    <glyph glyph-name="fourinferior" unicode="&#x2084;" horiz-adv-x="374" 
d="M122 -180l17 86h-162l-11 50l238 253h72l-53 -247h54l-11 -56h-55l-18 -86h-71zM152 -38l8 38q1 6 10.5 45t16.5 65l-139 -149z" />
    <glyph glyph-name="fiveinferior" unicode="&#x2085;" horiz-adv-x="342" 
d="M-54 -166l23 57q43 -18 88 -18q42 0 68 17.5t26 51.5t-31 48q-21 8 -54 8h-64l42 204h225l-17 -62h-149l-19 -88h10q42 0 66 -9q66 -27 66 -95q0 -64 -46.5 -99.5t-124.5 -35.5q-61 0 -109 21z" />
    <glyph glyph-name="sixinferior" unicode="&#x2086;" horiz-adv-x="357" 
d="M104 -187q-58 0 -94.5 36.5t-36.5 106.5q0 107 61.5 180.5t154.5 73.5q46 0 80 -16l-21 -57q-29 13 -60 13q-47 0 -82 -33t-50 -81h2q32 26 77 26q48 0 79.5 -30t31.5 -80q0 -61 -40 -100t-102 -39zM105 -128q30 0 49 20t19 51q0 26 -14.5 42.5t-41.5 16.5q-31 0 -50 -18
t-19 -49q0 -27 14.5 -45t42.5 -18z" />
    <glyph glyph-name="seveninferior" unicode="&#x2087;" horiz-adv-x="306" 
d="M-20 -180q46 176 176 320h-166l-9 62h268v-38q-141 -158 -189 -344h-80z" />
    <glyph glyph-name="eightinferior" unicode="&#x2088;" horiz-adv-x="374" 
d="M109 -187q-60 0 -96.5 26.5t-36.5 74.5q0 76 84 106v1q-46 31 -46 80q0 50 39 79.5t99 29.5q59 0 93 -26.5t34 -71.5q0 -67 -75 -95v-1q59 -24 59 -86q0 -55 -43.5 -86t-110.5 -31zM113 -127q30 0 53 14.5t23 44.5q0 39 -69 59q-31 -9 -50 -26t-19 -40q0 -26 17.5 -39
t44.5 -13zM139 43q65 19 65 64q0 21 -15 32.5t-39 11.5q-26 0 -43.5 -13.5t-17.5 -37.5q0 -41 50 -57z" />
    <glyph glyph-name="nineinferior" unicode="&#x2089;" horiz-adv-x="359" 
d="M-39 -172l21 58q24 -13 61 -13q101 0 130 106l-2 1q-32 -23 -78 -23q-49 0 -80.5 29.5t-31.5 82.5q0 64 39.5 102.5t99.5 38.5q63 0 100 -39.5t37 -109.5q0 -114 -57 -181t-155 -67q-49 0 -84 15zM110 16q34 0 69 26q2 9 2 28q0 39 -18 60t-44 21q-28 0 -46.5 -20.5
t-18.5 -54.5q0 -60 56 -60z" />
    <glyph glyph-name="parenleftinferior" unicode="&#x208d;" horiz-adv-x="236" 
d="M43 -228q-27 32 -42.5 81t-15.5 98q0 174 154 301l39 -44q-122 -114 -122 -254q0 -91 37 -148z" />
    <glyph glyph-name="parenrightinferior" unicode="&#x208e;" horiz-adv-x="236" 
d="M-30 -228l-39 43q122 115 122 254q0 93 -37 148l50 35q58 -71 58 -179q0 -174 -154 -301z" />
    <glyph glyph-name="Euro" unicode="&#x20ac;" horiz-adv-x="529" 
d="M20 213l8 61h64v6q0 54 10 100h-67l9 61h74q36 104 113 164t176 60q81 0 135 -35l-15 -77q-56 35 -115 35q-68 0 -118.5 -39.5t-78.5 -107.5h242l-21 -61h-241q-10 -41 -10 -92v-14h234l-21 -61h-208q19 -146 139 -146q63 0 125 38l18 -71q-67 -44 -154 -44
q-97 0 -153.5 57t-69.5 166h-75z" />
    <glyph glyph-name="afii61289" unicode="&#x2113;" horiz-adv-x="468" 
d="M209 -10q-67 0 -103 36.5t-36 103.5q0 21 4 41q-22 -8 -68 -20l-11 76q47 11 90 27l31 147q28 131 88 197.5t141 66.5q57 0 89.5 -31.5t32.5 -83.5q0 -95 -83.5 -190.5t-221.5 -156.5q-5 -28 -5 -52q0 -83 68 -83q55 0 123 47l32 -66q-87 -59 -171 -59zM181 296
q84 43 141 114.5t57 135.5q0 47 -42 47q-41 0 -78.5 -53.5t-59.5 -158.5z" />
    <glyph glyph-name="afii61352" unicode="&#x2116;" horiz-adv-x="1001" 
d="M10 0l140 659h82l164 -408q24 -60 33 -94h2q7 54 16 100l85 402h88l-140 -659h-73l-173 425q-19 48 -31 88h-2q-6 -57 -14 -95l-89 -418h-88zM597 137l12 58h308l-13 -58h-307zM782 263q-61 0 -95.5 36t-34.5 93q0 94 53 156.5t129 62.5q61 0 95.5 -36.5t34.5 -94.5
q0 -93 -53 -155t-129 -62zM785 324q49 0 79.5 46t30.5 104q0 76 -63 76q-48 0 -79 -46t-31 -104q0 -76 63 -76z" />
    <glyph glyph-name="uni2117" unicode="&#x2117;" horiz-adv-x="777" 
d="M386 -10q-144 0 -238 96.5t-94 240.5t94 240.5t238 96.5q143 0 237 -97t94 -240t-94 -240t-237 -97zM386 39q118 0 196 81.5t78 206.5q0 124 -77.5 205.5t-196.5 81.5t-197 -81.5t-78 -205.5t78 -206t197 -82zM343 132h-58v389h106q66 0 103 -34t37 -93q0 -58 -37 -92.5
t-106 -34.5h-45v-135zM343 319h48q81 0 81 74q0 76 -78 76h-51v-150z" />
    <glyph glyph-name="trademark" unicode="&#x2122;" horiz-adv-x="841" 
d="M184 264v336h-110v59h301l-15 -59h-105v-336h-71zM410 264v395h62l95 -140q27 -39 42 -70h3q14 27 41 69l94 141h65v-395h-70v208q0 58 3 80h-2q-17 -33 -36 -60l-79 -117h-35l-79 117q-20 32 -35 60h-2q3 -33 3 -80v-208h-70z" />
    <glyph glyph-name="estimated" unicode="&#x212e;" horiz-adv-x="754" 
d="M376 -10q-146 0 -248.5 84.5t-102.5 226.5q0 143 103 226.5t252 83.5q86 0 154.5 -28t110.5 -74.5t63.5 -104t19.5 -119.5h-556v-160q32 -46 88 -71.5t121 -25.5q134 0 209 91h90q-103 -129 -304 -129zM172 324h414v152q-68 97 -206 97q-139 0 -208 -97v-152z" />
    <glyph glyph-name="onethird" unicode="&#x2153;" horiz-adv-x="886" 
d="M121 0l491 659h77l-490 -659h-78zM132 270l65 308q-47 -24 -117 -39v63q70 15 144 57h63l-83 -389h-72zM514 14l24 56q42 -18 89 -18q42 0 66 16.5t24 46.5q0 51 -85 51h-50l9 56h40q49 1 75 18.5t26 45.5q0 42 -57 42q-42 0 -89 -20l-18 55q59 26 122 26q56 0 87 -25.5
t31 -65.5q0 -38 -23.5 -64t-59.5 -37v-2q30 -6 49 -26.5t19 -52.5q0 -57 -44 -90.5t-123 -33.5q-66 0 -112 22z" />
    <glyph glyph-name="twothirds" unicode="&#x2154;" horiz-adv-x="886" 
d="M173 0l491 659h77l-490 -659h-78zM38 270q7 47 27 85t45 60t53 42t51 33t38 30t15 37q0 41 -54 41q-45 0 -101 -29l-19 57q68 34 131 34q56 0 87 -26.5t31 -69.5q0 -41 -28 -74t-63 -52t-69.5 -47t-43.5 -58h176l-10 -63h-266zM556 14l24 56q42 -18 89 -18q42 0 66 16.5
t24 46.5q0 51 -85 51h-50l9 56h40q49 1 75 18.5t26 45.5q0 42 -57 42q-42 0 -89 -20l-18 55q59 26 122 26q56 0 87 -25.5t31 -65.5q0 -38 -23.5 -64t-59.5 -37v-2q30 -6 49 -26.5t19 -52.5q0 -57 -44 -90.5t-123 -33.5q-66 0 -112 22z" />
    <glyph glyph-name="oneeighth" unicode="&#x215b;" horiz-adv-x="886" 
d="M118 0l491 659h77l-490 -659h-78zM129 270l65 308q-47 -24 -117 -39v63q70 15 144 57h63l-83 -389h-72zM638 -8q-60 0 -96.5 26.5t-36.5 74.5q0 76 84 106v1q-46 31 -46 80q0 50 39 79.5t99 29.5q59 0 93 -26.5t34 -71.5q0 -67 -75 -95v-1q59 -24 59 -86q0 -55 -43.5 -86
t-110.5 -31zM642 52q30 0 53 14.5t23 44.5q0 39 -69 59q-31 -9 -50 -26t-19 -40q0 -26 17.5 -39t44.5 -13zM668 222q65 19 65 64q0 21 -15 32.5t-39 11.5q-26 0 -43.5 -13.5t-17.5 -37.5q0 -41 50 -57z" />
    <glyph glyph-name="threeeighths" unicode="&#x215c;" horiz-adv-x="886" 
d="M150 0l491 659h77l-490 -659h-78zM652 -8q-60 0 -96.5 26.5t-36.5 74.5q0 76 84 106v1q-46 31 -46 80q0 50 39 79.5t99 29.5q59 0 93 -26.5t34 -71.5q0 -67 -75 -95v-1q59 -24 59 -86q0 -55 -43.5 -86t-110.5 -31zM656 52q30 0 53 14.5t23 44.5q0 39 -69 59
q-31 -9 -50 -26t-19 -40q0 -26 17.5 -39t44.5 -13zM682 222q65 19 65 64q0 21 -15 32.5t-39 11.5q-26 0 -43.5 -13.5t-17.5 -37.5q0 -41 50 -57zM47 285l24 56q42 -18 89 -18q42 0 66 16.5t24 46.5q0 51 -85 51h-50l9 56h40q49 1 75 18.5t26 45.5q0 42 -57 42q-42 0 -89 -20
l-18 55q59 26 122 26q56 0 87 -25.5t31 -65.5q0 -38 -23.5 -64t-59.5 -37v-2q30 -6 49 -26.5t19 -52.5q0 -57 -44 -90.5t-123 -33.5q-66 0 -112 22z" />
    <glyph glyph-name="fiveeighths" unicode="&#x215d;" horiz-adv-x="886" 
d="M151 0l491 659h77l-490 -659h-78zM42 284l23 57q43 -18 88 -18q42 0 68 17.5t26 51.5t-31 48q-21 8 -54 8h-64l42 204h225l-17 -62h-149l-19 -88h10q42 0 66 -9q66 -27 66 -95q0 -64 -46.5 -99.5t-124.5 -35.5q-61 0 -109 21zM658 -8q-60 0 -96.5 26.5t-36.5 74.5
q0 76 84 106v1q-46 31 -46 80q0 50 39 79.5t99 29.5q59 0 93 -26.5t34 -71.5q0 -67 -75 -95v-1q59 -24 59 -86q0 -55 -43.5 -86t-110.5 -31zM662 52q30 0 53 14.5t23 44.5q0 39 -69 59q-31 -9 -50 -26t-19 -40q0 -26 17.5 -39t44.5 -13zM688 222q65 19 65 64q0 21 -15 32.5
t-39 11.5q-26 0 -43.5 -13.5t-17.5 -37.5q0 -41 50 -57z" />
    <glyph glyph-name="seveneighths" unicode="&#x215e;" horiz-adv-x="886" 
d="M120 0l491 659h77l-490 -659h-78zM638 -8q-60 0 -96.5 26.5t-36.5 74.5q0 76 84 106v1q-46 31 -46 80q0 50 39 79.5t99 29.5q59 0 93 -26.5t34 -71.5q0 -67 -75 -95v-1q59 -24 59 -86q0 -55 -43.5 -86t-110.5 -31zM642 52q30 0 53 14.5t23 44.5q0 39 -69 59
q-31 -9 -50 -26t-19 -40q0 -26 17.5 -39t44.5 -13zM668 222q65 19 65 64q0 21 -15 32.5t-39 11.5q-26 0 -43.5 -13.5t-17.5 -37.5q0 -41 50 -57zM122 270q46 176 176 320h-166l-9 62h268v-38q-141 -158 -189 -344h-80z" />
    <glyph glyph-name="partialdiff" unicode="&#x2202;" horiz-adv-x="518" 
d="M194 -10q-82 0 -130 51t-46 134q1 113 72 181.5t174 68.5q69 0 128 -37h2v35q-3 89 -43 129.5t-99 40.5q-63 0 -131 -42l-32 62q87 52 169 52q101 0 163 -69t62 -193q0 -181 -81 -297t-208 -116zM204 63q69 0 118.5 68.5t65.5 178.5q-55 42 -118 42q-69 0 -115.5 -47.5
t-47.5 -119.5q-2 -55 23.5 -88.5t73.5 -33.5z" />
    <glyph glyph-name="Delta" unicode="&#x2206;" horiz-adv-x="591" 
d="M-40 0l351 662h70l126 -662h-547zM93 75h312l-62 351q-9 49 -16 104h-2q-18 -42 -49 -100z" />
    <glyph glyph-name="product" unicode="&#x220f;" horiz-adv-x="651" 
d="M8 -180l162 766h-88l16 73h609l-29 -73h-90l-162 -766h-88l162 766h-242l-162 -766h-88z" />
    <glyph glyph-name="summation" unicode="&#x2211;" horiz-adv-x="584" 
d="M-47 -180l336 435l-162 404h520l-34 -73h-357l135 -343l-272 -350h362l-16 -73h-512z" />
    <glyph glyph-name="minus" unicode="&#x2212;" horiz-adv-x="531" 
d="M17 215v74h473v-74h-473z" />
    <glyph glyph-name="radical" unicode="&#x221a;" horiz-adv-x="668" 
d="M213 -122l-55 434l-98 -29l-20 76l193 57l34 -296q5 -59 10 -142h2q23 61 59 132l342 717h95l-463 -949h-99z" />
    <glyph glyph-name="infinity" unicode="&#x221e;" horiz-adv-x="768" 
d="M197 99q-76 0 -121.5 49t-45.5 120q0 70 45.5 119.5t121.5 49.5q55 0 98 -29.5t88 -82.5q44 53 87 82.5t101 29.5q76 0 121.5 -49.5t45.5 -119.5q0 -71 -45.5 -120t-121.5 -49q-58 0 -101.5 29.5t-86.5 81.5q-46 -53 -88.5 -82t-97.5 -29zM205 178q37 0 67 23t66 67
q-37 44 -66.5 67t-66.5 23q-38 0 -62 -25t-24 -65q0 -41 23.5 -65.5t62.5 -24.5zM563 178q39 0 62.5 24.5t23.5 65.5q0 40 -24 65t-62 25q-36 0 -66 -23t-68 -67q37 -44 67.5 -67t66.5 -23z" />
    <glyph glyph-name="integral" unicode="&#x222b;" horiz-adv-x="313" 
d="M-158 -215l28 69q27 -15 60 -15q39 0 61 23.5t33 74.5l122 597q11 56 35 96q49 78 144 78q53 0 92 -23l-29 -68q-30 15 -59 15q-39 0 -61.5 -24t-33.5 -74l-122 -597q-13 -64 -34 -96q-49 -78 -144 -78q-54 0 -92 22z" />
    <glyph glyph-name="approxequal" unicode="&#x2248;" horiz-adv-x="531" 
d="M66 109l-46 54q66 66 136 66q37 0 109 -29.5t101 -29.5q41 0 88 43l45 -54q-66 -67 -136 -67q-36 0 -108.5 30t-100.5 30q-41 0 -88 -43zM66 292l-46 54q67 67 136 67q37 0 109 -30t101 -30q24 0 42.5 9.5t45.5 33.5l45 -54q-65 -66 -136 -66q-36 0 -108.5 30t-100.5 30
q-25 0 -43.5 -10t-44.5 -34z" />
    <glyph glyph-name="notequal" unicode="&#x2260;" horiz-adv-x="531" 
d="M111 26l49 100h-134v74h170l51 105h-221v74h257l46 94h87l-46 -94h129v-74h-165l-51 -105h216v-74h-252l-49 -100h-87z" />
    <glyph glyph-name="lessequal" unicode="&#x2264;" horiz-adv-x="531" 
d="M21 0v74h473v-74h-473zM43 274v78l421 152v-76l-332 -114v-2l332 -115v-76z" />
    <glyph glyph-name="greaterequal" unicode="&#x2265;" horiz-adv-x="531" 
d="M16 0v74h473v-74h-473zM46 121v76l332 115v2l-332 114v76l421 -152v-78z" />
    <glyph glyph-name="lozenge" unicode="&#x25ca;" horiz-adv-x="467" 
d="M132 0l-83 289l198 289h81l83 -289l-198 -289h-81zM124 284l58 -213h2l153 223l-58 213h-2z" />
    <glyph glyph-name="Imacron" horiz-adv-x="248" 
d="M10 0l140 659h88l-140 -659h-88zM72 713l14 69h260l-15 -69h-259z" />
    <glyph glyph-name="ibreve" horiz-adv-x="223" 
d="M158 543q-58 0 -88 34t-25 93h62q-2 -68 57 -68q60 0 81 68h65q-13 -60 -53.5 -93.5t-98.5 -33.5zM1 0l101 473h86l-101 -473h-86z" />
    <glyph glyph-name="zero.numr" horiz-adv-x="374" 
d="M187 263q-60 0 -91.5 40.5t-31.5 108.5q0 107 47.5 177.5t124.5 70.5q60 0 91.5 -40.5t31.5 -108.5q0 -107 -47.5 -177.5t-124.5 -70.5zM190 323q41 0 68 59t27 129q0 89 -52 89q-40 0 -67 -59t-27 -129q0 -89 51 -89z" />
    <glyph glyph-name="Adieresis.small" horiz-adv-x="513" 
d="M-44 0l301 534h66l115 -534h-88l-23 122h-214l-66 -122h-91zM152 191h162l-23 119q-11 63 -17 104h-2q-9 -21 -51 -98zM205 583q-19 0 -30.5 11.5t-11.5 30.5q0 25 15 41t37 16q19 0 30.5 -11.5t11.5 -30.5q0 -25 -15 -41t-37 -16zM385 583q-19 0 -30.5 11.5t-11.5 30.5
q0 25 15 41t37 16q19 0 31 -11.5t12 -30.5q0 -24 -15.5 -40.5t-37.5 -16.5z" />
    <glyph glyph-name="Atilde.small" horiz-adv-x="513" 
d="M150 587q4 53 29 79.5t60 26.5q30 0 68 -23.5t53 -23.5q28 0 34 41h62q-4 -53 -28.5 -79.5t-59.5 -26.5q-30 0 -68.5 23.5t-53.5 23.5q-26 0 -33 -41h-63zM-44 0l301 534h66l115 -534h-88l-23 122h-214l-66 -122h-91zM152 191h162l-23 119q-11 63 -17 104h-2
q-9 -21 -51 -98z" />
    <glyph glyph-name="Acircumflex.small" horiz-adv-x="513" 
d="M-44 0l301 534h66l115 -534h-88l-23 122h-214l-66 -122h-91zM152 191h162l-23 119q-11 63 -17 104h-2q-9 -21 -51 -98zM156 566l119 147h74l82 -147h-71l-52 94l-77 -94h-75z" />
    <glyph glyph-name="Aacute.small" horiz-adv-x="513" 
d="M258 566l76 147h100l-109 -147h-67zM-44 0l301 534h66l115 -534h-88l-23 122h-214l-66 -122h-91zM152 191h162l-23 119q-11 63 -17 104h-2q-9 -21 -51 -98z" />
    <glyph glyph-name="Agrave.small" horiz-adv-x="513" 
d="M259 566l-81 147h100l49 -147h-68zM-44 0l301 534h66l115 -534h-88l-23 122h-214l-66 -122h-91zM152 191h162l-23 119q-11 63 -17 104h-2q-9 -21 -51 -98z" />
    <glyph glyph-name="Z.small" horiz-adv-x="465" 
d="M-20 0l333 458h-235l-11 72h394l-333 -458h264l-15 -72h-397z" />
    <glyph glyph-name="Y.small" horiz-adv-x="454" 
d="M125 0l45 211l-110 319h84l78 -246h2l170 246h92l-230 -323l-45 -207h-86z" />
    <glyph glyph-name="X.small" horiz-adv-x="525" 
d="M-40 0l248 276l-139 254h90l108 -200l177 200h99l-238 -266l146 -264h-90l-115 212l-187 -212h-99z" />
    <glyph glyph-name="W.small" horiz-adv-x="744" 
d="M150 -2l-94 532h85l46 -277q12 -73 16 -129h2q32 70 59 120l95 183l-18 103h79l51 -277q12 -72 18 -130h2q28 63 61 130l135 277h89l-272 -532h-64l-42 227q-11 60 -15 92h-2q-9 -19 -46 -91l-120 -228h-65z" />
    <glyph glyph-name="V.small" horiz-adv-x="499" 
d="M164 -2l-108 532h85l52 -289q8 -42 20 -125h2q25 56 63 121l167 293h89l-307 -532h-63z" />
    <glyph glyph-name="U.small" horiz-adv-x="583" 
d="M239 -11q-82 0 -138 39t-56 118q0 36 11 88l63 296h87l-68 -318q-7 -36 -7 -54q0 -47 30 -72t82 -25q85 0 124 60q22 31 35 93l67 316h87l-69 -323q-20 -89 -49 -129q-62 -89 -199 -89z" />
    <glyph glyph-name="T.small" horiz-adv-x="440" 
d="M114 0l97 458h-168l17 72h422l-29 -72h-155l-97 -458h-87z" />
    <glyph glyph-name="S.small" horiz-adv-x="435" 
d="M-3 30l29 67q64 -36 131 -36q56 0 82 24t26 59q0 28 -20.5 50t-49.5 38.5t-57.5 35t-49 50t-20.5 74.5q0 67 49 107.5t126 40.5t143 -29l-17 -69q-56 28 -121 28q-41 0 -66 -19.5t-25 -54.5q0 -27 20.5 -49t49.5 -38.5t57.5 -35.5t49 -50.5t20.5 -72.5
q0 -71 -50.5 -115.5t-146.5 -44.5q-86 0 -160 40z" />
    <glyph glyph-name="R.small" horiz-adv-x="484" 
d="M14 0l113 530h123q82 0 131.5 -36t49.5 -103q0 -59 -39.5 -104t-107.5 -61v-2q24 -25 59 -97l60 -127h-91l-53 114q-30 66 -53 91h-62l-44 -205h-86zM159 274h52q59 0 96 29.5t37 79.5q0 35 -25 56.5t-72 21.5h-49z" />
    <glyph glyph-name="Q.small" horiz-adv-x="610" 
d="M391 -134q-66 0 -114.5 29.5t-100.5 84.5q-10 10 -41.5 37t-48 45.5t-32.5 58t-16 87.5q0 140 86.5 236t214.5 96q97 0 158.5 -59.5t61.5 -158.5q0 -132 -78.5 -226t-196.5 -102h-21v-1q9 -5 27.5 -18t30 -20t33 -13t45.5 -6q31 0 62 9l16 -66q-41 -13 -86 -13zM265 62
q85 0 145 75t60 181q0 67 -36 108.5t-102 41.5q-85 0 -145 -75t-60 -181q0 -67 36 -108.5t102 -41.5z" />
    <glyph glyph-name="P.small" horiz-adv-x="458" 
d="M14 0l113 530h115q89 0 135.5 -42.5t46.5 -110.5q0 -87 -61.5 -140t-175.5 -53h-48l-39 -184h-86zM154 254h46q65 0 101.5 32t36.5 92q0 36 -24.5 59.5t-72.5 23.5h-43z" />
    <glyph glyph-name="O.small" horiz-adv-x="610" 
d="M258 -10q-97 0 -158.5 59.5t-61.5 158.5q0 140 86.5 236t214.5 96q97 0 158.5 -59.5t61.5 -158.5q0 -140 -86.5 -236t-214.5 -96zM265 62q85 0 145 75t60 181q0 67 -36 108.5t-102 41.5q-85 0 -145 -75t-60 -181q0 -67 36 -108.5t102 -41.5z" />
    <glyph glyph-name="N.small" horiz-adv-x="615" 
d="M14 0l113 530h77l153 -289q36 -68 54 -109h2q7 47 24 123l58 275h87l-113 -530h-72l-155 293q-37 64 -55 113h-3q-5 -36 -24 -123l-60 -283h-86z" />
    <glyph glyph-name="M.small" horiz-adv-x="697" 
d="M14 0l113 530h79l73 -191q36 -98 44 -124h2q37 50 89 115l163 200h87l-113 -530h-87l52 244q16 77 34 148h-2q-35 -48 -76 -99l-141 -177h-44l-61 159q-32 85 -42 117h-2q-4 -24 -24 -122l-58 -270h-86z" />
    <glyph glyph-name="L.small" horiz-adv-x="383" 
d="M14 0l113 530h86l-97 -458h202l-17 -72h-287z" />
    <glyph glyph-name="K.small" horiz-adv-x="484" 
d="M14 0l113 530h86l-52 -246h2l234 246h98l-265 -278l186 -252h-97l-167 230h-3l-49 -230h-86z" />
    <glyph glyph-name="J.small" horiz-adv-x="266" 
d="M-118 -122l24 67q22 -9 49 -9q37 0 56 22.5t28 65.5l108 506h86l-111 -523q-30 -144 -160 -144q-46 0 -80 15z" />
    <glyph glyph-name="I.small" horiz-adv-x="246" 
d="M14 0l113 530h86l-113 -530h-86z" />
    <glyph glyph-name="H.small" horiz-adv-x="595" 
d="M14 0l113 530h86l-48 -225h262l49 225h86l-113 -530h-87l50 233h-262l-50 -233h-86z" />
    <glyph glyph-name="G.small" horiz-adv-x="562" 
d="M275 -10q-111 0 -174 62.5t-63 167.5q0 134 87 227t217 93q86 0 161 -33l-19 -70q-59 31 -133 31q-91 0 -157.5 -67.5t-66.5 -177.5q0 -76 40 -119t114 -43q43 0 82 16l37 175h87l-49 -228q-80 -34 -163 -34z" />
    <glyph glyph-name="F.small" horiz-adv-x="410" 
d="M14 0l113 530h287l-28 -72h-188l-35 -164h186l-15 -69h-186l-48 -225h-86z" />
    <glyph glyph-name="E.small" horiz-adv-x="441" 
d="M14 0l113 530h287l-27 -69h-189l-33 -158h186l-16 -70h-185l-34 -164h211l-15 -69h-298z" />
    <glyph glyph-name="D.small" horiz-adv-x="558" 
d="M14 0l113 530h122q117 0 187.5 -59t70.5 -164q0 -133 -90 -220t-247 -87h-156zM116 72h66q106 0 171.5 65.5t65.5 170.5q0 70 -46 110t-128 40h-48z" />
    <glyph glyph-name="C.small" horiz-adv-x="503" 
d="M267 -10q-104 0 -166.5 61t-62.5 164q0 136 85.5 230.5t216.5 94.5q76 0 138 -30l-19 -69q-56 27 -115 27q-89 0 -153 -68t-64 -180q0 -76 39 -117t109 -41q69 0 134 35l18 -68q-75 -39 -160 -39z" />
    <glyph glyph-name="B.small" horiz-adv-x="483" 
d="M14 0l113 530h143q70 0 112.5 -31.5t42.5 -91.5q0 -44 -25.5 -78.5t-69.5 -53.5v-2q36 -9 59 -36t23 -66q0 -72 -60.5 -121.5t-169.5 -49.5h-168zM115 66h74q61 0 98 28t37 73q0 34 -24 52t-65 18h-84zM164 300h66q46 0 77 27.5t31 71.5q0 65 -80 65h-59z" />
    <glyph glyph-name="A.small" horiz-adv-x="513" 
d="M-44 0l301 534h66l115 -534h-88l-23 122h-214l-66 -122h-91zM152 191h162l-23 119q-11 63 -17 104h-2q-9 -21 -51 -98z" />
    <glyph glyph-name="four.OT" horiz-adv-x="524" 
d="M219 -195l41 195h-260l-12 60l393 426h69l-87 -413h88l-15 -73h-89l-37 -174zM277 73l33 157q18 75 30 117h-2l-249 -275q14 0 47 0.5t49 0.5h92z" />
    <glyph glyph-name="three.OT" horiz-adv-x="524" 
d="M-17 -172l25 69q50 -20 110 -20q93 0 146.5 43.5t53.5 103.5q0 48 -34.5 72t-111.5 24h-85l9 68q117 2 182 39t65 108q0 43 -27 65t-72 22q-65 0 -149 -41l-22 64q92 49 182 49q80 0 128.5 -40t48.5 -107t-38.5 -112.5t-95.5 -66.5v-2q49 -12 78.5 -46t29.5 -89
q0 -100 -78.5 -163t-210.5 -63q-75 0 -134 23z" />
    <glyph glyph-name="two.OT" horiz-adv-x="524" 
d="M23 0q9 58 36 105t61.5 74.5t72.5 52.5t69.5 42t52 39t20.5 46q0 27 -22.5 45t-63.5 18q-67 0 -141 -35l-18 66q82 41 173 41q74 0 117.5 -36t43.5 -92q0 -40 -24 -72.5t-61 -56t-75.5 -46t-73 -54t-48.5 -67.5h249l-15 -70h-353z" />
    <glyph glyph-name="one.OT" horiz-adv-x="524" 
d="M203 0l81 381q-30 -17 -83.5 -36.5t-93.5 -26.5v72q45 11 110.5 40t104.5 56h71l-104 -486h-86z" />
    <glyph glyph-name="zero.OT" horiz-adv-x="524" 
d="M210 -10q-85 0 -134 53.5t-49 142.5q0 136 74 222t180 86q85 0 134 -53.5t49 -142.5q0 -136 -74 -222t-180 -86zM218 62q66 0 111.5 68t45.5 162q0 60 -26 94.5t-76 34.5q-66 0 -111.5 -67.5t-45.5 -161.5q0 -60 26 -95t76 -35z" />
    <glyph glyph-name="yen.OP" horiz-adv-x="524" 
d="M154 0l18 86h-125l12 60h125l13 61h-127l12 61h96l-85 242h84l73 -222h2l152 222h92l-172 -242h96l-12 -61h-127l-13 -61h128l-12 -60h-129l-18 -86h-83z" />
    <glyph glyph-name="sterling.OP" horiz-adv-x="524" 
d="M45 0l7 56q71 26 92 172h-56l10 64h55l9 60q13 81 63 124t126 43q61 0 101 -21l-27 -67q-30 16 -69 16q-44 0 -71.5 -27t-35.5 -75l-8 -53h157l-21 -64h-146q-18 -115 -61 -161l1 -2q22 2 67 2h154l-9 -67h-338z" />
    <glyph glyph-name="dollar.OP" horiz-adv-x="524" 
d="M150 -64l17 78q-66 5 -120 33l28 65q56 -29 122 -29q52 0 81.5 18.5t29.5 53.5q0 25 -20 43.5t-48 31.5t-56 28.5t-48 42.5t-20 65q0 54 39 91.5t113 44.5l15 71h67l-14 -72q62 -9 99 -26l-14 -70q-58 28 -124 28q-44 0 -69.5 -15t-25.5 -43q0 -23 20 -41t48 -32
t56.5 -30t48.5 -44.5t20 -66.5q0 -62 -42.5 -100t-119.5 -46l-15 -79h-68z" />
    <glyph glyph-name="Euro.OP" horiz-adv-x="524" 
d="M38 159l8 57h54q0 37 8 77h-57l9 57h65q30 77 91.5 123t142.5 46q64 0 121 -30l-17 -70q-53 29 -102 29q-46 0 -84.5 -25.5t-61.5 -72.5h190l-19 -57h-193q-8 -38 -8 -77h191l-20 -57h-166q17 -98 114 -98q56 0 111 34l18 -67q-64 -38 -137 -38q-79 0 -129 44t-63 125
h-66z" />
    <glyph glyph-name="nine.OP" horiz-adv-x="531" 
d="M19 -199l-9 72q116 14 206.5 76t131.5 158l-2 1q-65 -39 -135 -39q-80 0 -128 51.5t-48 136.5q0 106 63 171.5t160 65.5q99 0 152.5 -66t53.5 -166q0 -79 -25.5 -152.5t-77 -138t-139.5 -110t-203 -60.5zM235 141q68 0 131 44q9 30 9 79q0 63 -29 110t-89 47t-97 -43
t-37 -112q0 -56 27 -90.5t85 -34.5z" />
    <glyph glyph-name="eight.OP" horiz-adv-x="552" 
d="M238 -10q-97 0 -155.5 45.5t-58.5 123.5q0 68 43 113.5t112 68.5v2q-87 51 -87 141q0 78 62 129.5t160 51.5q91 0 145.5 -43.5t54.5 -113.5q0 -60 -42 -104t-103 -67v-2q113 -44 113 -150q0 -90 -72 -142.5t-172 -52.5zM242 61q63 0 105 32t42 88q0 45 -36.5 74
t-104.5 49q-59 -19 -94.5 -55t-35.5 -84q0 -52 37 -78t87 -26zM288 370q134 40 134 131q0 45 -31.5 69t-81.5 24q-51 0 -87.5 -28.5t-36.5 -79.5q0 -38 27.5 -69.5t75.5 -46.5z" />
    <glyph glyph-name="seven.OP" horiz-adv-x="472" 
d="M31 -200q46 175 128.5 336t179.5 279h-295l-11 71h427v-33q-108 -125 -199 -297t-130 -336z" />
    <glyph glyph-name="six.OP" horiz-adv-x="531" 
d="M231 -10q-87 0 -141.5 60t-54.5 171q0 77 25 150t75 137.5t133.5 110.5t191.5 61l10 -73q-118 -15 -211 -86.5t-124 -178.5h2q26 29 67.5 49t88.5 20q75 0 123 -48t48 -132q0 -100 -64 -170.5t-169 -70.5zM237 62q58 0 98.5 44t40.5 115q0 51 -28.5 84t-76.5 33
q-40 0 -76 -22t-54 -59q-16 -29 -16 -70q0 -53 29.5 -89t82.5 -36z" />
    <glyph glyph-name="five.OP" horiz-adv-x="472" 
d="M-41 -173l26 69q45 -19 107 -19q88 0 145 43.5t57 120.5q0 63 -44 85.5t-124 22.5h-71l68 337h338l-25 -71h-243l-40 -199h22q95 0 151.5 -42t56.5 -130q0 -102 -76.5 -170.5t-217.5 -68.5q-78 0 -130 22z" />
    <glyph glyph-name="four.OP" horiz-adv-x="524" 
d="M214 -195l42 195h-261l-12 60l393 426h69l-87 -413h88l-15 -73h-89l-36 -174zM272 73l33 157q18 75 30 117h-2l-249 -275q15 0 47.5 0.5t48.5 0.5h92z" />
    <glyph glyph-name="three.OP" horiz-adv-x="494" 
d="M-33 -172l24 69q52 -20 111 -20q92 0 145.5 43.5t53.5 103.5q0 48 -34 72t-112 24h-84l9 68q117 2 182 39t65 108q0 43 -27 65t-72 22q-64 0 -150 -41l-21 64q90 49 182 49q80 0 128 -40t48 -107t-38 -112.5t-96 -66.5v-2q49 -12 79 -46t30 -89q0 -100 -79 -163t-210 -63
q-77 0 -134 23z" />
    <glyph glyph-name="two.OP" horiz-adv-x="498" 
d="M12 0q8 58 35.5 105t61.5 74.5t72.5 52.5t70 42t52 39t20.5 46q0 27 -23 45t-64 18q-65 0 -141 -35l-17 66q80 41 173 41q74 0 117.5 -36t43.5 -92q0 -40 -24 -72.5t-61 -56t-75.5 -46t-73 -54t-48.5 -67.5h249l-15 -70h-353z" />
    <glyph glyph-name="one.OP" horiz-adv-x="382" 
d="M123 0l82 381q-71 -40 -153 -59v73q97 26 191 91h71l-104 -486h-87z" />
    <glyph glyph-name="zero.OP" horiz-adv-x="524" 
d="M211 -10q-85 0 -133 53t-48 143q0 136 72.5 222t177.5 86q85 0 133 -53t48 -143q0 -136 -72.5 -222t-177.5 -86zM218 62q66 0 110 67.5t44 162.5q0 59 -25 94t-74 35q-66 0 -110.5 -67.5t-44.5 -161.5q0 -59 25.5 -94.5t74.5 -35.5z" />
    <glyph glyph-name="yen.LT" horiz-adv-x="529" 
d="M152 0l25 120h-156l12 61h158l17 81h-161l13 61h131l-100 336h90l82 -309h2l189 309h96l-218 -336h132l-13 -61h-158l-17 -81h161l-13 -61h-161l-26 -120h-85z" />
    <glyph glyph-name="sterling.LT" horiz-adv-x="529" 
d="M27 0l9 60q26 10 46.5 32.5t32.5 46t22.5 58.5t14 54.5t8.5 48.5h-75l11 73h74l12 79q9 69 34 112q56 101 181 101q59 0 112 -24l-30 -69q-36 18 -77 18q-77 0 -112 -70q-15 -29 -21 -77l-10 -70h178l-24 -73h-164q-29 -184 -99 -231v-2q50 6 108 6h173l-11 -73h-393z
" />
    <glyph glyph-name="five.OT" horiz-adv-x="524" 
d="M-22 -173l25 69q45 -19 107 -19q88 0 145 43.5t57 120.5q0 63 -44 85.5t-124 22.5h-71l68 337h339l-26 -71h-243l-40 -199h22q95 0 151.5 -42t56.5 -130q0 -102 -76.5 -170.5t-217.5 -68.5q-78 0 -129 22z" />
    <glyph glyph-name="six.OT" horiz-adv-x="524" 
d="M228 -10q-87 0 -141.5 60t-54.5 171q0 77 25 150t75 137.5t133.5 110.5t191.5 61l10 -73q-118 -15 -211 -86t-125 -179h2q26 29 68 49t89 20q75 0 123 -48.5t48 -131.5q0 -100 -64 -170.5t-169 -70.5zM234 62q57 0 97.5 44t40.5 115q0 51 -28.5 84t-75.5 33
q-41 0 -77 -21.5t-54 -59.5q-16 -32 -16 -70q0 -52 30 -88.5t83 -36.5z" />
    <glyph glyph-name="seven.OT" horiz-adv-x="524" 
d="M69 -200q46 176 128.5 336.5t179.5 278.5h-295l-11 71h427v-33q-108 -125 -199 -297t-130 -336z" />
    <glyph glyph-name="eight.OT" horiz-adv-x="524" 
d="M225 -10q-97 0 -155.5 45.5t-58.5 123.5q0 68 42.5 113.5t112.5 68.5v2q-87 51 -87 141q0 78 62 129.5t160 51.5q91 0 145.5 -43.5t54.5 -113.5q0 -60 -42 -104t-103 -67v-2q113 -44 113 -150q0 -90 -72 -142.5t-172 -52.5zM228 61q64 0 106 32t42 88q0 45 -36.5 74
t-105.5 49q-59 -19 -94.5 -55t-35.5 -84q0 -52 37 -78t87 -26zM275 370q134 40 134 131q0 45 -31.5 69t-81.5 24q-51 0 -87.5 -28.5t-36.5 -79.5q0 -38 27.5 -69.5t75.5 -46.5z" />
    <glyph glyph-name="nine.OT" horiz-adv-x="524" 
d="M16 -199l-10 72q117 14 207.5 76t130.5 158l-2 1q-64 -39 -134 -39q-80 0 -128.5 51.5t-48.5 136.5q0 106 63.5 171.5t160.5 65.5q98 0 152 -66t54 -166q0 -79 -25.5 -152.5t-77 -138t-139.5 -110t-203 -60.5zM231 141q70 0 131 44q9 30 9 79q0 64 -29 110.5t-89 46.5
t-96.5 -43t-36.5 -112q0 -56 26.5 -90.5t84.5 -34.5z" />
    <glyph glyph-name="Euro.OT" horiz-adv-x="524" 
d="M38 159l8 57h54q0 37 8 77h-57l9 57h65q30 77 91.5 123t142.5 46q64 0 121 -30l-17 -70q-53 29 -102 29q-46 0 -84.5 -25.5t-61.5 -72.5h190l-19 -57h-193q-8 -38 -8 -77h191l-20 -57h-166q17 -98 114 -98q56 0 111 34l18 -67q-64 -38 -137 -38q-79 0 -129 44t-63 125
h-66z" />
    <glyph glyph-name="dollar.OT" horiz-adv-x="524" 
d="M150 -64l17 78q-66 5 -120 33l28 65q56 -29 122 -29q52 0 81.5 18.5t29.5 53.5q0 25 -20 43.5t-48 31.5t-56 28.5t-48 42.5t-20 65q0 54 39 91.5t113 44.5l15 71h67l-14 -72q62 -9 99 -26l-14 -70q-58 28 -124 28q-44 0 -69.5 -15t-25.5 -43q0 -23 20 -41t48 -32
t56.5 -30t48.5 -44.5t20 -66.5q0 -62 -42.5 -100t-119.5 -46l-15 -79h-68z" />
    <glyph glyph-name="sterling.OT" horiz-adv-x="524" 
d="M45 0l7 56q71 26 92 172h-56l10 64h55l9 60q13 81 63 124t126 43q61 0 101 -21l-27 -67q-30 16 -69 16q-44 0 -71.5 -27t-35.5 -75l-8 -53h157l-21 -64h-146q-18 -115 -61 -161l1 -2q22 2 67 2h154l-9 -67h-338z" />
    <glyph glyph-name="yen.OT" horiz-adv-x="524" 
d="M154 0l18 86h-125l12 60h125l13 61h-127l12 61h96l-85 242h84l73 -222h2l152 222h92l-172 -242h96l-12 -61h-127l-13 -61h128l-12 -60h-129l-18 -86h-83z" />
    <glyph glyph-name="zero.small" horiz-adv-x="461" 
d="M180 -10q-73 0 -114.5 48.5t-41.5 137.5q0 82 25 162.5t82.5 141t135.5 60.5q73 0 114.5 -48.5t41.5 -137.5q0 -82 -25 -162.5t-82.5 -141t-135.5 -60.5zM184 62q61 0 105.5 92.5t44.5 198.5q0 115 -71 115q-40 0 -75 -45t-54.5 -112t-19.5 -134q0 -115 70 -115z" />
    <glyph glyph-name="one.small" horiz-adv-x="354" 
d="M105 0l93 435q-64 -32 -139 -48v73q40 10 92.5 31.5t83.5 42.5h71l-114 -534h-87z" />
    <glyph glyph-name="two.small" horiz-adv-x="445" 
d="M1 0q10 69 38 122.5t62 84t71 56.5t67.5 43.5t50.5 42t20 53.5q0 31 -21.5 48.5t-58.5 17.5q-62 0 -136 -36l-17 69q84 39 165 39q68 0 113 -36t45 -98q0 -44 -24.5 -78.5t-62 -60t-77 -50.5t-75.5 -63t-51 -85h256l-15 -69h-350z" />
    <glyph glyph-name="three.small" horiz-adv-x="447" 
d="M-5 30l33 64q59 -32 123 -32q61 0 96 28t35 73q0 71 -124 71h-72l9 70h42q53 0 84 7q38 10 61.5 34t23.5 58q0 31 -24 48t-62 17q-60 0 -128 -31l-16 67q80 36 156 36t120 -36t44 -96q0 -46 -30.5 -81.5t-80.5 -54.5v-2q86 -25 86 -105q0 -75 -60 -125t-158 -50
q-89 0 -158 40z" />
    <glyph glyph-name="four.small" horiz-adv-x="493" 
d="M223 0l28 131h-216l-8 60l330 343h67l-71 -333h79l-15 -70h-79l-28 -131h-87zM269 201l21 98q8 38 27 109l-195 -208q19 1 57 1h90z" />
    <glyph glyph-name="five.small" horiz-adv-x="444" 
d="M-7 30l35 64q49 -31 115 -31q59 0 96 30t37 79q0 81 -131 81h-75l59 277h297l-23 -69h-207l-29 -140h15q88 0 136 -39.5t48 -104.5q0 -80 -61 -133.5t-160 -53.5q-86 0 -152 40z" />
    <glyph glyph-name="six.small" horiz-adv-x="480" 
d="M216 -10q-81 0 -127.5 53t-46.5 141q0 156 89 256t218 100q49 0 90 -15l-25 -66q-31 10 -66 10q-79 0 -136.5 -54t-77.5 -130h2q49 51 120 51q70 0 111.5 -42.5t41.5 -113.5q0 -81 -56 -135.5t-137 -54.5zM217 61q43 0 74 32.5t31 81.5q0 39 -22 65t-64 26
q-44 0 -74.5 -30t-30.5 -80q0 -40 22.5 -67.5t63.5 -27.5z" />
    <glyph glyph-name="seven.small" horiz-adv-x="405" 
d="M48 0q65 255 244 458h-233l-8 72h359v-35q-210 -237 -273 -495h-89z" />
    <glyph glyph-name="eight.small" horiz-adv-x="482" 
d="M203 -10q-83 0 -131.5 37.5t-48.5 101.5q0 54 33.5 91.5t90.5 58.5v2q-67 38 -67 110q0 62 50.5 105.5t133.5 43.5q79 0 124.5 -37t45.5 -96q0 -47 -33.5 -82.5t-83.5 -54.5v-2q89 -36 89 -116q0 -74 -59 -118t-144 -44zM205 59q48 0 81 24t33 66q0 63 -106 94
q-43 -13 -73 -40t-30 -67q0 -39 28.5 -58t66.5 -19zM244 304q44 11 73 35.5t29 62.5q0 33 -23.5 51t-61.5 18q-39 0 -66.5 -21.5t-27.5 -58.5q0 -29 20 -52.5t57 -34.5z" />
    <glyph glyph-name="nine.small" horiz-adv-x="488" 
d="M36 14l24 66q41 -19 91 -19q71 0 117 46t63 121h-2q-54 -34 -114 -34q-68 0 -112.5 39t-44.5 111q0 85 53.5 140.5t134.5 55.5q82 0 132.5 -54t50.5 -155q0 -64 -16 -122.5t-47.5 -108.5t-86.5 -80t-126 -30q-66 0 -117 24zM232 264q55 0 108 34q2 20 2 42q0 61 -25.5 95
t-71.5 34q-43 0 -71 -34.5t-28 -84.5q0 -39 22 -62.5t64 -23.5z" />
    <glyph glyph-name="Euro.small" horiz-adv-x="453" 
d="M5 167l8 57h53q0 39 8 79h-56l9 58h64q32 83 96 131t143 48q68 0 123 -31l-18 -72q-49 31 -102 31q-47 0 -86 -28t-64 -79h194l-19 -58h-197q-9 -42 -10 -79h192l-20 -57h-166q16 -105 114 -105q54 0 111 34l19 -67q-66 -39 -139 -39q-80 0 -130 47t-62 130h-65z" />
    <glyph glyph-name="dollar.small" horiz-adv-x="453" 
d="M112 -67l17 82q-60 9 -103 34l29 64q53 -30 113 -30q49 0 74 20.5t25 56.5q0 26 -18 46.5t-43.5 36.5t-51.5 33.5t-44 45t-18 63.5q0 54 39.5 91.5t105.5 43.5l16 76h71l-17 -77q38 -5 85 -23l-13 -72q-54 28 -112 28q-37 0 -61.5 -15.5t-24.5 -45.5q0 -23 18 -41.5
t43.5 -33.5t51.5 -32.5t44 -47.5t18 -69q0 -62 -42.5 -103.5t-114.5 -48.5l-17 -82h-70z" />
    <glyph glyph-name="sterling.small" horiz-adv-x="453" 
d="M8 0l9 60q81 28 102 175h-63l12 70h60l10 61q8 55 31 92q49 82 152 82q58 0 104 -23l-27 -67q-33 18 -72 18q-58 0 -85 -50q-13 -23 -20 -64l-8 -49h154l-24 -70h-140q-20 -122 -68 -165v-2q23 1 82 1h145l-12 -69h-342z" />
    <glyph glyph-name="yen.small" horiz-adv-x="453" 
d="M14 91l12 59h130l12 58h-132l12 59h106l-81 263h85l65 -239h2l150 239h95l-178 -263h105l-13 -59h-132l-12 -58h134l-12 -59h-134l-19 -91h-85l19 91h-129z" />
    <glyph glyph-name="six.LT" horiz-adv-x="529" 
d="M243 -10q-93 0 -147 58.5t-54 177.5q0 188 102 313.5t264 125.5q49 0 96 -16l-27 -69q-29 11 -70 11q-106 0 -179.5 -77t-96.5 -191h2q25 37 69.5 59.5t92.5 22.5q82 0 130 -49.5t48 -134.5q0 -99 -67 -165t-163 -66zM245 64q56 0 95.5 42t39.5 109q0 51 -27.5 83.5
t-79.5 32.5q-57 0 -97.5 -41.5t-40.5 -107.5q0 -52 28.5 -85t81.5 -33z" />
    <glyph glyph-name="seven.LT" horiz-adv-x="529" 
d="M96 0q79 318 307 584h-295l-8 75h422v-36q-255 -298 -333 -623h-93z" />
    <glyph glyph-name="eight.LT" horiz-adv-x="529" 
d="M228 -10q-97 0 -155 45.5t-58 123.5q0 68 42.5 113.5t111.5 68.5v2q-87 51 -87 141q0 78 62 129.5t160 51.5q92 0 146.5 -43.5t54.5 -113.5q0 -60 -42 -104t-104 -67v-2q113 -44 113 -150q0 -90 -72 -142.5t-172 -52.5zM232 61q63 0 105 32t42 88q0 45 -36.5 74
t-104.5 49q-59 -19 -94.5 -55t-35.5 -84q0 -52 37 -78t87 -26zM278 370q134 40 134 131q0 45 -31.5 69t-81.5 24q-51 0 -87.5 -28.5t-36.5 -79.5q0 -38 27.5 -69.5t75.5 -46.5z" />
    <glyph glyph-name="nine.LT" horiz-adv-x="529" 
d="M27 15l25 70q42 -21 97 -21q190 0 236 227h-2q-68 -49 -155 -49q-77 0 -127.5 47.5t-50.5 136.5q0 107 64.5 173t159.5 66q96 0 154.5 -63.5t58.5 -182.5q0 -204 -89.5 -316.5t-243.5 -112.5q-74 0 -127 25zM252 315q69 0 141 52q5 28 5 59q0 78 -33 122t-92 44
q-56 0 -93 -46.5t-37 -114.5q0 -52 28 -84t81 -32z" />
    <glyph glyph-name="Euro.LT" horiz-adv-x="529" 
d="M20 213l8 61h64v6q0 54 10 100h-67l9 61h74q36 104 113 164t176 60q81 0 135 -35l-15 -77q-56 35 -115 35q-68 0 -118.5 -39.5t-78.5 -107.5h242l-21 -61h-241q-10 -41 -10 -92v-14h234l-21 -61h-208q19 -146 139 -146q63 0 125 38l18 -71q-67 -44 -154 -44
q-97 0 -153.5 57t-69.5 166h-75z" />
    <glyph glyph-name="dollar.LT" horiz-adv-x="529" 
d="M141 -82l21 100q-65 6 -119 39l31 68q57 -36 122 -36q55 0 92.5 24.5t37.5 80.5q0 30 -15 55t-37 41t-48.5 35.5t-48.5 37.5t-37 48.5t-15 68.5q0 69 47 114.5t122 53.5l19 93h70l-20 -94q57 -7 101 -29l-16 -72q-59 31 -124 31q-46 0 -77.5 -21.5t-31.5 -64.5
q0 -27 15 -49.5t37 -37.5t48.5 -34t48.5 -38.5t37 -52.5t15 -75q0 -81 -51.5 -129t-132.5 -57l-21 -100h-70z" />
    <glyph glyph-name="plusinferior" horiz-adv-x="408" 
d="M114 -150v132h-123v60h123v128h63v-128h123v-60h-123v-132h-63z" />
    <glyph glyph-name="minusinferior" horiz-adv-x="408" 
d="M-9 -18v60h309v-60h-309z" />
    <glyph glyph-name="equalinferior" horiz-adv-x="408" 
d="M-9 -82v59h309v-59h-309zM-9 47v59h309v-59h-309z" />
    <glyph glyph-name="five.LT" horiz-adv-x="529" 
d="M3 29l37 70q53 -33 126 -33q74 0 127.5 38t53.5 110q0 110 -169 110h-83l69 335h347l-25 -75h-250l-39 -188h30q105 0 159 -48.5t54 -124.5q0 -104 -75.5 -168.5t-196.5 -64.5q-102 0 -165 39z" />
    <glyph glyph-name="four.LT" horiz-adv-x="529" 
d="M255 0l36 171h-263l-10 67l391 426h73l-89 -420h96l-16 -73h-96l-36 -171h-86zM307 244l28 128q18 82 39 154l-257 -283q13 0 43 0.5t46 0.5h101z" />
    <glyph glyph-name="three.LT" horiz-adv-x="531" 
d="M2 29l37 70q58 -33 137 -33q68 0 120.5 32t52.5 101q0 54 -39 76t-117 22h-77l9 72h44q61 0 99 11q50 14 80 45t30 78q0 44 -30 65t-79 21q-70 0 -150 -35l-16 69q92 42 182 42q87 0 136.5 -41t49.5 -112q0 -125 -141 -172v-2q112 -25 112 -134q0 -93 -73 -153.5
t-192 -60.5q-105 0 -175 39z" />
    <glyph glyph-name="two.LT" horiz-adv-x="529" 
d="M8 0q10 70 36 128t60 95.5t72.5 68.5t75 54.5t66.5 46.5t48 50.5t18 60.5q0 85 -103 85q-73 0 -159 -41l-17 71q100 46 190 46q82 0 131.5 -41t49.5 -113q0 -56 -31 -100.5t-77.5 -78t-95 -66.5t-90.5 -82t-57 -109h306l-17 -75h-406z" />
    <glyph glyph-name="Amacron.small" horiz-adv-x="513" 
d="M167 607l14 69h260l-15 -69h-259zM-44 0l301 534h66l115 -534h-88l-23 122h-214l-66 -122h-91zM152 191h162l-23 119q-11 63 -17 104h-2q-9 -21 -51 -98z" />
    <glyph glyph-name="Ccircumflex.small" horiz-adv-x="503" 
d="M267 -10q-104 0 -166.5 61t-62.5 164q0 136 85.5 230.5t216.5 94.5q76 0 138 -30l-19 -69q-56 27 -115 27q-89 0 -153 -68t-64 -180q0 -76 39 -117t109 -41q69 0 134 35l18 -68q-75 -39 -160 -39zM186 566l119 147h74l82 -147h-71l-52 94l-77 -94h-75z" />
    <glyph glyph-name="Abreve.small" horiz-adv-x="513" 
d="M293 578q-58 0 -88 34t-25 93h62q-2 -68 57 -68q60 0 81 68h65q-13 -60 -53.5 -93.5t-98.5 -33.5zM-44 0l301 534h66l115 -534h-88l-23 122h-214l-66 -122h-91zM152 191h162l-23 119q-11 63 -17 104h-2q-9 -21 -51 -98z" />
    <glyph glyph-name="Ccaron.small" horiz-adv-x="503" 
d="M292 567l-81 147h71l52 -95l77 95h75l-119 -147h-75zM267 -10q-104 0 -166.5 61t-62.5 164q0 136 85.5 230.5t216.5 94.5q76 0 138 -30l-19 -69q-56 27 -115 27q-89 0 -153 -68t-64 -180q0 -76 39 -117t109 -41q69 0 134 35l18 -68q-75 -39 -160 -39z" />
    <glyph glyph-name="Cdotaccent.small" horiz-adv-x="503" 
d="M267 -10q-104 0 -166.5 61t-62.5 164q0 136 85.5 230.5t216.5 94.5q76 0 138 -30l-19 -69q-56 27 -115 27q-89 0 -153 -68t-64 -180q0 -76 39 -117t109 -41q69 0 134 35l18 -68q-75 -39 -160 -39zM338 599q-24 0 -38 14t-14 35q0 28 19 45.5t44 17.5q24 0 38 -14t14 -35
q0 -27 -19 -45t-44 -18z" />
    <glyph glyph-name="Ccedilla.small" horiz-adv-x="503" 
d="M104 -198l21 45q19 -10 47 -10q60 0 60 41q0 35 -78 32l42 88q-74 20 -116 77t-42 140q0 136 85.5 230.5t216.5 94.5q76 0 138 -30l-19 -69q-56 27 -115 27q-89 0 -153 -68t-64 -180q0 -76 39 -117t109 -41q69 0 134 35l18 -68q-84 -43 -169 -38l-20 -44q33 -2 52 -19.5
t19 -45.5q0 -45 -36.5 -69.5t-94.5 -24.5q-42 0 -74 14z" />
    <glyph glyph-name="Dcaron.small" horiz-adv-x="558" 
d="M265 567l-81 147h71l52 -95l77 95h75l-119 -147h-75zM14 0l113 530h122q117 0 187.5 -59t70.5 -164q0 -133 -90 -220t-247 -87h-156zM116 72h66q106 0 171.5 65.5t65.5 170.5q0 70 -46 110t-128 40h-48z" />
    <glyph glyph-name="Dcroat.small" horiz-adv-x="558" 
d="M14 0l49 233h-67l15 69h67l49 228h122q117 0 187.5 -59t70.5 -164q0 -133 -90 -220t-247 -87h-156zM116 72h66q106 0 171.5 65.5t65.5 170.5q0 70 -46 110t-128 40h-48l-33 -156h131l-15 -69h-130z" />
    <glyph glyph-name="Egrave.small" horiz-adv-x="441" 
d="M242 566l-81 147h100l49 -147h-68zM14 0l113 530h287l-27 -69h-189l-33 -158h186l-16 -70h-185l-34 -164h211l-15 -69h-298z" />
    <glyph glyph-name="Eacute.small" horiz-adv-x="441" 
d="M232 566l76 147h100l-109 -147h-67zM14 0l113 530h287l-27 -69h-189l-33 -158h186l-16 -70h-185l-34 -164h211l-15 -69h-298z" />
    <glyph glyph-name="Ecircumflex.small" horiz-adv-x="441" 
d="M14 0l113 530h287l-27 -69h-189l-33 -158h186l-16 -70h-185l-34 -164h211l-15 -69h-298zM139 566l119 147h74l82 -147h-71l-52 94l-77 -94h-75z" />
    <glyph glyph-name="Ecaron.small" horiz-adv-x="441" 
d="M233 567l-81 147h71l52 -95l77 95h75l-119 -147h-75zM14 0l113 530h287l-27 -69h-189l-33 -158h186l-16 -70h-185l-34 -164h211l-15 -69h-298z" />
    <glyph glyph-name="Edieresis.small" horiz-adv-x="441" 
d="M14 0l113 530h287l-27 -69h-189l-33 -158h186l-16 -70h-185l-34 -164h211l-15 -69h-298zM189 583q-19 0 -30.5 11.5t-11.5 30.5q0 25 15 41t37 16q19 0 30.5 -11.5t11.5 -30.5q0 -25 -15 -41t-37 -16zM369 583q-19 0 -30.5 11.5t-11.5 30.5q0 25 15 41t37 16
q19 0 31 -11.5t12 -30.5q0 -24 -15.5 -40.5t-37.5 -16.5z" />
    <glyph glyph-name="Emacron.small" horiz-adv-x="441" 
d="M150 607l14 69h260l-15 -69h-259zM14 0l113 530h287l-27 -69h-189l-33 -158h186l-16 -70h-185l-34 -164h211l-15 -69h-298z" />
    <glyph glyph-name="Aring.small" horiz-adv-x="513" 
d="M-44 0l301 533q-28 7 -45.5 28t-17.5 51q0 48 33.5 78t83.5 30q44 0 71 -23t27 -61q0 -41 -24 -68t-62 -35l115 -533h-88l-23 122h-214l-66 -122h-91zM152 191h162l-23 119q-11 63 -17 104h-2q-9 -21 -51 -98zM295 572q24 0 38.5 17.5t14.5 43.5q0 20 -10.5 31.5
t-29.5 11.5q-24 0 -38.5 -17.5t-14.5 -44.5q0 -19 10.5 -30.5t29.5 -11.5z" />
    <glyph glyph-name="Ebreve.small" horiz-adv-x="441" 
d="M272 578q-58 0 -88 34t-25 93h62q-2 -68 57 -68q60 0 81 68h65q-13 -60 -53.5 -93.5t-98.5 -33.5zM14 0l113 530h287l-27 -69h-189l-33 -158h186l-16 -70h-185l-34 -164h211l-15 -69h-298z" />
    <glyph glyph-name="Aringacute.small" horiz-adv-x="513" 
d="M-44 0l301 533q-28 7 -45.5 28t-17.5 51q0 46 31 75.5t77 31.5l63 125h100l-101 -136q45 -21 45 -72q0 -41 -24 -68t-62 -35l115 -533h-88l-23 122h-214l-66 -122h-91zM152 191h162l-23 119q-11 63 -17 104h-2q-9 -21 -51 -98zM295 572q24 0 38.5 17.5t14.5 43.5
q0 20 -10.5 31.5t-29.5 11.5q-24 0 -38.5 -17.5t-14.5 -44.5q0 -19 10.5 -30.5t29.5 -11.5z" />
    <glyph glyph-name="Aogonek.small" horiz-adv-x="513" 
d="M-44 0l302 534h65l115 -534q-58 -22 -100.5 -55.5t-42.5 -69.5q0 -32 34 -32q16 0 38 8l7 -53q-38 -11 -69 -11q-43 0 -64 20t-21 51q0 91 127 151l-20 113h-214l-66 -122h-91zM152 191h162l-23 119q-11 63 -17 104h-2q-9 -21 -51 -98z" />
    <glyph glyph-name="Edotaccent.small" horiz-adv-x="441" 
d="M14 0l113 530h287l-27 -69h-189l-33 -158h186l-16 -70h-185l-34 -164h211l-15 -69h-298zM275 599q-24 0 -38 14t-14 35q0 28 19 45.5t44 17.5q24 0 38 -14t14 -35q0 -27 -19 -45t-44 -18z" />
    <glyph glyph-name="Eogonek.small" horiz-adv-x="441" 
d="M14 0l113 530h287l-27 -69h-189l-33 -158h186l-16 -70h-185l-34 -164h211l-15 -69h-14q-134 -62 -134 -125q0 -32 34 -32q14 0 38 8l6 -53q-38 -11 -69 -11q-43 0 -63.5 19.5t-20.5 51.5q0 81 110 142h-185z" />
    <glyph glyph-name="Gcircumflex.small" horiz-adv-x="562" 
d="M275 -10q-111 0 -174 62.5t-63 167.5q0 134 87 227t217 93q86 0 161 -33l-19 -70q-59 31 -133 31q-91 0 -157.5 -67.5t-66.5 -177.5q0 -76 40 -119t114 -43q43 0 82 16l37 175h87l-49 -228q-80 -34 -163 -34zM199 566l119 147h74l82 -147h-71l-52 94l-77 -94h-75z" />
    <glyph glyph-name="Gbreve.small" horiz-adv-x="562" 
d="M338 578q-58 0 -88 34t-25 93h62q-2 -68 57 -68q60 0 81 68h65q-13 -60 -53.5 -93.5t-98.5 -33.5zM275 -10q-111 0 -174 62.5t-63 167.5q0 134 87 227t217 93q86 0 161 -33l-19 -70q-59 31 -133 31q-91 0 -157.5 -67.5t-66.5 -177.5q0 -76 40 -119t114 -43q43 0 82 16
l37 175h87l-49 -228q-80 -34 -163 -34z" />
    <glyph glyph-name="Gdotaccent.small" horiz-adv-x="562" 
d="M275 -10q-111 0 -174 62.5t-63 167.5q0 134 87 227t217 93q86 0 161 -33l-19 -70q-59 31 -133 31q-91 0 -157.5 -67.5t-66.5 -177.5q0 -76 40 -119t114 -43q43 0 82 16l37 175h87l-49 -228q-80 -34 -163 -34zM348 599q-24 0 -38 14t-14 35q0 28 19 45.5t44 17.5
q24 0 38 -14t14 -35q0 -27 -19 -45t-44 -18z" />
    <glyph glyph-name="Gcommaaccent.small" horiz-adv-x="562" 
d="M275 -10q-111 0 -174 62.5t-63 167.5q0 134 87 227t217 93q86 0 161 -33l-19 -70q-59 31 -133 31q-91 0 -157.5 -67.5t-66.5 -177.5q0 -76 40 -119t114 -43q43 0 82 16l37 175h87l-49 -228q-80 -34 -163 -34zM159 -237l-20 58q87 21 87 79q0 19 -12 48h80q12 -24 12 -55
q0 -104 -147 -130z" />
    </font>
</defs>
</svg>
